<?xml version="1.0" standalone="no"?>
<!DOCTYPE svg PUBLIC "-//W3C//DTD SVG 20010904//EN"
 "http://www.w3.org/TR/2001/REC-SVG-20010904/DTD/svg10.dtd">
<svg version="1.0" xmlns="http://www.w3.org/2000/svg"
 width="700.000000pt" height="700.000000pt" viewBox="0 0 700.000000 700.000000"
 preserveAspectRatio="xMidYMid meet">
<metadata>
Created by potrace 1.14, written by Peter Selinger 2001-2017
</metadata>
<g transform="translate(0.000000,700.000000) scale(0.100000,-0.100000)"
fill="#000000" stroke="none">
<path d="M5378 5022 c-472 -1 -858 -4 -858 -7 0 -3 -115 -594 -255 -1313 -140
-719 -255 -1311 -255 -1315 0 -4 421 -7 935 -7 739 0 937 3 940 12 5 14 95
487 95 501 0 4 -267 7 -594 7 l-595 0 6 33 c3 17 28 151 57 297 l51 265 545 5
544 5 48 235 c26 129 47 245 48 258 l0 22 -540 0 c-297 0 -540 3 -540 6 0 3
21 113 46 245 l47 239 578 0 c319 0 579 3 579 8 1 4 23 117 49 252 27 135 48
245 47 246 -8 7 -256 9 -978 6z"/>
<path d="M1871 4968 c-34 -164 -501 -2571 -501 -2579 0 -13 1127 -12 1300 1
348 27 603 121 783 290 141 132 214 271 244 465 46 304 -61 536 -292 630 l-57
23 38 12 c92 30 160 74 239 154 84 85 128 155 165 266 27 80 39 278 21 359
-36 171 -163 298 -361 365 -175 58 -198 60 -912 63 l-656 4 -11 -53z m1144
-439 c30 -15 62 -42 80 -68 28 -39 30 -49 29 -124 0 -97 -29 -171 -88 -230
-86 -87 -173 -107 -465 -107 l-213 0 5 23 c3 12 27 130 52 262 25 132 48 248
51 258 6 17 21 18 253 15 242 -3 248 -3 296 -29z m-150 -1019 c120 -46 162
-123 153 -278 -7 -115 -40 -192 -112 -261 -112 -105 -177 -121 -513 -121 -200
0 -253 3 -253 13 0 11 111 592 126 655 l5 24 267 -4 c251 -4 271 -6 327 -28z"/>
</g>
</svg>
