<svg xmlns="http://www.w3.org/2000/svg" width="63.75" height="63.75" viewBox="0 0 63.75 63.75">
  <path id="Icon_awesome-plus-circle" data-name="Icon awesome-plus-circle" d="M32.438.563A31.875,31.875,0,1,0,64.313,32.438,31.87,31.87,0,0,0,32.438.563ZM50.946,36.036A1.547,1.547,0,0,1,49.4,37.579H37.579V49.4a1.547,1.547,0,0,1-1.542,1.542h-7.2A1.547,1.547,0,0,1,27.3,49.4V37.579H15.472a1.547,1.547,0,0,1-1.542-1.542v-7.2A1.547,1.547,0,0,1,15.472,27.3H27.3V15.472a1.547,1.547,0,0,1,1.542-1.542h7.2a1.547,1.547,0,0,1,1.542,1.542V27.3H49.4a1.547,1.547,0,0,1,1.542,1.542Z" transform="translate(-0.563 -0.563)" fill="#b8b8b8"/>
</svg>
