<svg xmlns="http://www.w3.org/2000/svg" width="33.71" height="15.124" viewBox="0 0 49.71 23.124"><path id="Path_250" fill="none" stroke="#fff" stroke-linecap="round" stroke-width="3" d="M3396.146,3225.137a125.067,125.067,0,0,0,17.14,3.064c2.469.246,5.334.527,8.521.779,7.249.573,15.031.822,16.795-.779,2.443-2.217-14.635-7.733-15.544-8.866s3.959-1.1,10.275,2.6c4.3,2.608,5.838,4.294,8.439,6.27,1.443,1.077.809,3.8-3.43,6.555-.562.365-2.271,1.733-3.049,2.173a39.37,39.37,0,0,1-5.39,1.576" data-name="Path 250" transform="translate(-3394.314 -3217.181)"/></svg>