<svg xmlns="http://www.w3.org/2000/svg" width="12.765" height="14.589" viewBox="0 0 12.765 14.589">
  <path id="Icon_awesome-calendar-alt" data-name="Icon awesome-calendar-alt" d="M0,13.221a1.368,1.368,0,0,0,1.368,1.368H11.4a1.368,1.368,0,0,0,1.368-1.368V5.471H0ZM9.118,7.636a.343.343,0,0,1,.342-.342H10.6a.343.343,0,0,1,.342.342v1.14a.343.343,0,0,1-.342.342H9.46a.343.343,0,0,1-.342-.342Zm0,3.647a.343.343,0,0,1,.342-.342H10.6a.343.343,0,0,1,.342.342v1.14a.343.343,0,0,1-.342.342H9.46a.343.343,0,0,1-.342-.342ZM5.471,7.636a.343.343,0,0,1,.342-.342h1.14a.343.343,0,0,1,.342.342v1.14a.343.343,0,0,1-.342.342H5.813a.343.343,0,0,1-.342-.342Zm0,3.647a.343.343,0,0,1,.342-.342h1.14a.343.343,0,0,1,.342.342v1.14a.343.343,0,0,1-.342.342H5.813a.343.343,0,0,1-.342-.342ZM1.824,7.636a.343.343,0,0,1,.342-.342h1.14a.343.343,0,0,1,.342.342v1.14a.343.343,0,0,1-.342.342H2.166a.343.343,0,0,1-.342-.342Zm0,3.647a.343.343,0,0,1,.342-.342h1.14a.343.343,0,0,1,.342.342v1.14a.343.343,0,0,1-.342.342H2.166a.343.343,0,0,1-.342-.342ZM11.4,1.824H10.03V.456A.457.457,0,0,0,9.574,0H8.662a.457.457,0,0,0-.456.456V1.824H4.559V.456A.457.457,0,0,0,4.1,0H3.191a.457.457,0,0,0-.456.456V1.824H1.368A1.368,1.368,0,0,0,0,3.191V4.559H12.765V3.191A1.368,1.368,0,0,0,11.4,1.824Z" fill="#343090"/>
</svg>
