<svg xmlns="http://www.w3.org/2000/svg" width="14.375" height="14.714" viewBox="0 0 16.375 18.714"><path id="Icon_awesome-calendar-alt" fill="#7d7d7d" d="M0,16.96a1.755,1.755,0,0,0,1.754,1.754H14.621a1.755,1.755,0,0,0,1.754-1.754V7.018H0ZM11.7,9.8a.44.44,0,0,1,.439-.439H13.6a.44.44,0,0,1,.439.439v1.462a.44.44,0,0,1-.439.439H12.135a.44.44,0,0,1-.439-.439Zm0,4.679a.44.44,0,0,1,.439-.439H13.6a.44.44,0,0,1,.439.439v1.462a.44.44,0,0,1-.439.439H12.135a.44.44,0,0,1-.439-.439ZM7.018,9.8a.44.44,0,0,1,.439-.439H8.919a.44.44,0,0,1,.439.439v1.462a.44.44,0,0,1-.439.439H7.456a.44.44,0,0,1-.439-.439Zm0,4.679a.44.44,0,0,1,.439-.439H8.919a.44.44,0,0,1,.439.439v1.462a.44.44,0,0,1-.439.439H7.456a.44.44,0,0,1-.439-.439ZM2.339,9.8a.44.44,0,0,1,.439-.439H4.24a.44.44,0,0,1,.439.439v1.462a.44.44,0,0,1-.439.439H2.778a.44.44,0,0,1-.439-.439Zm0,4.679a.44.44,0,0,1,.439-.439H4.24a.44.44,0,0,1,.439.439v1.462a.44.44,0,0,1-.439.439H2.778a.44.44,0,0,1-.439-.439ZM14.621,2.339H12.866V.585A.587.587,0,0,0,12.281,0h-1.17a.587.587,0,0,0-.585.585V2.339H5.848V.585A.587.587,0,0,0,5.263,0H4.094a.587.587,0,0,0-.585.585V2.339H1.754A1.755,1.755,0,0,0,0,4.094V5.848H16.375V4.094A1.755,1.755,0,0,0,14.621,2.339Z" data-name="Icon awesome-calendar-alt"/></svg>