<svg xmlns="http://www.w3.org/2000/svg" width="748.79" height="175.799" viewBox="0 0 748.79 175.799"><path id="Path_84" fill="none" stroke="#6592fd" stroke-linecap="round" stroke-width="2" d="M878.728,3945.631s282.856-25.244,287.089-12.432-310.344-12.96-292.67-5.426,295.793,17.22,295.793,17.22" data-name="Path 84" transform="translate(-670.129 -3770.917)"/><path id="Path_87" fill="none" stroke="#6592fd" stroke-linecap="round" stroke-width="2" d="M1280.582,3926.454s15.93-23.033,20.254-48.066,10.013-40.054,12.517-36.64,5.462,33.682,3.186,48.019,6.145-19.116,9.558-20.254,10.014,5.917,4.1,23.213-16.613,31.633-13.655,29.813,13.427-13.2,13.655-8.193,1.138,38.916-52.343,45.743" data-name="Path 87" transform="translate(-584.815 -3811.919)"/><path id="Path_88" fill="none" stroke="#6592fd" stroke-linecap="round" stroke-width="2" d="M1314.264,3964.184s5.917-10.924,10.241-12.062" data-name="Path 88" transform="translate(-584.815 -3811.919)"/><path id="Path_89" fill="none" stroke="#6592fd" stroke-linecap="round" stroke-width="2" d="M1322.912,3971.922s-8.193,12.062-10.7,13.2" data-name="Path 89" transform="translate(-584.815 -3811.919)"/><path id="Path_90" fill="none" stroke="#6592fd" stroke-linecap="round" stroke-width="2" d="M1293.473,3836.419s15.5-16,19-13.5" data-name="Path 90" transform="translate(-583.023 -3808.919)"/><path id="Path_91" fill="none" stroke="#6592fd" stroke-linecap="round" stroke-width="2" d="M1295.264,3821.919s3.708-9,11.208-9" data-name="Path 91" transform="translate(-584.815 -3811.919)"/><path id="Path_92" fill="none" stroke="#6592fd" stroke-linecap="round" stroke-width="2" d="M1329.837,3926.454s-15.93-23.033-20.254-48.066-10.013-40.054-12.517-36.64-5.462,33.682-3.186,48.019-6.145-19.116-9.558-20.254-10.014,5.917-4.1,23.213,16.613,31.633,13.655,29.813-13.427-13.2-13.655-8.193-1.138,38.916,52.343,45.743" data-name="Path 92" transform="translate(-1276.815 -3818.119)"/><path id="Path_93" fill="none" stroke="#6592fd" stroke-linecap="round" stroke-width="2" d="M1324.505,3964.184a21.229,21.229,0,0,1-3.245-2.134,15.686,15.686,0,0,1-2.973-3.057c-1.782-2.468-3.625-4.143-4.024-6.871" data-name="Path 93" transform="translate(-1304.165 -3814.119)"/><path id="Path_94" fill="none" stroke="#6592fd" stroke-linecap="round" stroke-width="2" d="M1312.216,3971.922s6.781,8.442,8.853,9.239" data-name="Path 94" transform="translate(-1301.523 -3818.119)"/><path id="Path_95" fill="none" stroke="#6592fd" stroke-linecap="round" stroke-width="2" d="M1312.472,3836.419s-13.822-5.971-15.583-11.254" data-name="Path 95" transform="translate(-1274.132 -3815.119)"/><path id="Path_96" fill="none" stroke="#6592fd" stroke-linecap="round" stroke-width="2" d="M1306.472,3821.919s-3.708-9-11.208-9" data-name="Path 96" transform="translate(-1255.132 -3811.119)"/></svg>