<svg xmlns="http://www.w3.org/2000/svg" width="25.027" height="20.649" viewBox="0 0 35.027 30.649">
  <path id="Icon_awesome-camera" data-name="Icon awesome-camera" d="M35.027,9.912v19.7A3.285,3.285,0,0,1,31.743,32.9H3.284A3.285,3.285,0,0,1,0,29.615V9.912A3.285,3.285,0,0,1,3.284,6.628H9.3l.841-2.251A3.279,3.279,0,0,1,13.217,2.25H21.8a3.279,3.279,0,0,1,3.072,2.128l.848,2.251h6.02A3.285,3.285,0,0,1,35.027,9.912Zm-9.3,9.851a8.209,8.209,0,1,0-8.209,8.209A8.216,8.216,0,0,0,25.723,19.764Zm-2.189,0a6.02,6.02,0,1,1-6.02-6.02A6.029,6.029,0,0,1,23.534,19.764Z" transform="translate(0 -2.25)" fill="#7d7d7d" opacity="0.55"/>
</svg>
