<svg xmlns="http://www.w3.org/2000/svg" width="18.5" height="18.5" viewBox="0 0 18.5 18.5"><path id="at-icon" fill="#5F59F7" d="M17.25,8A9.25,9.25,0,1,0,22.3,25a.9.9,0,0,0,.207-1.319l-.38-.464a.893.893,0,0,0-1.17-.191A6.863,6.863,0,1,1,17.25,10.387c3.735,0,6.863,2.149,6.863,5.968,0,1.447-.787,2.974-2.17,3.122-.647-.017-.631-.48-.5-1.12l.874-4.517a.9.9,0,0,0-.879-1.065H19.758a.5.5,0,0,0-.5.447v0a2.868,2.868,0,0,0-2.237-.812,5.321,5.321,0,0,0-5.141,5.649c0,2.436,1.372,3.949,3.581,3.949a3.774,3.774,0,0,0,2.8-1.43c.355,1.272,1.515,1.272,2.637,1.272,4.062,0,5.606-2.671,5.606-5.5C26.5,11.269,22.4,8,17.25,8Zm-.809,11.355A1.336,1.336,0,0,1,15.1,17.834a2.492,2.492,0,0,1,2.187-2.713c.831,0,1.328.568,1.328,1.521A2.574,2.574,0,0,1,16.441,19.355Z" transform="translate(-8 -8)"/></svg>