<svg xmlns="http://www.w3.org/2000/svg" width="18.825" height="18.825" viewBox="0 0 18.825 18.825">
  <path id="Icon_awesome-phone" data-name="Icon awesome-phone" d="M18.14.9,14.317.022a.888.888,0,0,0-1.011.511L11.541,4.651a.88.88,0,0,0,.254,1.029L14.022,7.5a13.626,13.626,0,0,1-6.515,6.515L5.684,11.791a.881.881,0,0,0-1.029-.254L.536,13.3a.893.893,0,0,0-.515,1.015L.9,18.14a.882.882,0,0,0,.86.684,17.058,17.058,0,0,0,17.06-17.06A.881.881,0,0,0,18.14.9Z" transform="translate(0.001 0.001)" fill="#5F59F7"/>
</svg>
