<svg xmlns="http://www.w3.org/2000/svg" width="45.849" height="61.311" viewBox="0 0 65.849 71.311">
  <path id="Path_81" data-name="Path 81" d="M355.776,3389c-4.982,3.528-5.656,17.8-4.578,21.977s2.02,24.643,4.578,30.03,13.331,11.177,14.139,10.369-3.232-7.406-4.444-11.446-3.67-13.432-1.885-19.526,4.983-.808,9.022-4.848,3.771-24.966,0-26.555S360.758,3385.472,355.776,3389Z" transform="translate(-347.19 -3383.514)" fill="none" stroke="#6592fd" stroke-width="7" opacity="0.31"/>
  <path id="Path_82" data-name="Path 82" d="M355.776,3389c-4.982,3.528-5.656,17.8-4.578,21.977s2.02,24.643,4.578,30.03,13.331,11.177,14.139,10.369-3.232-7.406-4.444-11.446-3.67-13.432-1.885-19.526,4.983-.808,9.022-4.848,3.771-24.966,0-26.555S360.758,3385.472,355.776,3389Z" transform="translate(-313.19 -3383.514)" fill="none" stroke="#6592fd" stroke-width="7" opacity="0.31"/>
</svg>
