<svg xmlns="http://www.w3.org/2000/svg" width="75.919" height="75.919" viewBox="0 0 132.919 132.919">
  <path id="Path_40" data-name="Path 40" d="M70.51,2.076c24.885,0,37.573,9.712,51.762,28.516,8.5,11.25,12.878,23.709,12.878,40.23,0,16.438-15.637,39.8-15.637,39.8s-15.966,24.376-40.934,24.376c-22.069,0-39.02-5.252-53.351-19.777-11.409-11.549-23-25.06-23-44.4,0-19.088,10.677-31.457,23-44.829C38.389,11.692,48.193,2.076,70.51,2.076Z" transform="translate(-2.232 -2.076)" fill="rgba(101,146,253,0.13)"/>
  <path id="Path_59" data-name="Path 59" d="M974.762,1348.612s-13.914-2.162-12.259.78,10.665,21.514,12.259,18.94,18.143-18.817,12.259-18.695A72.011,72.011,0,0,1,974.762,1348.612Z" transform="translate(-904.759 -1309.6)" fill="none" stroke="#5f59f7" stroke-width="4"/>
  <path id="Path_69" data-name="Path 69" d="M918.685,1374.75s-11.674,9.047-6.967,7.97,9.038-8.8,12.427-7.97-15.064,10.932-12.427,12.01,14.875-10.823,18.264-12.01-7.72,9.855-11.3,12.548-.941,4.309,4.9-.673,7.908-10.5,10.544-11.177,1.13,2.693,0,4.309-13.557,11.85-9.979,10.773,12.427-8.08,14.687-11.85,7.532-2.828,3.013,1.077-15.252,12.793-13.557,12.254,3.954.135,5.837-1.481,15.063-15.89,16.193-16.429,3.766.269-2.448,6.06-13.745,13.063-11.674,12.793,13.181-9.561,16.57-14.14,11.674-4.444,7.72-2.289-18.453,14.543-18.641,15.486,4.142,2.02,7.343-1.481,10.733-12.658,13.557-14.005,5.837.135,2.448,1.751-14.5,12.928-14.875,13.736" transform="translate(-893.83 -1304.162)" fill="none" stroke="#8c61ff" stroke-linecap="round" stroke-width="2"/>
  <path id="Path_58" data-name="Path 58" d="M904.935,1384.229c-.225-4.608.478-11.51,12.43-12.3s75.175-.43,80.553.4,10.517,4.146,10.876,8.588.239,10.958-10.278,15.005-79,.79-83.9,0S905.16,1388.837,904.935,1384.229Z" transform="translate(-890.437 -1305.03)" fill="none" stroke="#5f59f7" stroke-linecap="round" stroke-width="4"/>
  <path id="Path_60" data-name="Path 60" d="M922.053,1372.489c.175,10.154,0,4.9,0,4.9" transform="translate(-896.133 -1304.6)" fill="none" stroke="#5f59f7" stroke-linecap="round" stroke-width="2"/>
  <path id="Path_61" data-name="Path 61" d="M932.907,1371.06v8.256" transform="translate(-896.133 -1304.6)" fill="none" stroke="#5f59f7" stroke-linecap="round" stroke-width="2"/>
  <path id="Path_62" data-name="Path 62" d="M943.061,1371.06v8.081" transform="translate(-896.133 -1304.6)" fill="none" stroke="#5f59f7" stroke-linecap="round" stroke-width="2"/>
  <path id="Path_63" data-name="Path 63" d="M953.74,1371.06v7.381" transform="translate(-896.133 -1304.6)" fill="none" stroke="#5f59f7" stroke-linecap="round" stroke-width="2"/>
  <path id="Path_64" data-name="Path 64" d="M962.592,1371.06v6.856" transform="translate(-896.133 -1304.6)" fill="none" stroke="#5f59f7" stroke-linecap="round" stroke-width="2"/>
  <path id="Path_65" data-name="Path 65" d="M973,1371.06v7.031" transform="translate(-896.133 -1304.6)" fill="none" stroke="#5f59f7" stroke-linecap="round" stroke-width="2"/>
  <path id="Path_66" data-name="Path 66" d="M982.45,1371.06v7.381" transform="translate(-896.133 -1304.6)" fill="none" stroke="#5f59f7" stroke-linecap="round" stroke-width="2"/>
  <path id="Path_67" data-name="Path 67" d="M992.078,1371.06v6.681" transform="translate(-896.133 -1304.6)" fill="none" stroke="#5f59f7" stroke-linecap="round" stroke-width="2"/>
  <path id="Path_68" data-name="Path 68" d="M1002.232,1372.489v5.777" transform="translate(-896.133 -1304.6)" fill="none" stroke="#5f59f7" stroke-linecap="round" stroke-width="2"/>
</svg>