<svg xmlns="http://www.w3.org/2000/svg" width="75.919" height="75.919" viewBox="0 0 132.919 132.919">
  <path id="Path_39" data-name="Path 39" d="M70.51,2.076c24.885,0,37.573,9.712,51.762,28.516,8.5,11.25,12.878,23.709,12.878,40.23,0,16.438-15.637,39.8-15.637,39.8s-15.966,24.376-40.934,24.376c-22.069,0-39.02-5.252-53.351-19.777-11.409-11.549-23-25.06-23-44.4,0-19.088,10.677-31.457,23-44.829C38.389,11.692,48.193,2.076,70.51,2.076Z" transform="translate(-2.232 -2.076)" fill="rgba(101,146,253,0.13)"/>
  <path id="Path_31" data-name="Path 31" d="M474.241,1348.793c8.6-4.3,17.836-12.58,31.69,3.185s4.459,30.416,1.115,34.079-25.957,15.765-37.582-.637S465.642,1353.093,474.241,1348.793Z" transform="translate(-414.053 -1314.538)" fill="none" stroke="#5f59f7" stroke-linecap="round" stroke-width="4"/>
  <path id="Path_32" data-name="Path 32" d="M512.612,1392.635s18.45,19.11,19.406,20.065" transform="translate(-418.482 -1319.045)" fill="none" stroke="#5f59f7" stroke-linecap="round" stroke-width="4"/>
  <path id="Path_33" data-name="Path 33" d="M459.825,1356.573s-3.556-13.6,6.733-18.864,14.91-1.47,16.748,0" transform="translate(-413.659 -1313.792)" fill="none" stroke="#5f59f7" stroke-linecap="round" stroke-width="4"/>
  <path id="Path_34" data-name="Path 34" d="M491.233,1349.39s4.582,11.235-3.135,16.87-17.545,0-17.545,0" transform="translate(-415.108 -1315.272)" fill="none" stroke="#5f59f7" stroke-linecap="round" stroke-width="4"/>
  <path id="Path_35" data-name="Path 35" d="M440.611,1415.38s-3.218-22.264,6.949-24.1,12.637-2.42,12.637-2.42" transform="translate(-411.933 -1318.608)" fill="none" stroke="#5f59f7" stroke-linecap="round" stroke-width="4"/>
  <path id="Path_36" data-name="Path 36" d="M476.342,1387.09s21.563-.121,23.646,1.717" transform="translate(-415.358 -1318.322)" fill="none" stroke="#5f59f7" stroke-linecap="round" stroke-width="4"/>
  <path id="Path_37" data-name="Path 37" d="M510.822,1398.641s1.735,1.589,2.1,7.1a105.722,105.722,0,0,1,0,11.556" transform="translate(-418.621 -1319.884)" fill="none" stroke="#5f59f7" stroke-linecap="round" stroke-width="4"/>
  <path id="Path_38" data-name="Path 38" d="M451.345,1401.679s-1.767,6.773,5.382,6.209,62.276,9.972,61.147-3.763" transform="translate(-423.15 -1308.812)" fill="none" stroke="#5f59f7" stroke-linecap="round" stroke-width="4"/>
</svg>