<svg xmlns="http://www.w3.org/2000/svg" width="14.134" height="14.134" viewBox="0 0 18.134 18.134">
  <path id="Icon_metro-earth" data-name="Icon metro-earth" d="M11.638,1.928A9.067,9.067,0,1,0,20.7,10.995a9.067,9.067,0,0,0-9.067-9.067Zm0,17A7.907,7.907,0,0,1,8.5,18.283l4.129-4.645a.567.567,0,0,0,.143-.376v-1.7a.567.567,0,0,0-.567-.567c-2,0-4.112-2.08-4.133-2.1a.567.567,0,0,0-.4-.166H5.4a.567.567,0,0,0-.567.567v3.4a.567.567,0,0,0,.313.507l1.953.977v3.327A7.938,7.938,0,0,1,4.468,7.595H6.537a.567.567,0,0,0,.4-.166L9.2,5.162a.567.567,0,0,0,.166-.4V3.391a7.956,7.956,0,0,1,5.743.471c-.073.062-.145.127-.213.2a3.4,3.4,0,0,0,2.4,5.8q.084,0,.169,0a13.308,13.308,0,0,1-.149,6.594.565.565,0,0,0-.015.093,7.909,7.909,0,0,1-5.669,2.385Z" transform="translate(-2.571 -1.928)" fill="#7d7d7d"/>
</svg>
