<svg xmlns="http://www.w3.org/2000/svg" width="16.871" height="16.871" viewBox="0 0 16.871 16.871">
  <path id="Icon_material-language" data-name="Icon material-language" d="M11.427,3a8.436,8.436,0,1,0,8.444,8.436A8.431,8.431,0,0,0,11.427,3Zm5.846,5.061H14.784a13.2,13.2,0,0,0-1.164-3A6.773,6.773,0,0,1,17.273,8.061Zm-5.837-3.34a11.883,11.883,0,0,1,1.611,3.34H9.824A11.883,11.883,0,0,1,11.436,4.721Zm-6.529,8.4a6.6,6.6,0,0,1,0-3.374H7.758a13.932,13.932,0,0,0-.118,1.687,13.932,13.932,0,0,0,.118,1.687ZM5.6,14.81H8.087a13.2,13.2,0,0,0,1.164,3A6.737,6.737,0,0,1,5.6,14.81ZM8.087,8.061H5.6a6.737,6.737,0,0,1,3.653-3A13.2,13.2,0,0,0,8.087,8.061ZM11.436,18.15a11.883,11.883,0,0,1-1.611-3.34h3.222A11.883,11.883,0,0,1,11.436,18.15Zm1.974-5.028H9.462a12.411,12.411,0,0,1-.135-1.687,12.3,12.3,0,0,1,.135-1.687h3.948a12.3,12.3,0,0,1,.135,1.687A12.411,12.411,0,0,1,13.409,13.123Zm.211,4.69a13.2,13.2,0,0,0,1.164-3h2.488a6.773,6.773,0,0,1-3.653,3Zm1.493-4.69a13.931,13.931,0,0,0,.118-1.687,13.932,13.932,0,0,0-.118-1.687h2.851a6.6,6.6,0,0,1,0,3.374Z" transform="translate(-3 -3)" fill="#5f59f7"/>
</svg>
