<svg xmlns="http://www.w3.org/2000/svg" width="89.369" height="88.55" viewBox="0 0 109.369 108.55"><path id="Icon_awesome-user-circle" fill="#d6def8" d="M54.685.562a54.277,54.277,0,1,0,0,108.55,54.846,54.846,0,0,0,45.958-24.844,53.526,53.526,0,0,0,8.726-29.431A54.472,54.472,0,0,0,54.685.562Zm0,21.01a19.259,19.259,0,1,1-19.4,19.259A19.332,19.332,0,0,1,54.685,21.572Zm0,75.285a42.383,42.383,0,0,1-32.3-14.926A24.608,24.608,0,0,1,44.1,68.844a5.433,5.433,0,0,1,1.566.241,29.394,29.394,0,0,0,9.019,1.51,29.282,29.282,0,0,0,9.019-1.51,5.433,5.433,0,0,1,1.566-.241A24.608,24.608,0,0,1,86.988,81.931,42.383,42.383,0,0,1,54.685,96.857Z" data-name="Icon awesome-user-circle" transform="translate(0 -0.563)"/></svg>