<svg xmlns="http://www.w3.org/2000/svg" width="32.323" height="32.081" viewBox="0 0 32.323 32.081">
  <path id="Icon_awesome-user-circle" data-name="Icon awesome-user-circle" d="M16.162.563A16.041,16.041,0,1,0,32.323,16.6,16.1,16.1,0,0,0,16.162.563Zm0,6.209a5.692,5.692,0,1,1-5.735,5.692A5.713,5.713,0,0,1,16.162,6.772Zm0,22.25A12.526,12.526,0,0,1,6.614,24.61a7.273,7.273,0,0,1,6.419-3.868,1.606,1.606,0,0,1,.463.071,8.687,8.687,0,0,0,2.665.446,8.654,8.654,0,0,0,2.665-.446,1.606,1.606,0,0,1,.463-.071,7.273,7.273,0,0,1,6.419,3.868A12.526,12.526,0,0,1,16.162,29.021Z" transform="translate(0 -0.563)" fill="#d6def8"/>
</svg>
