<svg xmlns="http://www.w3.org/2000/svg" xmlns:xlink="http://www.w3.org/1999/xlink" width="136.982" height="129.026" viewBox="0 0 136.982 129.026">
  <defs>
    <linearGradient id="linear-gradient" x1="0.5" y1="1" x2="0.5" gradientUnits="objectBoundingBox">
      <stop offset="0" stop-color="gray" stop-opacity="0.251"/>
      <stop offset="0.54" stop-color="gray" stop-opacity="0.122"/>
      <stop offset="1" stop-color="gray" stop-opacity="0.102"/>
    </linearGradient>
    <linearGradient id="linear-gradient-2" x1="0.5" y1="1.001" x2="0.5" y2="0" xlink:href="#linear-gradient"/>
    <radialGradient id="radial-gradient" cx="0.5" cy="0.499" r="0.526" gradientTransform="translate(0.047) scale(0.907 1)" gradientUnits="objectBoundingBox">
      <stop offset="0" stop-color="#fff"/>
      <stop offset="1"/>
    </radialGradient>
    <radialGradient id="radial-gradient-2" cx="0.5" cy="0.499" r="0.526" gradientTransform="matrix(-0.907, 0, 0, 1, 120.921, 0)" xlink:href="#radial-gradient"/>
  </defs>
  <g id="drawing" transform="translate(0.005 -0.007)">
    <path id="Path_481" data-name="Path 481" d="M211.829,49.226c4.647-4.137,11.943-4.985,18.583-4.655,20.856,1.036,39.682,11.105,55.976,22.495,5.9,4.122,11.7,8.566,15.526,14.244,7.8,11.557,5.479,27.569-5.352,37.091a55.406,55.406,0,0,1-12.741,7.925c-8.155,3.915-16.955,7.058-26.21,7.955a86.338,86.338,0,0,1-19.844-.772c-18.342-2.488-36.338-7.987-51.421-17.394-6.617-4.125-12.852-9.255-15.579-15.929s-.982-15.132,5.774-19.082c2.794-1.634,6.135-2.372,9.4-3.064,4.814-1.02,9.7-2.025,14.05-4.1,4.487-2.141,9.8-6.283,8.91-11.022C207.952,57.83,207.188,53.362,211.829,49.226Z" transform="translate(-169.54 -44.5)" fill="#6c63ff" opacity="0.1"/>
    <path id="Path_482" data-name="Path 482" d="M676.023,138.681s-1.683-.683-7.039,1.772-6.023,2.145-7.409,1.776a5.038,5.038,0,0,1-3.645-2.515s-1.048-5.681-2.068-6.563-5.325.5-5.325.5-5.169,1.185-6.154-5.728c0,0,.7-5.206-.253-6.8,0,0,1.922.827,5.091-.509s5.707,1.44,5.707,1.44a10.513,10.513,0,0,1,.716,3.3c-.08,1.235.423,1.7,1.935,1.1,0,0,.743-1.056-.309-2.8s-1.8-3.047-1.51-4.4a5.468,5.468,0,0,1,3.85-4.178c2.713-.94,6.4-1.114,8.163-1.857a7.081,7.081,0,0,0,2.2-1.217s-1.088,1.09,1.475,5.712.929,6.626.929,6.626-1.363,3.25-7.384,2.986c0,0-5.8.212-2.638,2.671,0,0,2.025-.412,5.053-1.375s5.214,3.01,5.756,5.774A7.277,7.277,0,0,0,676.023,138.681Z" transform="translate(-568.628 -101.255)" fill="#6c63ff"/>
    <path id="Path_483" data-name="Path 483" d="M771.429,133.95l.032-.01c.232.881-2.359,4.426-4.576,7.244l-.026-.021C769.985,137.2,771.609,134.632,771.429,133.95Z" transform="translate(-671.832 -119.705)" fill="#444053"/>
    <path id="Path_484" data-name="Path 484" d="M733.756,179l.014.035c-1.771,2.25-4,4.932-5.778,6.926-.17.189-.339.388-.5.592l-.051-.041c.159-.2.333-.4.5-.593C729.723,183.932,731.984,181.251,733.756,179Z" transform="translate(-638.683 -157.596)" fill="#444053"/>
    <path id="Path_485" data-name="Path 485" d="M705.964,225.89l.035.06c-3.242,4.049-3.457,10.341-3.465,10.391l-.684-.8A22.964,22.964,0,0,1,705.964,225.89Z" transform="translate(-617.165 -197.026)" fill="#444053"/>
    <path id="Path_486" data-name="Path 486" d="M687.574,195.735s-3.818-1.989-6.8-1.273-9.7-2.53-9.7-2.53-2.848-1.157-3.421-2.476c0,0-1.955-2.068-2.068-3.136s-2.014-3.758-3.255-3.861" transform="translate(-583.932 -160.505)" fill="none" stroke="#444053" stroke-miterlimit="10" stroke-width="1"/>
    <path id="Path_487" data-name="Path 487" d="M808.385,263.08s-1.925-1.3-1.7-2.81" transform="translate(-705.304 -225.936)" fill="none" stroke="#444053" stroke-miterlimit="10" stroke-width="1"/>
    <path id="Path_488" data-name="Path 488" d="M782.933,262.459s-2.754-1-3.023-4.919" transform="translate(-682.805 -223.64)" fill="none" stroke="#444053" stroke-miterlimit="10" stroke-width="1"/>
    <path id="Path_489" data-name="Path 489" d="M760.769,263.138a6.162,6.162,0,0,1-1.758-6" transform="translate(-665.082 -223.304)" fill="none" stroke="#444053" stroke-miterlimit="10" stroke-width="1"/>
    <path id="Path_490" data-name="Path 490" d="M732.98,256.076s-1.75-3.675-.193-6.066" transform="translate(-642.637 -217.308)" fill="none" stroke="#444053" stroke-miterlimit="10" stroke-width="1"/>
    <path id="Path_491" data-name="Path 491" d="M812.647,250.67s-1.99.636-1.564,1.68" transform="translate(-708.969 -217.863)" fill="none" stroke="#444053" stroke-miterlimit="10" stroke-width="1"/>
    <path id="Path_492" data-name="Path 492" d="M791.717,228s-2.665.845-2.727,4.614" transform="translate(-690.441 -198.8)" fill="none" stroke="#444053" stroke-miterlimit="10" stroke-width="1"/>
    <path id="Path_493" data-name="Path 493" d="M770.839,222.48s-2.426,2.994-2.248,5.715" transform="translate(-673.279 -194.158)" fill="none" stroke="#444053" stroke-miterlimit="10" stroke-width="1"/>
    <path id="Path_494" data-name="Path 494" d="M744.819,229.86s-2.409,2.3-2.1,3.584" transform="translate(-651.507 -200.364)" fill="none" stroke="#444053" stroke-miterlimit="10" stroke-width="1"/>
    <path id="Path_495" data-name="Path 495" d="M733.326,222.967s-2.259.4-2.576-.337" transform="translate(-641.467 -194.284)" fill="none" stroke="#444053" stroke-miterlimit="10" stroke-width="1"/>
    <path id="Path_496" data-name="Path 496" d="M728.49,207.61s1.141,1.511,1.432,1.173" transform="translate(-639.566 -181.654)" fill="none" stroke="#444053" stroke-miterlimit="10" stroke-width="1"/>
    <path id="Path_497" data-name="Path 497" d="M762.694,194.7s-5.7.414-6.984-1.3" transform="translate(-662.456 -169.705)" fill="none" stroke="#444053" stroke-miterlimit="10" stroke-width="1"/>
    <path id="Path_498" data-name="Path 498" d="M721,159.73s2.671,5.735,4.614,6.466" transform="translate(-633.268 -141.392)" fill="none" stroke="#444053" stroke-miterlimit="10" stroke-width="1"/>
    <path id="Path_499" data-name="Path 499" d="M738.58,142.56s1.64,5.276,3.674,6.922" transform="translate(-648.051 -126.953)" fill="none" stroke="#444053" stroke-miterlimit="10" stroke-width="1"/>
    <path id="Path_500" data-name="Path 500" d="M778.04,174.112s-4.331,1.858-6.93-.022" transform="translate(-675.405 -153.467)" fill="none" stroke="#444053" stroke-miterlimit="10" stroke-width="0.75"/>
    <path id="Path_501" data-name="Path 501" d="M762.82,135.49s.99,3.877,2.323,4.814" transform="translate(-668.435 -121.008)" fill="none" stroke="#444053" stroke-miterlimit="10" stroke-width="0.75"/>
    <path id="Path_502" data-name="Path 502" d="M792.9,146.92s-2.434.923-3.341.216" transform="translate(-690.92 -130.62)" fill="none" stroke="#444053" stroke-miterlimit="10" stroke-width="0.75"/>
    <path id="Path_503" data-name="Path 503" d="M710.52,215.57s0,3.381-.92,3.621" transform="translate(-623.682 -188.348)" fill="none" stroke="#444053" stroke-miterlimit="10" stroke-width="1"/>
    <path id="Path_504" data-name="Path 504" d="M668.09,234.783s3.659.318,5.341-1.573" transform="translate(-588.776 -203.181)" fill="none" stroke="#444053" stroke-miterlimit="10" stroke-width="1"/>
    <path id="Path_505" data-name="Path 505" d="M691.885,190.47s-.885,3.429-3.325,4.353" transform="translate(-605.989 -167.241)" fill="none" stroke="#444053" stroke-miterlimit="10" stroke-width="1"/>
    <path id="Path_506" data-name="Path 506" d="M654.31,213.051a4.788,4.788,0,0,0,4.813-1.391" transform="translate(-577.188 -185.06)" fill="none" stroke="#444053" stroke-miterlimit="10" stroke-width="1"/>
    <path id="Path_507" data-name="Path 507" d="M681.716,171.94s-.243,2.911-1.826,4.275" transform="translate(-598.698 -151.659)" fill="none" stroke="#444053" stroke-miterlimit="10" stroke-width="1"/>
    <path id="Path_508" data-name="Path 508" d="M654.93,188.886s2.146.014,2.649-.686" transform="translate(-577.71 -165.332)" fill="none" stroke="#444053" stroke-miterlimit="10" stroke-width="1"/>
    <ellipse id="Ellipse_25" data-name="Ellipse 25" cx="59.821" cy="11.614" rx="59.821" ry="11.614" transform="translate(7.709 105.804)" fill="#6c63ff" opacity="0.1"/>
    <path id="Path_509" data-name="Path 509" d="M431.73,434.525l-.017.619-1.076,37.948H428.83l.885-37.948.017-.714Z" transform="translate(-360.608 -365.307)" fill="#504f60"/>
    <path id="Path_510" data-name="Path 510" d="M431.73,434.525l-.017.619-1.076,37.948H428.83l.885-37.948.017-.714Z" transform="translate(-360.608 -365.307)" opacity="0.1"/>
    <path id="Path_511" data-name="Path 511" d="M393.681,627.537l-1.352,0-20.116-.043-1.072,0,.571-1.76h21.828Z" transform="translate(-312.097 -526.172)" fill="#504f60"/>
    <path id="Path_512" data-name="Path 512" d="M436.406,434.525l-.018.619h-2l.018-.714Z" transform="translate(-365.284 -365.307)" opacity="0.1"/>
    <rect id="Rectangle_84" data-name="Rectangle 84" width="3.352" height="1.262" transform="translate(68.53 68.29)" fill="#504f60"/>
    <path id="Path_513" data-name="Path 513" d="M372.391,625.73l-.178,1.761-1.072,0,.571-1.76Z" transform="translate(-312.097 -526.172)" opacity="0.1"/>
    <path id="Path_514" data-name="Path 514" d="M362.461,429.05l-.054.547-4.463,44.013-2.044-.1,4.7-43.916.052-.5Z" transform="translate(-299.281 -360.783)" fill="#504f60"/>
    <path id="Path_515" data-name="Path 515" d="M504.7,627.537l-1.352,0-.185-1.8h1.4Z" transform="translate(-423.112 -526.172)" opacity="0.1"/>
    <path id="Path_516" data-name="Path 516" d="M491.583,473.513l-2.046.1L485.076,429.6l-.056-.547,1.807.048.052.5Z" transform="translate(-407.858 -360.783)" fill="#504f60"/>
    <rect id="Rectangle_85" data-name="Rectangle 85" width="45.082" height="43.227" transform="translate(47.345 24.873)" fill="#fff"/>
    <rect id="Rectangle_86" data-name="Rectangle 86" width="45.082" height="43.227" transform="translate(47.345 24.873)" fill="#fff"/>
    <path id="Path_517" data-name="Path 517" d="M605.054,105.092v10.437H603.3V105.092a.88.88,0,1,1,1.758,0Z" transform="translate(-534.29 -94.675)" fill="#504f60"/>
    <rect id="Rectangle_87" data-name="Rectangle 87" width="1.76" height="0.95" transform="translate(69.006 19.904)" opacity="0.1"/>
    <path id="Path_518" data-name="Path 518" d="M602.133,171.788v3.448H599v-3.448a.428.428,0,0,1,.428-.428H601.7A.43.43,0,0,1,602.133,171.788Z" transform="translate(-530.678 -151.171)" fill="#504f60"/>
    <circle id="Ellipse_26" data-name="Ellipse 26" cx="0.665" cy="0.665" r="0.665" transform="translate(69.221 21.711)" opacity="0.1"/>
    <circle id="Ellipse_27" data-name="Ellipse 27" cx="0.665" cy="0.665" r="0.665" transform="translate(69.221 21.568)" fill="#3f3d56"/>
    <rect id="Rectangle_88" data-name="Rectangle 88" width="3.139" height="0.428" transform="translate(68.317 23.636)" opacity="0.1"/>
    <rect id="Rectangle_89" data-name="Rectangle 89" width="5.707" height="0.951" transform="translate(67.032 24.208)" opacity="0.1"/>
    <rect id="Rectangle_90" data-name="Rectangle 90" width="5.707" height="0.951" transform="translate(67.032 23.921)" fill="#504f60"/>
    <path id="Path_519" data-name="Path 519" d="M361.264,421h23.968a1.034,1.034,0,0,1,1.034,1.034v.226H360.23v-.226A1.034,1.034,0,0,1,361.264,421Z" transform="translate(-302.922 -354.014)" opacity="0.1"/>
    <path id="Path_520" data-name="Path 520" d="M385.5,429.1l1.807-.048-.054.547H385.45Z" transform="translate(-324.13 -360.783)" opacity="0.1"/>
    <rect id="Rectangle_91" data-name="Rectangle 91" width="3.352" height="0.523" transform="translate(68.53 68.29)" opacity="0.1"/>
    <path id="Path_521" data-name="Path 521" d="M486.88,429.6h-1.8l-.056-.547,1.807.048Z" transform="translate(-407.858 -360.783)" opacity="0.1"/>
    <path id="Path_522" data-name="Path 522" d="M361.264,422.77h23.968a1.034,1.034,0,0,1,1.034,1.034v.226H360.23V423.8a1.034,1.034,0,0,1,1.034-1.034Z" transform="translate(-302.922 -355.503)" fill="#504f60"/>
    <path id="Path_523" data-name="Path 523" d="M490.388,218.508c1.4-1.764,3.588-2.122,5.583-1.982,6.265.441,11.921,4.728,16.814,9.578a21.865,21.865,0,0,1,4.665,6.065c2.34,4.921,1.645,11.738-1.609,15.792a17.233,17.233,0,0,1-3.828,3.374,18.89,18.89,0,0,1-7.874,3.386,18.392,18.392,0,0,1-5.961-.328,32.332,32.332,0,0,1-15.444-7.406,14.591,14.591,0,0,1-4.681-6.781c-.819-2.841-.294-6.443,1.734-8.125a7.709,7.709,0,0,1,2.826-1.306,14.753,14.753,0,0,0,4.221-1.75c1.348-.913,2.943-2.676,2.676-4.695C489.224,222.17,488.995,220.269,490.388,218.508Z" transform="translate(-428.663 -189.128)" fill="#6c63ff" opacity="0.05"/>
    <path id="Path_524" data-name="Path 524" d="M348.954,179.807l-13.013,3.452-.466,1.575a5.946,5.946,0,0,1-1.628-.407c-.251-.105-1.114-.636-1.833-.929a2.322,2.322,0,0,1,.29-1.079c.67-1.187,1.634-2.321,1.6-3.674a9.717,9.717,0,0,0-.229-1.432,14,14,0,0,1-.13-2.6c0-.455.011-.908.016-1.362.073.027.148.054.228.078.116.037.22.072.318.108v.025a.926.926,0,0,0-.032.229c1.206.465,1.114.916,1.114.916l.115.024a2.923,2.923,0,0,0-.138-1.909l-.064-.013a2.259,2.259,0,0,0-1.15-1.139c-.129-.062-.25-.126-.363-.189q.017-1.475.032-2.948a3.3,3.3,0,0,0-.087-.993,4.357,4.357,0,0,0-.512-.964c-.191-.318-.364-.636-.565-.955a4.238,4.238,0,0,1,.581-.5c.118-.086.239-.169.36-.251l.183-.126c.183-.126.364-.253.535-.39a3.469,3.469,0,0,0,.468-.449,2.486,2.486,0,0,0,.2-.274l.032-.048a2.655,2.655,0,0,0,.159-.282c.01-.017.016-.035.024-.053a3.161,3.161,0,0,0,.119-.309h0a3.345,3.345,0,0,0,.088-.329.293.293,0,0,1,.008-.037c.022-.111.04-.224.054-.337V162.2a5.663,5.663,0,0,0,0-1.114h0c-.018-.188-.04-.375-.07-.558a15.136,15.136,0,0,1-.477-3.5,1.194,1.194,0,0,1,.018-.15h0a11.71,11.71,0,0,1,.566-2.243c.019-.064.04-.126.059-.189.01-.029.017-.057.027-.086.029-.094.056-.188.083-.282v-.013a5.016,5.016,0,0,0,.232-2.135h0a3.1,3.1,0,0,0-.1-.453,5.483,5.483,0,0,0-1.909-2.367,17.075,17.075,0,0,0-4.625-2.956,8.088,8.088,0,0,0-4.735-.393c-1.607.355-3.182.263-4.757.932a2.215,2.215,0,0,0-1.286,1.066,3.607,3.607,0,0,0-.137,1.048,3.635,3.635,0,0,1-1.033,2.24c-.428.431-.955.753-1.378,1.193a3,3,0,0,0-.753,1.432h0a2.629,2.629,0,0,0-.046.8v.008a.962.962,0,0,0,.027.178v.022c.011.057.025.113.04.169a.179.179,0,0,1,0,.029c.016.054.035.108.056.159l.01.032a1.952,1.952,0,0,0,.084.186c.159.307.377.578.543.878.04.073.076.146.108.221a3.877,3.877,0,0,1,.266.947c.025.159.045.328.06.492.008.083.014.159.021.247a17.4,17.4,0,0,1-.094,3.441c-.035.282-.076.566-.105.85h0a1.359,1.359,0,0,1-.013.138,1.784,1.784,0,0,0-1.013.931,3.373,3.373,0,0,0-.145,1.152,3.014,3.014,0,0,1-.463,1.653,1.318,1.318,0,0,0-.676,1.079,6.471,6.471,0,0,0-.084,1.095c0,.46.013.929.049,1.4h0c-.03.056-.059.115-.086.175a.031.031,0,0,1-.013.03c-.022.052-.043.1-.064.159,0,.01-.008.019-.011.03-.024.062-.045.126-.065.189h0c-.019.06-.037.122-.053.185l-.01.04c-.014.056-.027.11-.04.159v.022c-.013.06-.024.119-.035.177a.279.279,0,0,1,0,.035.861.861,0,0,1-.021.13v.041c-.008.051-.013.1-.018.146a.79.79,0,0,1-.01.113,2.5,2.5,0,0,1-.132.783,2.7,2.7,0,0,1-.175.328c-.021.037-.041.073-.059.11a1.87,1.87,0,0,0-.159.5,2.371,2.371,0,0,0-.037.259c-.016.175-.019.355-.017.533v.807a5.439,5.439,0,0,1-.076.6q-.027.148-.057.3c-.021.1-.043.2-.065.3q-.134.611-.269,1.223c-.091.407-.181.815-.275,1.22-.188.815-.382,1.626-.592,2.434a6.221,6.221,0,0,0-.138.624,2.1,2.1,0,0,0-.014.622,1.241,1.241,0,0,0,.121.391c.032.064.072.126.108.188a1.459,1.459,0,0,1,.1.191,2.909,2.909,0,0,1,.084.883,1.165,1.165,0,0,0,.056.288.929.929,0,0,0,.8.593.768.768,0,0,0,.135,0l.124.294a1.96,1.96,0,0,0,.52.815,1.382,1.382,0,0,0,1.139.2,4.018,4.018,0,0,0,1.09-.477c.823-.458,1.647-.918,2.458-1.4a1.774,1.774,0,0,1,.372.555.508.508,0,0,1,.027.185.992.992,0,0,1-.113.356c-.2.423-.395.846-.59,1.273-1.37,2.947-1.05,6.378-.762,9.6.124,1.363.334,2.716.449,4.079.286,3.382,0,6.8.388,10.17.212,1.817.624,3.605.9,5.409a38.108,38.108,0,0,1,.439,4.98c.159-.048.31-.089.466-.127l.17-.041c.118-.027.235-.049.353-.072s.215-.037.318-.052h0a10.847,10.847,0,0,1,2.181-.089l.291.024c.027.226.054.445.075.649a1.541,1.541,0,0,0,.016.159,29.084,29.084,0,0,0,.382,2.9,2.351,2.351,0,0,1,.057.8,2.3,2.3,0,0,1-.7,1.114,17.489,17.489,0,0,0-2.434,2.776,13.742,13.742,0,0,0-1.491,4.109,62.552,62.552,0,0,0-1.338,6.364,1.135,1.135,0,0,0,0,.395.257.257,0,0,0-.016.029,9.6,9.6,0,0,0-1.085,1.8,4.625,4.625,0,0,0-.159,1.365q-.021,1.193-.045,2.386a16.072,16.072,0,0,0,.458,5.144,4.161,4.161,0,0,0,.834,1.573,2.2,2.2,0,0,0,1.591.756,2.809,2.809,0,0,0,.743-.127l.121-.038a2.135,2.135,0,0,0,.054,1.068.749.749,0,0,0,.189.331.844.844,0,0,0,.277.159c1.558.6,3.341.078,4.985.368,1.917.336,3.535,1.75,5.475,1.909a1.67,1.67,0,0,0,1.185-.256,1.22,1.22,0,0,0,.383-1.169,1.346,1.346,0,0,0-.078-.256,1.658,1.658,0,0,0-1.311-.986,6.176,6.176,0,0,1-4.34-2.8,7.717,7.717,0,0,1-1-4.324,23.254,23.254,0,0,1,.718-4.434q1.009-4.4,2.021-8.8a31.81,31.81,0,0,0,.636-3.354c.067-.576.1-1.157.119-1.739.049-.086.1-.172.145-.259a11.587,11.587,0,0,0,1.336-3.312,12.975,12.975,0,0,0,.159-1.89v-.159c.008-.216.016-.434.025-.651a.9.9,0,0,0,.159-.01c1.839-.189,3.4-1.76,5.241-1.6.159.132.278-.121.372-.3.942-1.774.514-3.911.146-5.877a74.972,74.972,0,0,1-1.265-16.123,32.078,32.078,0,0,0-.223-7.032l12.023-3.977Zm-6.176,3.023c0,.186-.24.344-.576.4a2.35,2.35,0,0,1,.025-.425.554.554,0,0,0-.159-.4c.4.035.713.21.713.42Zm-1.3-.377a.565.565,0,0,0-.121.353.536.536,0,0,1,0,.259.536.536,0,0,0,.01.1c-.205-.08-.34-.2-.34-.339S341.2,182.528,341.477,182.453ZM316.26,178.51l.021.078h-.148Zm4.506,71.465a18.076,18.076,0,0,1-.25-3.906q.013-1.615.027-3.231a7.721,7.721,0,0,1,.086-1.314c.041-.231.1-.46.15-.689a8.353,8.353,0,0,1,.646-1.273v.016a24.881,24.881,0,0,0-.111,5.72A8.139,8.139,0,0,1,320.765,249.976Zm13.248-62.223c-.041-.07-.084-.137-.127-.205.242.072.477.142.727.21l-.216.733C334.279,188.241,334.158,187.994,334.013,187.752Z" transform="translate(-288.587 -129.49)" fill="url(#linear-gradient)"/>
    <path id="Path_525" data-name="Path 525" d="M340.792,149.25a2.169,2.169,0,0,0-1.254,1.063,3.616,3.616,0,0,0-.132,1.042,3.65,3.65,0,0,1-1.007,2.227c-.417.43-.935.751-1.341,1.188a2.769,2.769,0,0,0-.558,3.01c.15.305.368.574.528.875a4.631,4.631,0,0,1,.442,1.9,17.751,17.751,0,0,1-.089,3.427,6.158,6.158,0,0,0-.054,2.184,4.773,4.773,0,0,0,.678,1.422,10.66,10.66,0,0,0,2.889,3.22,8.783,8.783,0,0,0,4.235,1.357,22.644,22.644,0,0,0,4.485-.208c1.114-.134,2.415-.412,2.891-1.432.264-.571.2-1.251.444-1.828.447-1.042,1.736-1.432,2.456-2.3a4.218,4.218,0,0,0,.6-3.368,15.355,15.355,0,0,1-.465-3.489c.137-1.885,1.432-3.725.862-5.53a5.439,5.439,0,0,0-1.858-2.358,16.518,16.518,0,0,0-4.506-2.943,7.711,7.711,0,0,0-4.614-.393C343.861,148.676,342.321,148.588,340.792,149.25Z" transform="translate(-309.745 -131.639)" fill="#2f2e41"/>
    <g id="Group_99" data-name="Group 99" transform="translate(26.514 22.825)" opacity="0.08">
      <path id="Path_526" data-name="Path 526" d="M337.455,203.948a17.41,17.41,0,0,0-.033-1.8,4.642,4.642,0,0,0-.442-1.9c-.159-.3-.379-.568-.528-.873a2.2,2.2,0,0,1-.175-.508,2.447,2.447,0,0,0,.175,1.581c.15.305.368.574.528.875a4.631,4.631,0,0,1,.442,1.9C337.445,203.465,337.455,203.707,337.455,203.948Z" transform="translate(-336.216 -197.129)"/>
      <path id="Path_527" data-name="Path 527" d="M457.337,191.938a5.6,5.6,0,0,0,.016.924c.175-1.675,1.19-3.316.947-4.932C458.126,189.247,457.432,190.581,457.337,191.938Z" transform="translate(-438.057 -187.93)"/>
      <path id="Path_528" data-name="Path 528" d="M360.567,247.029c-.721.873-2.009,1.255-2.456,2.3-.248.579-.18,1.258-.444,1.83-.477,1.02-1.772,1.3-2.891,1.432a22.519,22.519,0,0,1-4.485.208,8.8,8.8,0,0,1-4.235-1.357,10.649,10.649,0,0,1-2.889-3.222,4.772,4.772,0,0,1-.678-1.421,2.486,2.486,0,0,1-.049-.264,4.013,4.013,0,0,0,.049,1.338,4.773,4.773,0,0,0,.678,1.422,10.661,10.661,0,0,0,2.889,3.22,8.783,8.783,0,0,0,4.235,1.357,22.644,22.644,0,0,0,4.485-.208c1.114-.134,2.415-.412,2.891-1.432.264-.571.2-1.251.444-1.828.447-1.042,1.736-1.432,2.456-2.3a3.808,3.808,0,0,0,.667-2.813,3.167,3.167,0,0,1-.667,1.739Z" transform="translate(-341.42 -236.164)"/>
    </g>
    <path id="Path_529" data-name="Path 529" d="M380.466,231.794a3.3,3.3,0,0,1-2.291,1.012,5.707,5.707,0,0,1-2.495-.519,9.217,9.217,0,0,1-5.422-7.169,1.51,1.51,0,0,1,.03-.711c.231-.649,1.088-.754,1.664-1.139a2.534,2.534,0,0,0,.966-1.573c.038-.167.07-.334.1-.5.067-.453.1-.913.181-1.365a1.45,1.45,0,0,1,.22-.613,1.354,1.354,0,0,1,.578-.417,6.228,6.228,0,0,1,4.432.188c.447.17.361.221.191.66a8.814,8.814,0,0,0-.285.854c-.024.081-.046.159-.067.245a9.55,9.55,0,0,0-.293,2.286,3.705,3.705,0,0,0,.468,2.04c.616.94,1.868,1.336,2.428,2.312a3.273,3.273,0,0,1,.364,1.251A4,4,0,0,1,380.466,231.794Z" transform="translate(-338.304 -190.781)" fill="#fbbebe"/>
    <path id="Path_530" data-name="Path 530" d="M342.906,734.362a4.687,4.687,0,0,0-.159,1.359l-.045,2.387a16.3,16.3,0,0,0,.449,5.121,4.149,4.149,0,0,0,.811,1.569,2.116,2.116,0,0,0,1.553.753,2.685,2.685,0,0,0,.724-.129,1.833,1.833,0,0,0,1.1-.7,2.392,2.392,0,0,0,.014-1.728,18.265,18.265,0,0,1-.251-3.934l.027-3.219a7.8,7.8,0,0,1,.083-1.308c.062-.345.17-.684.2-1.033a1.114,1.114,0,0,0-.18-.772,1.07,1.07,0,0,0-.59-.345c-.409-.1-.838-.078-1.257-.142a1.8,1.8,0,0,1-.541-.159c-.1-.049-.318-.277-.423-.275-.207,0-.342.568-.457.764A9.155,9.155,0,0,0,342.906,734.362Z" transform="translate(-315.144 -622.455)" fill="#fbbebe"/>
    <path id="Path_531" data-name="Path 531" d="M375.233,600.666c-1.133,3.382-.363,7.115-.773,10.672a31.828,31.828,0,0,1-.625,3.341l-1.968,8.763a23.553,23.553,0,0,0-.7,4.417,7.9,7.9,0,0,0,.98,4.307,6.007,6.007,0,0,0,4.227,2.791,1.621,1.621,0,0,1,1.273.983,1.4,1.4,0,0,1,.075.255,1.228,1.228,0,0,1-.374,1.165,1.61,1.61,0,0,1-1.153.256c-1.89-.159-3.467-1.572-5.335-1.909-1.607-.288-3.341.237-4.856-.366a.822.822,0,0,1-.269-.159.745.745,0,0,1-.185-.328c-.356-1.114.375-2.24.859-3.3a8.261,8.261,0,0,0,.611-4.849,25.307,25.307,0,0,1,.11-5.7,34.464,34.464,0,0,1,.713-5.2,17.379,17.379,0,0,1,.905-3.387c.278-.636.646-1.243.939-1.877a17.343,17.343,0,0,0,1.085-3.71,37.494,37.494,0,0,0,1.06-7.711,7.973,7.973,0,0,1,2.926.549A.819.819,0,0,1,375.233,600.666Z" transform="translate(-334.29 -510.875)" fill="#fbbebe"/>
    <path id="Path_532" data-name="Path 532" d="M375.233,600.666c-1.133,3.382-.363,7.115-.773,10.672a31.828,31.828,0,0,1-.625,3.341l-1.968,8.763a23.553,23.553,0,0,0-.7,4.417,7.9,7.9,0,0,0,.98,4.307,6.007,6.007,0,0,0,4.227,2.791,1.621,1.621,0,0,1,1.273.983,1.4,1.4,0,0,1,.075.255,1.228,1.228,0,0,1-.374,1.165,1.61,1.61,0,0,1-1.153.256c-1.89-.159-3.467-1.572-5.335-1.909-1.607-.288-3.341.237-4.856-.366a.822.822,0,0,1-.269-.159.745.745,0,0,1-.185-.328c-.356-1.114.375-2.24.859-3.3a8.261,8.261,0,0,0,.611-4.849,25.307,25.307,0,0,1,.11-5.7,34.464,34.464,0,0,1,.713-5.2,17.379,17.379,0,0,1,.905-3.387c.278-.636.646-1.243.939-1.877a17.343,17.343,0,0,0,1.085-3.71,37.494,37.494,0,0,0,1.06-7.711,7.973,7.973,0,0,1,2.926.549A.819.819,0,0,1,375.233,600.666Z" transform="translate(-334.29 -510.875)" opacity="0.08"/>
    <path id="Path_533" data-name="Path 533" d="M363.937,596q-.1,2.466-.183,4.932v.159a13.064,13.064,0,0,1-.159,1.882,11.618,11.618,0,0,1-1.3,3.3,7.4,7.4,0,0,1-.571.955c-.188.255-.406.487-.581.748a9.528,9.528,0,0,0-.859,2.278c-1.214,3.513-5,5.632-6.272,9.123a20.1,20.1,0,0,1-2.813-1.017.66.66,0,0,1-.492-.864,63.709,63.709,0,0,1,1.3-6.34,13.9,13.9,0,0,1,1.453-4.094,17.324,17.324,0,0,1,2.372-2.765,2.229,2.229,0,0,0,.681-1.1,2.327,2.327,0,0,0-.056-.8q-.258-1.432-.372-2.888a.58.58,0,0,0-.014-.159,8.183,8.183,0,0,1-.086-2.363c.288-1.241,2.7-1.5,3.763-1.521A18.309,18.309,0,0,1,363.937,596Z" transform="translate(-321.856 -507.803)" fill="#fbbebe"/>
    <path id="Path_534" data-name="Path 534" d="M437.183,385.437a8.478,8.478,0,0,0,5.148.1,24.624,24.624,0,0,1,5.136-.955c.488,0,1.1.145,1.187.627a1.123,1.123,0,0,1-.215.721,2.855,2.855,0,0,1-.888,1.09,4.084,4.084,0,0,1-1.037.356c-.66.188-1.273.516-1.909.767a17.14,17.14,0,0,1-3.378.837,6.444,6.444,0,0,1-1.626.148,5.907,5.907,0,0,1-1.076-.215q-1.551-.42-3.067-.955a.753.753,0,0,1-.5-.363.841.841,0,0,1-.024-.379,4.629,4.629,0,0,0-.134-1.523c-.065-.248-.576-1.134-.4-1.314C434.79,383.966,436.782,385.267,437.183,385.437Z" transform="translate(-392.231 -330.234)" fill="#fbbebe"/>
    <path id="Path_535" data-name="Path 535" d="M437.183,385.437a8.478,8.478,0,0,0,5.148.1,24.624,24.624,0,0,1,5.136-.955c.488,0,1.1.145,1.187.627a1.123,1.123,0,0,1-.215.721,2.855,2.855,0,0,1-.888,1.09,4.084,4.084,0,0,1-1.037.356c-.66.188-1.273.516-1.909.767a17.14,17.14,0,0,1-3.378.837,6.444,6.444,0,0,1-1.626.148,5.907,5.907,0,0,1-1.076-.215q-1.551-.42-3.067-.955a.753.753,0,0,1-.5-.363.841.841,0,0,1-.024-.379,4.629,4.629,0,0,0-.134-1.523c-.065-.248-.576-1.134-.4-1.314C434.79,383.966,436.782,385.267,437.183,385.437Z" transform="translate(-392.231 -330.234)" opacity="0.08"/>
    <path id="Path_536" data-name="Path 536" d="M393.332,219.644a8.825,8.825,0,0,0-.285.854,5.269,5.269,0,0,1-5.317.692c.067-.453.1-.913.181-1.365a1.45,1.45,0,0,1,.22-.613,1.354,1.354,0,0,1,.578-.417,6.228,6.228,0,0,1,4.432.188C393.588,219.154,393.5,219.2,393.332,219.644Z" transform="translate(-353.021 -190.781)" opacity="0.1"/>
    <circle id="Ellipse_28" data-name="Ellipse 28" cx="5.265" cy="5.265" r="5.265" transform="translate(31.521 20.09)" fill="#fbbebe"/>
    <path id="Path_537" data-name="Path 537" d="M391.637,595.983q-.1,2.466-.183,4.932a7.416,7.416,0,0,1-2.5-.441,26.493,26.493,0,0,0-5.2-1.138,8.182,8.182,0,0,1-.086-2.363c.288-1.241,2.7-1.5,3.763-1.521A18.513,18.513,0,0,1,391.637,595.983Z" transform="translate(-349.556 -507.789)" opacity="0.08"/>
    <path id="Path_538" data-name="Path 538" d="M350.3,294.673c-.092.178-.213.43-.363.3-1.795-.159-3.314,1.4-5.105,1.591a7,7,0,0,1-2.674-.428c-2.921-.865-6.055-1.7-8.956-.784a38.912,38.912,0,0,0-.428-4.959c-.274-1.8-.675-3.581-.881-5.39-.385-3.359-.1-6.76-.379-10.128-.111-1.359-.318-2.7-.436-4.063-.282-3.212-.593-6.631.741-9.567q.286-.636.576-1.265a.99.99,0,0,0,.11-.355.539.539,0,0,0-.025-.185c-.078-.267-.336-.477-.49-.729a2.305,2.305,0,0,1-.2-1.421c.018-.205.072-.374.086-.579a7.7,7.7,0,0,1-1.13-2.585c-.282-1.05-.46-2.151-.772-3.192-.5-1.671-1.359-3.225-1.779-4.918a11.926,11.926,0,0,1-.243-2.7,6.782,6.782,0,0,1,.081-1.091,1.318,1.318,0,0,1,.66-1.074,3.068,3.068,0,0,0,.45-1.647,3.549,3.549,0,0,1,.14-1.147,2.269,2.269,0,0,1,1.874-1.173,8.243,8.243,0,0,0,2.273-.409,4.823,4.823,0,0,0,.754-.46,26.828,26.828,0,0,0,2.6-1.97.159.159,0,0,1,.072-.041.161.161,0,0,1,.1.048c.662.589,1.321,1.177,1.982,1.764.361.318.722.636,1.055.991a8.609,8.609,0,0,1,1.227,1.647,7.729,7.729,0,0,1,.433.838,8.832,8.832,0,0,1,.485,1.376,6.911,6.911,0,0,1,.159.754c.03.183.056.367.073.555q.013.092.019.186a.8.8,0,0,0,.307-.135.624.624,0,0,0,.218-.277,1.4,1.4,0,0,0,.084-.318,3.29,3.29,0,0,0,.032-.417c0-.159.011-.333.011-.5a4.492,4.492,0,0,0-.081-.864c-.107-.522-.337-1.01-.477-1.524a2.088,2.088,0,0,1,.076-1.558c.1-.177.282-.348.477-.307a.514.514,0,0,1,.318.318,1.626,1.626,0,0,1,.134.667c0,.111,0,.2.1.258a1.681,1.681,0,0,0,.862,1.236,10.06,10.06,0,0,1,1.322.835,6.614,6.614,0,0,1,1.114,1.632,4.413,4.413,0,0,1,.5.955,3.375,3.375,0,0,1,.086.988q-.03,3.082-.067,6.16a14.177,14.177,0,0,0,.127,2.587,9.678,9.678,0,0,1,.223,1.432c.033,1.346-.907,2.477-1.559,3.659a3.14,3.14,0,0,0,.118,2.821c.418.886,1.055,1.643,1.543,2.49,1.729,3,1.446,6.682,1.344,10.149a76.421,76.421,0,0,0,1.236,16.074C350.8,290.778,351.221,292.907,350.3,294.673Z" transform="translate(-302.759 -204.098)" fill="#3f3d56"/>
    <path id="Path_539" data-name="Path 539" d="M357.05,262.761a4.734,4.734,0,0,0-.52.037v.477a4.9,4.9,0,0,1,.589.041,3.3,3.3,0,0,1,.326.051,2.387,2.387,0,0,1,.955.39,1.415,1.415,0,0,1,.546,1.714l-.2.083a1.058,1.058,0,0,1,.024.671c-.094.208-.4.329-.557.159-.172-.2-.017-.589-.248-.71a.318.318,0,0,0-.4.159.824.824,0,0,0-.043.477,35.338,35.338,0,0,1,.783,3.717,1.621,1.621,0,0,1-.27,1.182q-.823.84-1.651,1.682c-1.028,1.047-2.057,2.1-3.142,3.082a39.014,39.014,0,0,1-5.409,4.125c-.2.129-.406.253-.609.379-.078-.267-.336-.477-.49-.729a2.3,2.3,0,0,1-.2-1.421c.017-.205.072-.374.086-.579a7.7,7.7,0,0,1-1.13-2.585h.215a6.567,6.567,0,0,0,2.216-.562,16.035,16.035,0,0,0,1.879-.8,13.761,13.761,0,0,0,2.546-1.839,3.053,3.053,0,0,1,1.717-.865c.385-.4.98-.619,1.179-1.134a1.77,1.77,0,0,0,.027-.889,17.083,17.083,0,0,0-.447-2.068,14.558,14.558,0,0,1-.216-1.6,5.729,5.729,0,0,1,1.033-5.026c.113-.193.223-.388.331-.584l.274-.477a.488.488,0,0,1,.393.463,1.431,1.431,0,0,1-.146.636c-.03.073-.057.146-.088.22-.258.648-.519,1.3-.776,1.944a8.216,8.216,0,0,1,1.262-.568,3.51,3.51,0,0,1,.562-.129,2.264,2.264,0,0,1,.345-.021,1.8,1.8,0,0,1,1.432.619c.127.159.213.406.078.558a7.409,7.409,0,0,0-1.551-.262A4.914,4.914,0,0,0,357.05,262.761Z" transform="translate(-317.501 -225.129)" opacity="0.08"/>
    <path id="Path_540" data-name="Path 540" d="M452.434,365.958l-2.364,8.165,13.323-4.512,1.718-7.091Zm5.8,0c-.477,0-.859-.192-.859-.43s.385-.43.859-.43.861.193.861.43S458.711,365.958,458.235,365.958Z" transform="translate(-405.442 -311.918)" fill="#464353"/>
    <ellipse id="Ellipse_29" data-name="Ellipse 29" cx="5.694" cy="2.794" rx="5.694" ry="2.794" transform="translate(31.629 19.338)" fill="#2f2e41"/>
    <ellipse id="Ellipse_30" data-name="Ellipse 30" cx="0.753" cy="0.215" rx="0.753" ry="0.215" transform="translate(48.172 55.437)" fill="#6c63ff" opacity="0.9"/>
    <ellipse id="Ellipse_31" data-name="Ellipse 31" cx="0.753" cy="0.215" rx="0.753" ry="0.215" transform="translate(47.313 56.511)" fill="#fbbebe" opacity="0.9"/>
    <ellipse id="Ellipse_32" data-name="Ellipse 32" cx="0.753" cy="0.215" rx="0.753" ry="0.215" transform="translate(52.901 55.006)" fill="#fbbebe" opacity="0.9"/>
    <ellipse id="Ellipse_33" data-name="Ellipse 33" cx="0.753" cy="0.215" rx="0.753" ry="0.215" transform="translate(47.958 56.511)" fill="#fbbebe" opacity="0.9"/>
    <ellipse id="Ellipse_34" data-name="Ellipse 34" cx="0.753" cy="0.215" rx="0.753" ry="0.215" transform="translate(46.669 56.296)" fill="#fbbebe" opacity="0.9"/>
    <ellipse id="Ellipse_35" data-name="Ellipse 35" cx="0.753" cy="0.215" rx="0.753" ry="0.215" transform="translate(46.669 56.94)" fill="#fbbebe" opacity="0.9"/>
    <ellipse id="Ellipse_36" data-name="Ellipse 36" cx="0.753" cy="0.215" rx="0.753" ry="0.215" transform="translate(48.387 56.081)" fill="#fbbebe" opacity="0.9"/>
    <ellipse id="Ellipse_37" data-name="Ellipse 37" cx="0.753" cy="0.215" rx="0.753" ry="0.215" transform="translate(47.098 55.652)" fill="#fbbebe" opacity="0.9"/>
    <ellipse id="Ellipse_38" data-name="Ellipse 38" cx="0.753" cy="0.215" rx="0.753" ry="0.215" transform="translate(48.603 56.296)" fill="#6c63ff" opacity="0.9"/>
    <ellipse id="Ellipse_39" data-name="Ellipse 39" cx="0.753" cy="0.215" rx="0.753" ry="0.215" transform="translate(49.033 55.221)" fill="#6c63ff" opacity="0.9"/>
    <ellipse id="Ellipse_40" data-name="Ellipse 40" cx="0.753" cy="0.215" rx="0.753" ry="0.215" transform="translate(49.033 55.652)" fill="#6c63ff" opacity="0.9"/>
    <ellipse id="Ellipse_41" data-name="Ellipse 41" cx="0.753" cy="0.215" rx="0.753" ry="0.215" transform="translate(49.248 56.296)" fill="#6c63ff" opacity="0.9"/>
    <ellipse id="Ellipse_42" data-name="Ellipse 42" cx="0.753" cy="0.215" rx="0.753" ry="0.215" transform="translate(51.396 55.437)" fill="#6c63ff" opacity="0.9"/>
    <ellipse id="Ellipse_43" data-name="Ellipse 43" cx="0.753" cy="0.215" rx="0.753" ry="0.215" transform="translate(52.255 55.221)" fill="#6c63ff" opacity="0.9"/>
    <ellipse id="Ellipse_44" data-name="Ellipse 44" cx="0.753" cy="0.215" rx="0.753" ry="0.215" transform="translate(52.255 55.652)" fill="#6c63ff" opacity="0.9"/>
    <ellipse id="Ellipse_45" data-name="Ellipse 45" cx="0.753" cy="0.215" rx="0.753" ry="0.215" transform="translate(51.181 56.296)" fill="#6c63ff" opacity="0.9"/>
    <ellipse id="Ellipse_46" data-name="Ellipse 46" cx="0.753" cy="0.215" rx="0.753" ry="0.215" transform="translate(51.396 56.296)" fill="#6c63ff" opacity="0.9"/>
    <ellipse id="Ellipse_47" data-name="Ellipse 47" cx="0.753" cy="0.215" rx="0.753" ry="0.215" transform="translate(51.181 56.296)" fill="#6c63ff" opacity="0.9"/>
    <ellipse id="Ellipse_48" data-name="Ellipse 48" cx="0.753" cy="0.215" rx="0.753" ry="0.215" transform="translate(50.536 56.296)" fill="#6c63ff" opacity="0.9"/>
    <ellipse id="Ellipse_49" data-name="Ellipse 49" cx="0.753" cy="0.215" rx="0.753" ry="0.215" transform="translate(49.677 55.437)" fill="#6c63ff" opacity="0.9"/>
    <ellipse id="Ellipse_50" data-name="Ellipse 50" cx="0.753" cy="0.215" rx="0.753" ry="0.215" transform="translate(49.892 55.866)" fill="#6c63ff" opacity="0.9"/>
    <ellipse id="Ellipse_51" data-name="Ellipse 51" cx="0.753" cy="0.215" rx="0.753" ry="0.215" transform="translate(50.536 55.221)" fill="#3f3d56" opacity="0.9"/>
    <ellipse id="Ellipse_52" data-name="Ellipse 52" cx="0.753" cy="0.215" rx="0.753" ry="0.215" transform="translate(50.536 55.652)" fill="#6c63ff" opacity="0.9"/>
    <ellipse id="Ellipse_53" data-name="Ellipse 53" cx="0.753" cy="0.215" rx="0.753" ry="0.215" transform="translate(50.322 55.866)" fill="#f86d70"/>
    <ellipse id="Ellipse_54" data-name="Ellipse 54" cx="0.753" cy="0.215" rx="0.753" ry="0.215" transform="translate(51.181 55.866)" fill="#6c63ff" opacity="0.9"/>
    <ellipse id="Ellipse_55" data-name="Ellipse 55" cx="0.753" cy="0.215" rx="0.753" ry="0.215" transform="translate(51.61 56.726)" fill="#6c63ff" opacity="0.9"/>
    <ellipse id="Ellipse_56" data-name="Ellipse 56" cx="0.753" cy="0.215" rx="0.753" ry="0.215" transform="translate(52.04 55.652)" fill="#6c63ff" opacity="0.9"/>
    <ellipse id="Ellipse_57" data-name="Ellipse 57" cx="0.753" cy="0.215" rx="0.753" ry="0.215" transform="translate(52.04 56.081)" fill="#6c63ff" opacity="0.9"/>
    <ellipse id="Ellipse_58" data-name="Ellipse 58" cx="0.753" cy="0.215" rx="0.753" ry="0.215" transform="translate(52.255 56.726)" fill="#6c63ff" opacity="0.9"/>
    <ellipse id="Ellipse_59" data-name="Ellipse 59" cx="0.753" cy="0.215" rx="0.753" ry="0.215" transform="translate(54.404 55.866)" fill="#6c63ff" opacity="0.9"/>
    <ellipse id="Ellipse_60" data-name="Ellipse 60" cx="0.753" cy="0.215" rx="0.753" ry="0.215" transform="translate(55.263 55.652)" fill="#6c63ff" opacity="0.9"/>
    <ellipse id="Ellipse_61" data-name="Ellipse 61" cx="0.753" cy="0.215" rx="0.753" ry="0.215" transform="translate(55.263 56.081)" fill="#a1616a" opacity="0.9"/>
    <ellipse id="Ellipse_62" data-name="Ellipse 62" cx="0.753" cy="0.215" rx="0.753" ry="0.215" transform="translate(54.189 56.726)" fill="#6c63ff" opacity="0.9"/>
    <ellipse id="Ellipse_63" data-name="Ellipse 63" cx="0.753" cy="0.215" rx="0.753" ry="0.215" transform="translate(54.404 56.726)" fill="#6c63ff" opacity="0.9"/>
    <ellipse id="Ellipse_64" data-name="Ellipse 64" cx="0.753" cy="0.215" rx="0.753" ry="0.215" transform="translate(54.189 56.726)" fill="#6c63ff" opacity="0.9"/>
    <ellipse id="Ellipse_65" data-name="Ellipse 65" cx="0.753" cy="0.215" rx="0.753" ry="0.215" transform="translate(53.545 56.726)" fill="#f86d70"/>
    <ellipse id="Ellipse_66" data-name="Ellipse 66" cx="0.753" cy="0.215" rx="0.753" ry="0.215" transform="translate(52.686 55.866)" fill="#6c63ff" opacity="0.9"/>
    <ellipse id="Ellipse_67" data-name="Ellipse 67" cx="0.753" cy="0.215" rx="0.753" ry="0.215" transform="translate(52.901 56.296)" fill="#6c63ff" opacity="0.9"/>
    <ellipse id="Ellipse_68" data-name="Ellipse 68" cx="0.753" cy="0.215" rx="0.753" ry="0.215" transform="translate(53.545 55.652)" fill="#a1616a" opacity="0.9"/>
    <ellipse id="Ellipse_69" data-name="Ellipse 69" cx="0.753" cy="0.215" rx="0.753" ry="0.215" transform="translate(53.545 56.081)" fill="#f86d70"/>
    <ellipse id="Ellipse_70" data-name="Ellipse 70" cx="0.753" cy="0.215" rx="0.753" ry="0.215" transform="translate(53.33 56.296)" fill="#f86d70"/>
    <ellipse id="Ellipse_71" data-name="Ellipse 71" cx="0.753" cy="0.215" rx="0.753" ry="0.215" transform="translate(45.958 57.964) rotate(-10.63)" fill="#6c63ff" opacity="0.9"/>
    <ellipse id="Ellipse_72" data-name="Ellipse 72" cx="0.753" cy="0.215" rx="0.753" ry="0.215" transform="translate(46.538 58.729) rotate(-10.63)" fill="#6c63ff" opacity="0.9"/>
    <ellipse id="Ellipse_73" data-name="Ellipse 73" cx="0.753" cy="0.215" rx="0.753" ry="0.215" transform="translate(46.762 57.595) rotate(-10.63)" fill="#6c63ff" opacity="0.9"/>
    <ellipse id="Ellipse_74" data-name="Ellipse 74" cx="0.75" cy="0.214" rx="0.75" ry="0.214" transform="matrix(0.984, -0.181, 0.181, 0.984, 46.342, 58.161)" fill="#6c63ff" opacity="0.9"/>
    <ellipse id="Ellipse_75" data-name="Ellipse 75" cx="0.753" cy="0.215" rx="0.753" ry="0.215" transform="translate(47.172 58.611) rotate(-10.63)" fill="#6c63ff" opacity="0.9"/>
    <ellipse id="Ellipse_76" data-name="Ellipse 76" cx="0.753" cy="0.215" rx="0.753" ry="0.215" transform="translate(49.125 57.369) rotate(-10.63)" fill="#6c63ff" opacity="0.9"/>
    <ellipse id="Ellipse_77" data-name="Ellipse 77" cx="0.753" cy="0.215" rx="0.753" ry="0.215" transform="translate(49.931 57.001) rotate(-10.63)" fill="#6c63ff" opacity="0.9"/>
    <ellipse id="Ellipse_78" data-name="Ellipse 78" cx="0.753" cy="0.215" rx="0.753" ry="0.215" transform="translate(50.009 57.423) rotate(-10.63)" fill="#6c63ff" opacity="0.9"/>
    <ellipse id="Ellipse_79" data-name="Ellipse 79" cx="0.753" cy="0.215" rx="0.753" ry="0.215" transform="translate(49.073 58.254) rotate(-10.63)" fill="#6c63ff" opacity="0.9"/>
    <ellipse id="Ellipse_80" data-name="Ellipse 80" cx="0.753" cy="0.215" rx="0.753" ry="0.215" transform="translate(49.283 58.215) rotate(-10.63)" fill="#6c63ff" opacity="0.9"/>
    <ellipse id="Ellipse_81" data-name="Ellipse 81" cx="0.753" cy="0.215" rx="0.753" ry="0.215" transform="translate(49.073 58.254) rotate(-10.63)" fill="#6c63ff" opacity="0.9"/>
    <ellipse id="Ellipse_82" data-name="Ellipse 82" cx="0.753" cy="0.215" rx="0.753" ry="0.215" transform="translate(48.439 58.372) rotate(-10.63)" fill="#6c63ff" opacity="0.9"/>
    <ellipse id="Ellipse_83" data-name="Ellipse 83" cx="0.753" cy="0.215" rx="0.753" ry="0.215" transform="translate(47.436 57.688) rotate(-10.63)" fill="#3f3d56" opacity="0.9"/>
    <ellipse id="Ellipse_84" data-name="Ellipse 84" cx="0.753" cy="0.215" rx="0.753" ry="0.215" transform="translate(47.727 58.068) rotate(-10.63)" fill="#6c63ff" opacity="0.9"/>
    <ellipse id="Ellipse_85" data-name="Ellipse 85" cx="0.753" cy="0.215" rx="0.753" ry="0.215" transform="translate(48.241 57.316) rotate(-10.63)" fill="#3f3d56" opacity="0.9"/>
    <ellipse id="Ellipse_86" data-name="Ellipse 86" cx="0.753" cy="0.215" rx="0.753" ry="0.215" transform="translate(48.32 57.74) rotate(-10.63)" fill="#6c63ff" opacity="0.9"/>
    <ellipse id="Ellipse_87" data-name="Ellipse 87" cx="0.753" cy="0.215" rx="0.753" ry="0.215" transform="translate(48.15 57.992) rotate(-10.63)" fill="#3f3d56" opacity="0.9"/>
    <ellipse id="Ellipse_88" data-name="Ellipse 88" cx="0.753" cy="0.215" rx="0.753" ry="0.215" transform="translate(48.993 57.832) rotate(-10.63)" fill="#6c63ff" opacity="0.9"/>
    <ellipse id="Ellipse_89" data-name="Ellipse 89" cx="0.753" cy="0.215" rx="0.753" ry="0.215" transform="translate(49.575 58.597) rotate(-10.63)" fill="#6c63ff" opacity="0.9"/>
    <ellipse id="Ellipse_90" data-name="Ellipse 90" cx="0.753" cy="0.215" rx="0.753" ry="0.215" transform="translate(49.799 57.461) rotate(-10.63)" fill="#6c63ff" opacity="0.9"/>
    <ellipse id="Ellipse_91" data-name="Ellipse 91" cx="0.753" cy="0.215" rx="0.753" ry="0.215" transform="translate(49.877 57.884) rotate(-10.63)" fill="#6c63ff" opacity="0.9"/>
    <ellipse id="Ellipse_92" data-name="Ellipse 92" cx="0.753" cy="0.215" rx="0.753" ry="0.215" transform="translate(50.207 58.479) rotate(-10.63)" fill="#6c63ff" opacity="0.9"/>
    <ellipse id="Ellipse_93" data-name="Ellipse 93" cx="0.753" cy="0.215" rx="0.753" ry="0.215" transform="translate(52.161 57.237) rotate(-10.63)" fill="#6c63ff" opacity="0.9"/>
    <ellipse id="Ellipse_94" data-name="Ellipse 94" cx="0.753" cy="0.215" rx="0.753" ry="0.215" transform="translate(52.967 56.868) rotate(-10.63)" fill="#6c63ff" opacity="0.9"/>
    <ellipse id="Ellipse_95" data-name="Ellipse 95" cx="0.753" cy="0.215" rx="0.753" ry="0.215" transform="translate(53.046 57.29) rotate(-10.63)" fill="#a1616a" opacity="0.9"/>
    <ellipse id="Ellipse_96" data-name="Ellipse 96" cx="0.753" cy="0.215" rx="0.753" ry="0.215" transform="translate(52.109 58.121) rotate(-10.63)" fill="#6c63ff" opacity="0.9"/>
    <ellipse id="Ellipse_97" data-name="Ellipse 97" cx="0.753" cy="0.215" rx="0.753" ry="0.215" transform="translate(52.32 58.081) rotate(-10.63)" fill="#6c63ff" opacity="0.9"/>
    <ellipse id="Ellipse_98" data-name="Ellipse 98" cx="0.753" cy="0.215" rx="0.753" ry="0.215" transform="translate(52.109 58.121) rotate(-10.63)" fill="#6c63ff" opacity="0.9"/>
    <ellipse id="Ellipse_99" data-name="Ellipse 99" cx="0.753" cy="0.215" rx="0.753" ry="0.215" transform="translate(51.475 58.241) rotate(-10.63)" fill="#6c63ff" opacity="0.9"/>
    <ellipse id="Ellipse_100" data-name="Ellipse 100" cx="0.75" cy="0.214" rx="0.75" ry="0.214" transform="matrix(0.984, -0.181, 0.181, 0.984, 49.963, 57.716)" fill="#a1616a" opacity="0.9"/>
    <ellipse id="Ellipse_101" data-name="Ellipse 101" cx="0.753" cy="0.215" rx="0.753" ry="0.215" transform="translate(50.763 57.937) rotate(-10.63)" fill="#6c63ff" opacity="0.9"/>
    <path id="Path_541" data-name="Path 541" d="M384.229,226.25l-.159.159s7.221,11.3,8.82,12.5l.492-.4S391.536,235.12,384.229,226.25Z" transform="translate(-349.943 -197.328)" fill="#2f2e41"/>
    <path id="Path_542" data-name="Path 542" d="M439.512,302.905s-.38-.687-.527-.551-.617.455-.555.555.477.651.477.651a.806.806,0,0,0,.711-.49Z" transform="translate(-395.65 -261.31)" fill="#464353"/>
    <path id="Path_543" data-name="Path 543" d="M444.357,310.3l-.081-.019s.064-.368-.807-.746a4.913,4.913,0,0,0-.487-.18c-1.336-.422-1.858-1.348-1.591-2.009a.55.55,0,0,1,.025-.065l.557-.438.065.056a5.608,5.608,0,0,0,1.1.7,2.228,2.228,0,0,1,1.123,1.142A2.689,2.689,0,0,1,444.357,310.3Z" transform="translate(-398.088 -265.097)" fill="#fdd8d8" opacity="0.9"/>
    <path id="Path_544" data-name="Path 544" d="M444.753,307.58s.189.414,1.185.9a2.773,2.773,0,0,1,1.208,1.909s-.519-1.316-1.316-1.558a2.1,2.1,0,0,1-1.15-1.179Z" transform="translate(-400.91 -265.719)" fill="none" stroke="#2f2e41" stroke-miterlimit="10" stroke-width="0.25" opacity="0.2"/>
    <path id="Path_545" data-name="Path 545" d="M443.629,308.61a1.306,1.306,0,0,0,.608,1.053c.652.495,1.892,1.293,1.919,1.669a4.15,4.15,0,0,0-1.114-.829c-.517-.207-1.222-.625-1.3-1.013,0,0-.286-.608-.2-.845Z" transform="translate(-399.936 -266.585)" fill="none" stroke="#2f2e41" stroke-miterlimit="10" stroke-width="0.25" opacity="0.2"/>
    <path id="Path_546" data-name="Path 546" d="M442.643,309.39s-.267.536.385,1.285a2.792,2.792,0,0,0,1.106.627,2.689,2.689,0,0,1,1.177.815" transform="translate(-399.152 -267.241)" fill="none" stroke="#2f2e41" stroke-miterlimit="10" stroke-width="0.25" opacity="0.2"/>
    <ellipse id="Ellipse_102" data-name="Ellipse 102" cx="0.753" cy="0.215" rx="0.753" ry="0.215" transform="translate(51.277 57.185) rotate(-10.63)" fill="#3f3d56" opacity="0.9"/>
    <ellipse id="Ellipse_103" data-name="Ellipse 103" cx="0.753" cy="0.215" rx="0.753" ry="0.215" transform="translate(51.357 57.605) rotate(-10.63)" fill="#6c63ff" opacity="0.9"/>
    <ellipse id="Ellipse_104" data-name="Ellipse 104" cx="0.753" cy="0.215" rx="0.753" ry="0.215" transform="translate(51.185 57.857) rotate(-10.63)" fill="#6c63ff" opacity="0.9"/>
    <path id="Path_547" data-name="Path 547" d="M314.769,298.12a3.158,3.158,0,0,1-.137.893c-.062.151-.159.288-.229.436a5.43,5.43,0,0,0-.216,2.087,8.149,8.149,0,0,1-.194,1.185c-.348,1.623-.7,3.247-1.114,4.857a2.4,2.4,0,0,0-.03,1.631c.064.129.15.245.2.379.146.366.011.8.138,1.166a.9.9,0,0,0,.924.587,8.407,8.407,0,0,1,1.674-4.2,5.45,5.45,0,0,1,1.489-1.562,4.032,4.032,0,0,0,.878-.6,2.05,2.05,0,0,0,.439-1.048c.42-2.352-.587-4.716-1.75-6.8-.242-.434-.754-1.4-1.265-1.036A3.255,3.255,0,0,0,314.769,298.12Z" transform="translate(-289.939 -255.993)" fill="#3f3d56"/>
    <path id="Path_548" data-name="Path 548" d="M374.064,183.243c-2.848,0-5.206-1.025-5.627-2.363a1.409,1.409,0,0,0-.067.43c0,1.542,2.546,2.792,5.694,2.792s5.693-1.251,5.693-2.792a1.406,1.406,0,0,0-.067-.43C379.268,182.218,376.91,183.243,374.064,183.243Z" transform="translate(-336.741 -159.177)" opacity="0.1"/>
    <g id="Group_100" data-name="Group 100" transform="translate(22.781 30.211)" opacity="0.1">
      <path id="Path_549" data-name="Path 549" d="M314.384,257.74c-.054-.134-.14-.25-.2-.379a2.389,2.389,0,0,1,.032-1.631c.409-1.61.757-3.234,1.114-4.857a7.927,7.927,0,0,0,.192-1.185,5.454,5.454,0,0,1,.216-2.087c.073-.148.167-.285.229-.436a3.1,3.1,0,0,0,.137-.893,4.513,4.513,0,0,1,.418-1.518c-.035-.465-.041-.932-.048-1.391a6.611,6.611,0,0,1,.083-1.091,1.313,1.313,0,0,1,.659-1.074,3.14,3.14,0,0,0,.452-1.647,3.506,3.506,0,0,1,.14-1.147,2.266,2.266,0,0,1,1.873-1.173,8.254,8.254,0,0,0,2.273-.409,4.825,4.825,0,0,0,.754-.46c.686-.477,1.373-.955,2.022-1.481l-.541-.477c-.029-.024-.06-.053-.1-.048a.159.159,0,0,0-.072.041,26.836,26.836,0,0,1-2.611,1.97,4.828,4.828,0,0,1-.754.46,8.451,8.451,0,0,1-2.274.409,2.263,2.263,0,0,0-1.874,1.173,3.463,3.463,0,0,0-.14,1.147,3.063,3.063,0,0,1-.45,1.647,1.318,1.318,0,0,0-.66,1.074,6.786,6.786,0,0,0-.075,1.091c0,.458.013.926.048,1.391a4.477,4.477,0,0,0-.418,1.518,3.158,3.158,0,0,1-.137.893c-.062.151-.159.288-.229.436a5.429,5.429,0,0,0-.216,2.087,8.152,8.152,0,0,1-.194,1.185c-.348,1.623-.7,3.247-1.114,4.857a2.4,2.4,0,0,0-.03,1.631c.064.129.15.245.2.379.146.366.011.8.138,1.166a.9.9,0,0,0,.924.587,6.179,6.179,0,0,1,.286-1.5A.98.98,0,0,0,314.384,257.74Z" transform="translate(-312.754 -234.357)"/>
      <path id="Path_550" data-name="Path 550" d="M418.947,251.113c.081.159.159.318.229.477a8.674,8.674,0,0,1,.485,1.376,6.911,6.911,0,0,1,.159.754c.03.183.056.368.073.555q.011.092.019.186a.8.8,0,0,0,.307-.135.625.625,0,0,0,.218-.282,1.492,1.492,0,0,0,.083-.318,3.3,3.3,0,0,0,.033-.417c0-.159.01-.332.01-.5a4.485,4.485,0,0,0-.081-.864c-.1-.522-.337-1.01-.477-1.524-.011-.037-.019-.076-.029-.115a1.187,1.187,0,0,1-.146-.5c-.1-.056-.105-.146-.1-.258a1.627,1.627,0,0,0-.134-.667.514.514,0,0,0-.318-.318c-.2-.041-.382.13-.477.307a2.081,2.081,0,0,0-.076,1.558C418.783,250.658,418.866,250.885,418.947,251.113Z" transform="translate(-401.768 -246.301)"/>
      <path id="Path_551" data-name="Path 551" d="M348.891,391.387c-.272-1.8-.675-3.581-.881-5.39-.383-3.359-.1-6.76-.377-10.128-.113-1.359-.318-2.7-.436-4.063-.282-3.212-.593-6.631.74-9.567.193-.423.383-.845.576-1.265a.988.988,0,0,0,.11-.355.505.505,0,0,0-.025-.185c-.078-.267-.336-.477-.49-.729a2.317,2.317,0,0,1-.2-1.421c.018-.205.072-.374.086-.579a7.7,7.7,0,0,1-1.13-2.585c-.064-.239-.122-.477-.178-.721-.159.1-.318.18-.477.277a3.7,3.7,0,0,0-.622.5,7.576,7.576,0,0,0,1.114,2.528c-.014.205-.068.374-.086.579a2.305,2.305,0,0,0,.2,1.421,3.347,3.347,0,0,1,.49.729.539.539,0,0,1,.025.185.989.989,0,0,1-.11.355l-.576,1.265c-1.335,2.935-1.023,6.354-.741,9.567.121,1.357.318,2.7.436,4.063.28,3.368,0,6.77.379,10.128.207,1.809.608,3.591.881,5.39a38.912,38.912,0,0,1,.428,4.959,8.328,8.328,0,0,1,1.273-.291A38.568,38.568,0,0,0,348.891,391.387Z" transform="translate(-340.366 -335.301)"/>
      <path id="Path_552" data-name="Path 552" d="M389.161,616.757a20.455,20.455,0,0,0-6.841-1.163,25.359,25.359,0,0,1,5.553,1.163,6.993,6.993,0,0,0,2.674.428,1.563,1.563,0,0,0,.224-.033,11.7,11.7,0,0,1-1.61-.395Z" transform="translate(-371.252 -554.924)"/>
    </g>
    <path id="Path_553" data-name="Path 553" d="M317.82,275.637l.7,1.693a1.955,1.955,0,0,0,.508.811,1.316,1.316,0,0,0,1.114.2,3.91,3.91,0,0,0,1.061-.477c1.061-.6,2.122-1.208,3.155-1.861a39.339,39.339,0,0,0,5.409-4.125c1.085-.986,2.114-2.035,3.142-3.082l1.645-1.682a1.63,1.63,0,0,0,.27-1.182c-.022-1.273-.636-2.456-.784-3.717a.837.837,0,0,1,.043-.477.318.318,0,0,1,.4-.159c.231.119.076.514.248.71.159.17.463.052.555-.159a1.036,1.036,0,0,0-.022-.671l.2-.083a1.417,1.417,0,0,0-.546-1.715,3.3,3.3,0,0,0-1.874-.477v-.477a7.346,7.346,0,0,1,2.779.235c.137-.159.049-.4-.078-.558a1.925,1.925,0,0,0-1.776-.6,5.721,5.721,0,0,0-1.823.7l.864-2.165a1.421,1.421,0,0,0,.145-.636.487.487,0,0,0-.391-.463l-.6,1.068a7.646,7.646,0,0,0-1.217,3.195,7.554,7.554,0,0,0,.185,1.83c.1.546.065,1.069.216,1.6a16.7,16.7,0,0,1,.447,2.068,1.75,1.75,0,0,1-.029.889c-.2.515-.8.74-1.177,1.136a3.078,3.078,0,0,0-1.717.865,13.759,13.759,0,0,1-2.546,1.839,16.6,16.6,0,0,1-1.879.8,6.624,6.624,0,0,1-2.216.562,5.648,5.648,0,0,0-1.7.043,3.184,3.184,0,0,0-1.639,1.884l-.606,1.273A9.37,9.37,0,0,0,317.82,275.637Z" transform="translate(-294.233 -221.689)" fill="#fbbebe"/>
    <path id="Path_554" data-name="Path 554" d="M319.344,355.632a5.455,5.455,0,0,1,1.532-1.591c.118-.073.239-.14.358-.208a4.172,4.172,0,0,0-1.443.051,3.269,3.269,0,0,0-1.686,1.93l-.627,1.3A9.583,9.583,0,0,0,317,358.5l.6,1.432h.014A8.64,8.64,0,0,1,319.344,355.632Z" transform="translate(-293.544 -304.581)" fill="#3f3d56"/>
    <ellipse id="Ellipse_105" data-name="Ellipse 105" cx="0.43" cy="0.515" rx="0.43" ry="0.515" transform="translate(52.256 53.073)" fill="#fbbebe"/>
    <ellipse id="Ellipse_106" data-name="Ellipse 106" cx="0.43" cy="0.515" rx="0.43" ry="0.515" transform="translate(52.256 53.33)" fill="#fbbebe"/>
    <path id="Path_555" data-name="Path 555" d="M454.668,320.6l-.11-.022s.086-.45-1.088-.912a.983.983,0,0,1,.032-.229.828.828,0,0,1,.056-.178.811.811,0,0,1,.084-.159.878.878,0,0,1,.266-.29.759.759,0,0,1,.239-.111.682.682,0,0,1,.191-.025.9.9,0,0,1,.2.025A3.015,3.015,0,0,1,454.668,320.6Z" transform="translate(-408.301 -275.044)" fill="#6c63ff" opacity="0.9"/>
    <path id="Path_556" data-name="Path 556" d="M276.617,705s.99,1.293-.457,3.247-2.638,3.6-2.156,4.821c0,0,2.181-3.627,3.957-3.678S278.566,707.183,276.617,705Z" transform="translate(-257.297 -599.91)" fill="#6c63ff"/>
    <path id="Path_557" data-name="Path 557" d="M276.915,705a1.589,1.589,0,0,1,.2.406c1.733,2.036,2.655,3.936.991,3.977-1.551.043-3.413,2.818-3.858,3.518a1.465,1.465,0,0,0,.052.159s2.181-3.627,3.957-3.678S278.864,707.183,276.915,705Z" transform="translate(-257.595 -599.91)" opacity="0.1"/>
    <path id="Path_558" data-name="Path 558" d="M301.328,713.835c0,.455-.051.824-.115.824s-.113-.369-.113-.824.064-.242.126-.242S301.328,713.378,301.328,713.835Z" transform="translate(-280.173 -607.094)" fill="#ffd037"/>
    <path id="Path_559" data-name="Path 559" d="M302.378,717.142c-.4.218-.749.35-.778.294s.269-.277.668-.495.242-.059.272,0S302.776,716.924,302.378,717.142Z" transform="translate(-280.592 -609.858)" fill="#ffd037"/>
    <path id="Path_560" data-name="Path 560" d="M246.4,705s-.99,1.293.457,3.247,2.638,3.6,2.156,4.821c0,0-2.181-3.627-3.957-3.678S244.442,707.183,246.4,705Z" transform="translate(-232.306 -599.91)" fill="#6c63ff"/>
    <path id="Path_561" data-name="Path 561" d="M246.4,705a1.592,1.592,0,0,0-.2.406c-1.733,2.036-2.655,3.936-.991,3.978,1.551.043,3.413,2.818,3.858,3.518a1.45,1.45,0,0,1-.053.159s-2.181-3.627-3.957-3.678S244.442,707.183,246.4,705Z" transform="translate(-232.306 -599.91)" opacity="0.1"/>
    <path id="Path_562" data-name="Path 562" d="M246.57,713.835c0,.455.051.824.115.824s.113-.369.113-.824-.064-.242-.126-.242S246.57,713.378,246.57,713.835Z" transform="translate(-234.319 -607.094)" fill="#ffd037"/>
    <path id="Path_563" data-name="Path 563" d="M241.317,717.142c.4.218.748.35.778.294s-.269-.277-.668-.495-.242-.059-.272,0S240.918,716.924,241.317,717.142Z" transform="translate(-229.698 -609.858)" fill="#ffd037"/>
    <path id="Path_564" data-name="Path 564" d="M248.55,746.748s2.765-.084,3.6-.679,4.256-1.3,4.463-.35,4.156,4.735,1.033,4.76-7.255-.487-8.087-.993S248.55,746.748,248.55,746.748Z" transform="translate(-235.984 -633.759)" fill="#a8a8a8"/>
    <path id="Path_565" data-name="Path 565" d="M257.7,758.013c-3.122.025-7.255-.487-8.087-.993-.636-.387-.886-1.772-.97-2.41h-.092s.175,2.227,1.007,2.738,4.965,1.018,8.087.993c.9,0,1.214-.328,1.2-.8C258.715,757.832,258.371,758.013,257.7,758.013Z" transform="translate(-235.984 -641.627)" opacity="0.2"/>
    <path id="Path_566" data-name="Path 566" d="M731.861,632.912s-1.768-6,.331-10.421a9.481,9.481,0,0,0,.767-5.949,15.973,15.973,0,0,0-.842-2.792" transform="translate(-641.816 -523.178)" fill="none" stroke="#535461" stroke-miterlimit="10" stroke-width="2"/>
    <path id="Path_567" data-name="Path 567" d="M731.275,589.4a10.5,10.5,0,0,1-1.332,2.864,10.585,10.585,0,0,1-1.333-2.864,1.333,1.333,0,0,1,2.665,0Z" transform="translate(-639.667 -501.616)" fill="#6c63ff"/>
    <path id="Path_568" data-name="Path 568" d="M745.048,610.951a10.546,10.546,0,0,1-2.678,1.683,10.562,10.562,0,0,1,.441-3.131,1.332,1.332,0,1,1,2.237,1.448Z" transform="translate(-651.238 -519.095)" fill="#6c63ff"/>
    <path id="Path_569" data-name="Path 569" d="M741.881,652.257a10.56,10.56,0,0,1-3.161.1,10.62,10.62,0,0,1,1.962-2.482,1.336,1.336,0,1,1,1.2,2.386Z" transform="translate(-648.169 -553.437)" fill="#6c63ff"/>
    <path id="Path_570" data-name="Path 570" d="M734.3,685.9a10.572,10.572,0,0,1-3.1.636,10.546,10.546,0,0,1,1.515-2.776,1.334,1.334,0,1,1,1.591,2.141Z" transform="translate(-641.845 -581.827)" fill="#6c63ff"/>
    <path id="Path_571" data-name="Path 571" d="M722.658,621.208a10.573,10.573,0,0,0,2.986,1.044,10.588,10.588,0,0,0-1.13-2.954,1.332,1.332,0,0,0-1.857,1.909Z" transform="translate(-634.323 -527.525)" fill="#6c63ff"/>
    <path id="Path_572" data-name="Path 572" d="M712.309,658.756a10.565,10.565,0,0,0,3.161.1,10.575,10.575,0,0,0-1.962-2.482,1.333,1.333,0,0,0-1.2,2.38Z" transform="translate(-625.372 -558.916)" fill="#6c63ff"/>
    <path id="Path_573" data-name="Path 573" d="M709.778,698.131a10.55,10.55,0,0,0,3.1.636,10.55,10.55,0,0,0-1.515-2.778,1.335,1.335,0,1,0-1.591,2.143Z" transform="translate(-623.372 -592.112)" fill="#6c63ff"/>
    <path id="Path_574" data-name="Path 574" d="M731.275,589.4a10.5,10.5,0,0,1-1.332,2.864,10.585,10.585,0,0,1-1.333-2.864,1.333,1.333,0,0,1,2.665,0Z" transform="translate(-639.667 -501.616)" fill="#6c63ff"/>
    <path id="Path_575" data-name="Path 575" d="M745.048,610.951a10.546,10.546,0,0,1-2.678,1.683,10.562,10.562,0,0,1,.441-3.131,1.332,1.332,0,1,1,2.237,1.448Z" transform="translate(-651.238 -519.095)" fill="#6c63ff"/>
    <path id="Path_576" data-name="Path 576" d="M741.881,652.257a10.56,10.56,0,0,1-3.161.1,10.62,10.62,0,0,1,1.962-2.482,1.336,1.336,0,1,1,1.2,2.386Z" transform="translate(-648.169 -553.437)" fill="#6c63ff"/>
    <path id="Path_577" data-name="Path 577" d="M734.3,685.9a10.572,10.572,0,0,1-3.1.636,10.546,10.546,0,0,1,1.515-2.776,1.334,1.334,0,1,1,1.591,2.141Z" transform="translate(-641.845 -581.827)" fill="#6c63ff"/>
    <path id="Path_578" data-name="Path 578" d="M722.658,621.208a10.573,10.573,0,0,0,2.986,1.044,10.588,10.588,0,0,0-1.13-2.954,1.332,1.332,0,0,0-1.857,1.909Z" transform="translate(-634.323 -527.525)" fill="#6c63ff"/>
    <path id="Path_579" data-name="Path 579" d="M712.309,658.756a10.565,10.565,0,0,0,3.161.1,10.575,10.575,0,0,0-1.962-2.482,1.333,1.333,0,0,0-1.2,2.38Z" transform="translate(-625.372 -558.916)" fill="#6c63ff"/>
    <path id="Path_580" data-name="Path 580" d="M709.778,698.131a10.55,10.55,0,0,0,3.1.636,10.55,10.55,0,0,0-1.515-2.778,1.335,1.335,0,1,0-1.591,2.143Z" transform="translate(-623.372 -592.112)" fill="#6c63ff"/>
    <path id="Path_581" data-name="Path 581" d="M709.27,720.714a8.081,8.081,0,0,0,2.727-1c.573-.57,3.158-1.567,3.446-.854s3.874,3.134,1.432,3.562-5.742.57-6.459.285S709.27,720.714,709.27,720.714Z" transform="translate(-623.404 -611.359)" fill="#a8a8a8"/>
    <path id="Path_582" data-name="Path 582" d="M716.878,733.154c-2.44.428-5.742.571-6.459.286-.546-.218-.926-1.26-1.077-1.75l-.072.014s.431,1.71,1.149,2,4.019.143,6.459-.285c.7-.124.905-.414.829-.78C717.647,732.878,717.4,733.063,716.878,733.154Z" transform="translate(-623.404 -622.354)" opacity="0.2"/>
    <g id="Group_101" data-name="Group 101" transform="translate(59.575 29.666)" opacity="0.75">
      <path id="Path_583" data-name="Path 583" d="M565.671,262.425a1.733,1.733,0,0,1-.094-.242,2.242,2.242,0,0,1,.014-.592,2.094,2.094,0,0,0-.046-.409c-.094-.514-.186-1.029-.28-1.545-.043-.237-.086-.477-.107-.714s-.018-.493-.022-.74c-.011-.8-.159-1.591-.183-2.394-.017-.415-.049-.83-.083-1.246-.059-.713-.121-1.432-.247-2.129a10.408,10.408,0,0,1-.385-1.647c0-.294,0-.589-.008-.883a1.693,1.693,0,0,0-.118-.741,1.629,1.629,0,0,0-.436-.5q-.751-.649-1.556-1.233a.955.955,0,0,0,.487-.037.318.318,0,0,0,.186-.4.4.4,0,0,0-.247-.178,2.256,2.256,0,0,0-.592-.1,2.209,2.209,0,0,0,.043-.231,20.04,20.04,0,0,0-.305-2.453,8.632,8.632,0,0,1,.682-2.449,5.916,5.916,0,0,0-.175-3.934,10.89,10.89,0,0,1-.8-1.986c-.1-.55-.038-1.114-.132-1.672a3.855,3.855,0,0,0-2.864-2.864,7.188,7.188,0,0,0-3.209,0c-.918.17-1.75-.205-2.673-.084a1.451,1.451,0,0,0-.966.442,5.234,5.234,0,0,0-.318.539c-.409.636-1.22.854-1.895,1.2a3.669,3.669,0,0,0-1.994,2.665,16.881,16.881,0,0,0,.339,3.182,11.042,11.042,0,0,1-.832,3.977,3.108,3.108,0,0,0-.208,1.114,2.989,2.989,0,0,0,.172.76c.132.4.282.8.452,1.185a3.948,3.948,0,0,1-.99.259,2.535,2.535,0,0,0-1.018.2,1.19,1.19,0,0,0-.353.337,1.854,1.854,0,0,0-.318,1.4.434.434,0,0,0-.2.372c-.008.148.025.294.032.442a2.8,2.8,0,0,1-.159.818,6.934,6.934,0,0,0-.181,2.778c.2,1.486.243,2.961.309,4.455a24.218,24.218,0,0,0,.124,2.945,1.4,1.4,0,0,0,.41.872,1.793,1.793,0,0,1,.185.143,1.193,1.193,0,0,1,.2.582,1.254,1.254,0,0,0,1.292.921h0c-.107.318-.212.613-.318.918h16.349c-.01-.038-.019-.076-.027-.115a1.719,1.719,0,0,1-.011-.487c.137.159.113.393.149.6h3.071A2.649,2.649,0,0,0,565.671,262.425Z" transform="translate(-544.023 -230.93)" fill="url(#linear-gradient-2)"/>
      <path id="Path_584" data-name="Path 584" d="M567.181,232.264a1.427,1.427,0,0,0-.955.441,5.017,5.017,0,0,0-.318.536c-.406.636-1.212.848-1.881,1.195a3.639,3.639,0,0,0-1.979,2.647,16.552,16.552,0,0,0,.336,3.157,11.041,11.041,0,0,1-.826,3.955,3.1,3.1,0,0,0-.208,1.114,2.958,2.958,0,0,0,.172.756,10.019,10.019,0,0,0,1.669,3.227,5.624,5.624,0,0,0,3,1.976,8.571,8.571,0,0,0,1.651.175q1.273.048,2.546.048a7.292,7.292,0,0,0,1.394-.094,7.843,7.843,0,0,0,2.659-1.273c.955-.62,2-1.383,2.149-2.514a19.809,19.809,0,0,0-.3-2.437,8.784,8.784,0,0,1,.678-2.431,5.887,5.887,0,0,0-.175-3.917,11.167,11.167,0,0,1-.8-1.974c-.1-.546-.04-1.114-.132-1.661a3.812,3.812,0,0,0-2.841-2.838,7.114,7.114,0,0,0-3.182,0C568.931,232.517,568.093,232.141,567.181,232.264Z" transform="translate(-558.593 -231.971)" fill="#3f3d56"/>
      <path id="Path_585" data-name="Path 585" d="M583.086,293.3a3.436,3.436,0,0,1-.428,2.589,4.167,4.167,0,0,1-.921.963,5.9,5.9,0,0,1-1.817,1,3.658,3.658,0,0,0,1.4.679,6.644,6.644,0,0,0,1.192.145,33.887,33.887,0,0,0,6.025-.218,3.984,3.984,0,0,0,1.909-.6.27.27,0,0,0,.107-.126c.038-.132-.119-.232-.25-.277a7.388,7.388,0,0,1-1.895-.738,3.6,3.6,0,0,1-1.286-2.738c-.076-1.039.073-2.087-.029-3.126q-2.068-.03-4.136.121c-.159.011-.846-.027-.929.105s.293.516.388.66A4.588,4.588,0,0,1,583.086,293.3Z" transform="translate(-574.209 -281.315)" fill="#fbbebe"/>
      <circle id="Ellipse_107" data-name="Ellipse 107" cx="4.705" cy="4.705" r="4.705" transform="translate(6.08 2.606)" opacity="0.1"/>
      <circle id="Ellipse_108" data-name="Ellipse 108" cx="4.705" cy="4.705" r="4.705" transform="translate(6.08 2.439)" fill="#fbbebe"/>
      <path id="Path_586" data-name="Path 586" d="M580.155,330.722a14.353,14.353,0,0,0-.465,4.821c.108,1.069.477,2.227.5,3.322H568.528v-3.876a21.506,21.506,0,0,0-.081-2.286,16.715,16.715,0,0,0-.932-3.957l-.1-.28h0a.031.031,0,0,0-.013-.03c-.033-.1-.07-.189-.1-.285-.568-1.508-1.217-3.074-.905-4.642a4.021,4.021,0,0,1,1.938-2.69,2.184,2.184,0,0,1,1-.309,3.055,3.055,0,0,1,1.658.684c.24.159.477.318.73.477a8.053,8.053,0,0,0,1.871.894,3.742,3.742,0,0,0,2.864-.178,3.356,3.356,0,0,0,.477-.328,5.451,5.451,0,0,0,.786-.827c.229.445.725.636,1.138.915a3.557,3.557,0,0,1,1.246,1.663,9.17,9.17,0,0,1,.477,2.049,10.672,10.672,0,0,1,.137,2.068A16.276,16.276,0,0,1,580.155,330.722Z" transform="translate(-562.764 -306.257)" fill="#3f3d56"/>
      <path id="Path_587" data-name="Path 587" d="M555.136,336.28h-7.982l.318-.913h-.014a1.243,1.243,0,0,1-1.282-.916,1.181,1.181,0,0,0-.2-.578,1.585,1.585,0,0,0-.181-.142,1.334,1.334,0,0,1-.407-.867,24.213,24.213,0,0,1-.124-2.926c-.065-1.489-.1-2.956-.307-4.432a6.9,6.9,0,0,1,.18-2.759,2.764,2.764,0,0,0,.159-.813c0-.146-.04-.293-.032-.439a.428.428,0,0,1,.2-.369,1.847,1.847,0,0,1,.318-1.391,1.218,1.218,0,0,1,.352-.336,2.557,2.557,0,0,1,1.01-.2c1.607-.181,2.88-1.591,4.488-1.75a6.073,6.073,0,0,1,1.088.025c.592.049.808.8.945,1.378.019.076.035.159.051.229a21.339,21.339,0,0,1,.247,4.4,3.72,3.72,0,0,0,.137,1,12.908,12.908,0,0,1,.318,2.737,62.036,62.036,0,0,0,.646,6.418,11.765,11.765,0,0,1,.148,1.2A7.286,7.286,0,0,1,555.136,336.28Z" transform="translate(-544.757 -303.673)" fill="#f86d70"/>
      <path id="Path_588" data-name="Path 588" d="M584.549,356.1a4.58,4.58,0,0,1,.465.628c.064.1.116.258.022.337a.279.279,0,0,1-.172.048l-1.114.048a1.3,1.3,0,0,1-.5-.046,1.273,1.273,0,0,1-.522-.466l-.5-.649a1.469,1.469,0,0,1-.318-.56.5.5,0,0,1,.223-.557.739.739,0,0,1,.547.038,4.543,4.543,0,0,1,1.036.387A4.273,4.273,0,0,1,584.549,356.1Z" transform="translate(-575.869 -335.133)" fill="#f86d70"/>
      <path id="Path_589" data-name="Path 589" d="M584.549,356.1a4.58,4.58,0,0,1,.465.628c.064.1.116.258.022.337a.279.279,0,0,1-.172.048l-1.114.048a1.3,1.3,0,0,1-.5-.046,1.273,1.273,0,0,1-.522-.466l-.5-.649a1.469,1.469,0,0,1-.318-.56.5.5,0,0,1,.223-.557.739.739,0,0,1,.547.038,4.543,4.543,0,0,1,1.036.387A4.273,4.273,0,0,1,584.549,356.1Z" transform="translate(-575.869 -335.133)" opacity="0.1"/>
      <path id="Path_590" data-name="Path 590" d="M577.965,309.744a15.93,15.93,0,0,1,.562-2.154,5.046,5.046,0,0,0,.282-1.047c.03-.282,0-.566.029-.848.022-.243.081-.477.118-.722a3.629,3.629,0,0,0-.088-1.468c-.1-.38,0-.843-.248-1.152-.1-.126-.231-.221-.334-.344a.477.477,0,0,1-.126-.441,2.777,2.777,0,0,0,1.056.033.694.694,0,0,0,.3-.1.278.278,0,0,0,.124-.269.388.388,0,0,0-.2-.231,2.477,2.477,0,0,0-2.1-.235.123.123,0,0,1,.052-.15.452.452,0,0,1,.159-.053,1.1,1.1,0,0,0,.784-.681.232.232,0,0,0,.016-.15c-.041-.116-.207-.11-.326-.08l-.649.159a1.523,1.523,0,0,0-.363.122,1.492,1.492,0,0,0-.371.318,4.151,4.151,0,0,0-.875,1.211c-.084.21-.134.433-.221.636a.98.98,0,0,1-.426.511.552.552,0,0,0-.278.585,1.639,1.639,0,0,0,.3.636,7.772,7.772,0,0,0,.816,1.061,2.959,2.959,0,0,1,.557.682c.092.188.132.4.213.589a1.29,1.29,0,0,1,.1.28.712.712,0,0,1,0,.21c-.135,1.058-.92,1.92-1.212,2.945a.288.288,0,0,0,.159.377,6.349,6.349,0,0,0,1.947.869A7.367,7.367,0,0,0,577.965,309.744Z" transform="translate(-569.921 -288.702)" opacity="0.1"/>
      <path id="Path_591" data-name="Path 591" d="M577.421,309.444a15.925,15.925,0,0,1,.562-2.154,4.952,4.952,0,0,0,.282-1.047c.03-.282,0-.566.029-.848.022-.243.081-.477.118-.722a3.629,3.629,0,0,0-.088-1.468c-.1-.38,0-.843-.248-1.152-.1-.126-.231-.221-.334-.344a.477.477,0,0,1-.126-.441,2.778,2.778,0,0,0,1.056.033.694.694,0,0,0,.3-.1.283.283,0,0,0,.126-.269.4.4,0,0,0-.2-.231,2.477,2.477,0,0,0-2.1-.235.122.122,0,0,1,.053-.15.447.447,0,0,1,.159-.052,1.1,1.1,0,0,0,.783-.681.229.229,0,0,0,.016-.148c-.041-.118-.207-.111-.318-.081l-.648.159a1.511,1.511,0,0,0-.364.122,1.494,1.494,0,0,0-.371.318,4.152,4.152,0,0,0-.875,1.211c-.084.21-.134.433-.221.636a.98.98,0,0,1-.426.511.555.555,0,0,0-.278.585,1.639,1.639,0,0,0,.3.636,7.9,7.9,0,0,0,.816,1.061,2.96,2.96,0,0,1,.557.683c.092.188.132.4.213.59a1.248,1.248,0,0,1,.1.278.712.712,0,0,1,0,.21c-.135,1.058-.92,1.92-1.212,2.945a.288.288,0,0,0,.159.377,6.351,6.351,0,0,0,1.947.869A7.358,7.358,0,0,0,577.421,309.444Z" transform="translate(-569.469 -288.45)" fill="#fbbebe"/>
      <path id="Path_592" data-name="Path 592" d="M583.677,358.719a.117.117,0,0,1,.054.049.119.119,0,0,1,0,.084,7.007,7.007,0,0,1-.614,1.352q-.759-.417-1.481-.893a.8.8,0,0,1-.3-.28C580.627,357.66,583.2,358.444,583.677,358.719Z" transform="translate(-575.298 -337.99)" fill="#3f3d56"/>
      <path id="Path_593" data-name="Path 593" d="M556.751,358.168c-.167.223-.36.423-.525.648a10.125,10.125,0,0,0-.724,1.306,8.965,8.965,0,0,1-1.1,1.624,3.179,3.179,0,0,0-.988,1.677.525.525,0,0,1-.059.272.983.983,0,0,1-.194.159.16.16,0,0,0-.037.224c-.245.025-.347.318-.395.562l-.108.557a2.2,2.2,0,0,0-.052.444,1.839,1.839,0,0,0,.145.585,9.48,9.48,0,0,0,1.005,1.941,1.855,1.855,0,0,0,.743.719,2.048,2.048,0,0,0,.955.089c.453-.029.98-.1,1.206-.495.143-.25.121-.573.277-.815a2.778,2.778,0,0,1,.3-.329,2.127,2.127,0,0,0,.367-.725,27.138,27.138,0,0,0,.993-3.619,5.84,5.84,0,0,1,.326-1.214,6.8,6.8,0,0,1,.6-1,9.182,9.182,0,0,0,.741-1.812c-.614-.143-.9-.55-1.421-.9a19.8,19.8,0,0,0-1.75-1.273C556.888,357.234,557.033,357.786,556.751,358.168Z" transform="translate(-551.21 -336.774)" opacity="0.1"/>
      <path id="Path_594" data-name="Path 594" d="M554.4,356.068c-.159.223-.359.425-.523.649a9.924,9.924,0,0,0-.724,1.3,8.927,8.927,0,0,1-1.1,1.626,3.163,3.163,0,0,0-.988,1.677.533.533,0,0,1-.059.27,1.15,1.15,0,0,1-.2.159.161.161,0,0,0-.037.223c-.245.027-.347.318-.393.563l-.108.557a1.987,1.987,0,0,0-.052.442,1.808,1.808,0,0,0,.145.587,9.512,9.512,0,0,0,1,1.941,1.858,1.858,0,0,0,.745.719,2.048,2.048,0,0,0,.955.089c.452-.029.98-.1,1.2-.495.143-.251.121-.573.277-.816a3.225,3.225,0,0,1,.3-.328,2.13,2.13,0,0,0,.369-.725,27.176,27.176,0,0,0,.991-3.62,5.886,5.886,0,0,1,.318-1.215,6.926,6.926,0,0,1,.6-1,7.435,7.435,0,0,0,.659-1.647c-.614-.142-.815-.716-1.338-1.061a19.577,19.577,0,0,0-1.75-1.273C554.538,355.136,554.683,355.69,554.4,356.068Z" transform="translate(-549.234 -335.008)" opacity="0.1"/>
      <path id="Path_595" data-name="Path 595" d="M555.71,357.11c-.159.223-.359.425-.523.648a9.857,9.857,0,0,0-.724,1.306,8.861,8.861,0,0,1-1.1,1.624,3.174,3.174,0,0,0-.988,1.677.538.538,0,0,1-.059.272,1.231,1.231,0,0,1-.2.159.16.16,0,0,0-.037.223c-.245.025-.347.318-.393.563l-.108.557a1.976,1.976,0,0,0-.052.442,1.846,1.846,0,0,0,.143.587,9.545,9.545,0,0,0,1.005,1.939,1.852,1.852,0,0,0,.745.721,2.068,2.068,0,0,0,.955.089c.452-.029.98-.1,1.2-.495.143-.251.121-.574.277-.816a3.248,3.248,0,0,1,.3-.329,2.135,2.135,0,0,0,.369-.724,27.121,27.121,0,0,0,.991-3.621,5.868,5.868,0,0,1,.318-1.214,6.916,6.916,0,0,1,.6-1,11.368,11.368,0,0,0,1.026-1.935,5.288,5.288,0,0,1-1.706-.775,21.306,21.306,0,0,0-1.75-1.273C555.848,356.176,555.991,356.736,555.71,357.11Z" transform="translate(-550.336 -335.883)" fill="#f86d70"/>
      <circle id="Ellipse_109" data-name="Ellipse 109" cx="0.333" cy="0.333" r="0.333" transform="translate(6.621 21.384)" fill="#3f3d56"/>
      <circle id="Ellipse_110" data-name="Ellipse 110" cx="0.333" cy="0.333" r="0.333" transform="translate(5.581 23.009)" fill="#3f3d56"/>
      <circle id="Ellipse_111" data-name="Ellipse 111" cx="0.333" cy="0.333" r="0.333" transform="translate(4.499 24.675)" fill="#3f3d56"/>
      <path id="Path_596" data-name="Path 596" d="M638.747,342.176H635.7c-.037-.207-.013-.441-.148-.6a1.773,1.773,0,0,0,.011.485c.008.038.018.076.027.115H631.72a6.176,6.176,0,0,1,.138-1.453,13.445,13.445,0,0,0,.221-2.113c.019-.877-.046-1.75-.051-2.627a19.1,19.1,0,0,1,.167-2.593,8.2,8.2,0,0,0,.132-2.386c-.145-.88-.269-1.771-.38-2.655a2.971,2.971,0,0,0-.111-.578,3.78,3.78,0,0,0-.159-.387,5.952,5.952,0,0,1-.516-2.025c-.022-.264-.4-.5-.391-.77a4.4,4.4,0,0,1,1.909-.054c.492.177.854.611,1.348.775s1.015.045,1.494.205a.4.4,0,0,1,.247.175.318.318,0,0,1-.186.4.931.931,0,0,1-.477.037q.8.581,1.543,1.225a1.628,1.628,0,0,1,.433.495,1.694,1.694,0,0,1,.118.737c0,.293,0,.584.008.877a9.59,9.59,0,0,0,.382,1.636c.124.7.186,1.408.243,2.116.033.412.065.824.083,1.238.032.8.17,1.591.183,2.379,0,.245,0,.492.022.735a7.127,7.127,0,0,0,.105.711c.092.511.185,1.023.278,1.534a2.07,2.07,0,0,1,.045.406,2.29,2.29,0,0,0-.014.589,1.7,1.7,0,0,0,.094.24,2.665,2.665,0,0,1,.121,1.134Z" transform="translate(-616.968 -309.569)" fill="#f86d70"/>
      <ellipse id="Ellipse_112" data-name="Ellipse 112" cx="4.498" cy="1.748" rx="4.498" ry="1.748" transform="translate(6.475 1.71)" fill="#3f3d56"/>
      <path id="Path_597" data-name="Path 597" d="M616.98,263a1.459,1.459,0,0,0-1.966.655,2.111,2.111,0,0,0,1.091,2.665,1.513,1.513,0,0,0,.772.212,1.48,1.48,0,0,0,.574-.113A2.474,2.474,0,0,0,619,264.51C619.251,262.546,616.98,263,616.98,263Zm1.473,1.543a2.068,2.068,0,0,1-1.258,1.591,1.2,1.2,0,0,1-1.093-.083,1.771,1.771,0,0,1-.888-2.219,1.171,1.171,0,0,1,1.591-.546C616.813,263.283,618.659,262.9,618.454,264.543Z" transform="translate(-603.589 -257.775)" fill="#f86d70"/>
      <path id="Path_598" data-name="Path 598" d="M618.025,264.909s1.845-.379,1.64,1.26a2.068,2.068,0,0,1-1.258,1.591,1.2,1.2,0,0,1-.466.094h0a1.2,1.2,0,0,1-.627-.177,1.771,1.771,0,0,1-.888-2.219A1.178,1.178,0,0,1,618.025,264.909Z" transform="translate(-604.801 -259.401)" fill="#3f3d56"/>
      <path id="Path_599" data-name="Path 599" d="M618.025,264.909s1.845-.379,1.64,1.26a2.068,2.068,0,0,1-1.258,1.591,1.2,1.2,0,0,1-.466.094h0a1.2,1.2,0,0,1-.627-.177,1.771,1.771,0,0,1-.888-2.219A1.178,1.178,0,0,1,618.025,264.909Z" transform="translate(-604.801 -259.401)" opacity="0.1" fill="url(#radial-gradient)"/>
      <path id="Path_600" data-name="Path 600" d="M582.017,264.53a2.474,2.474,0,0,0,1.548,1.909,1.48,1.48,0,0,0,.574.113,1.513,1.513,0,0,0,.772-.212A2.109,2.109,0,0,0,586,263.675a1.459,1.459,0,0,0-1.966-.656S581.766,262.563,582.017,264.53Zm2.186-1.23a1.167,1.167,0,0,1,1.591.546,1.775,1.775,0,0,1-.888,2.219,1.2,1.2,0,0,1-1.093.083,2.068,2.068,0,0,1-1.258-1.591C582.358,262.921,584.2,263.3,584.2,263.3Z" transform="translate(-575.956 -257.792)" fill="#f86d70"/>
      <path id="Path_601" data-name="Path 601" d="M587.106,264.909s-1.845-.379-1.64,1.26a2.068,2.068,0,0,0,1.258,1.591,1.2,1.2,0,0,0,.466.094h0a1.2,1.2,0,0,0,.627-.177,1.771,1.771,0,0,0,.888-2.219A1.178,1.178,0,0,0,587.106,264.909Z" transform="translate(-578.859 -259.401)" fill="#3f3d56"/>
      <path id="Path_602" data-name="Path 602" d="M587.106,264.909s-1.845-.379-1.64,1.26a2.068,2.068,0,0,0,1.258,1.591,1.2,1.2,0,0,0,.466.094h0a1.2,1.2,0,0,0,.627-.177,1.771,1.771,0,0,0,.888-2.219A1.178,1.178,0,0,0,587.106,264.909Z" transform="translate(-578.859 -259.401)" opacity="0.1" fill="url(#radial-gradient-2)"/>
    </g>
  </g>
</svg>
