<svg xmlns="http://www.w3.org/2000/svg" xmlns:xlink="http://www.w3.org/1999/xlink" width="188.67" height="113.202" viewBox="0 0 188.67 113.202">
  <defs>
    <linearGradient id="linear-gradient" x1="-0.232" y1="0.5" x2="0.769" y2="0.5" gradientUnits="objectBoundingBox">
      <stop offset="0" stop-color="gray" stop-opacity="0.251"/>
      <stop offset="0.54" stop-color="gray" stop-opacity="0.122"/>
      <stop offset="1" stop-color="gray" stop-opacity="0.102"/>
    </linearGradient>
    <linearGradient id="linear-gradient-2" x1="-3.46" y1="0.929" x2="-3.46" y2="-0.082" xlink:href="#linear-gradient"/>
  </defs>
  <g id="Music" transform="translate(0 -1.06)">
    <circle id="Ellipse_16" data-name="Ellipse 16" cx="3.713" cy="3.713" r="3.713" transform="translate(165.455 59.987)" fill="#6c63ff" opacity="0.1"/>
    <circle id="Ellipse_17" data-name="Ellipse 17" cx="6.222" cy="6.222" r="6.222" transform="translate(176.225 40.924)" fill="#6c63ff" opacity="0.1"/>
    <circle id="Ellipse_18" data-name="Ellipse 18" cx="3.713" cy="3.713" r="3.713" transform="translate(74.44 1.06)" fill="#6c63ff" opacity="0.1"/>
    <circle id="Ellipse_19" data-name="Ellipse 19" cx="3.713" cy="3.713" r="3.713" transform="translate(117.026 5.327)" fill="#6c63ff" opacity="0.1"/>
    <circle id="Ellipse_20" data-name="Ellipse 20" cx="6.222" cy="6.222" r="6.222" transform="translate(0 49.776)" fill="#6c63ff" opacity="0.1"/>
    <path id="Path_293" data-name="Path 293" d="M872.34,433.794a1.014,1.014,0,0,0,.228.594,3.373,3.373,0,0,0,.913.776v.93a28.734,28.734,0,0,1,3.311,3.162,9.4,9.4,0,0,0,1.874,2.286,1.69,1.69,0,0,0,.7.371h.046a.726.726,0,0,1-.268.172.635.635,0,0,0,.748.537,1.249,1.249,0,0,0,.371-.185l1.088-.7a3.112,3.112,0,0,0,.506-.379c.2-.2.343-.46.542-.669.343-.357.831-.57,1.069-1a4.831,4.831,0,0,0,.268-.879c.06-.192.148-.374.206-.566a2.058,2.058,0,0,0,.07-.354c.038.033.077.065.118.1.084-.055.245.089.208.182s-.129.16-.16.256c-.069.22.2.383.316.584a1.552,1.552,0,0,1,.067.687c.012.228.117.5.149.759.079.6-.216,1.227,0,1.792a.565.565,0,0,0-.558.434,1.644,1.644,0,0,0,.022.764,1.05,1.05,0,0,0-.515.96.235.235,0,0,1-.024.172.244.244,0,0,1-.1.057.968.968,0,0,0-.6.9.293.293,0,0,1-.158.335,1.119,1.119,0,0,0-.417.875.635.635,0,0,0,.3.573h.012a3.09,3.09,0,0,0-1.03,1.955,8.026,8.026,0,0,0,.134,2.024h.062v.05a.9.9,0,0,0,.1.292,4.179,4.179,0,0,1,.369,1.5,1.335,1.335,0,0,0,.051.379,1.911,1.911,0,0,0,.194.333,3.543,3.543,0,0,1,.359,1.253,9.9,9.9,0,0,0,.438,1.643,4.648,4.648,0,0,1,.5,2.231,2.231,2.231,0,0,0-.069.551,1.612,1.612,0,0,0,.216.578,5.366,5.366,0,0,1,.24.536.433.433,0,0,0,.106.29c.021.057.038.115.055.172s.029.091.043.137a1.786,1.786,0,0,1,.053.233l-.01.18v.172a.429.429,0,0,1-.082.153.61.61,0,0,1-.045.05l-.041.046a.307.307,0,0,0-.046.067h0a.321.321,0,0,0-.014.2.314.314,0,0,0,.017.077c.043.185.089.371.136.554.014.057.029.112.043.172.038.144.076.29.115.434v.019l.026.1.1.354c.021.07.041.139.06.209l.076.256q.088.3.18.6a62.46,62.46,0,0,1,1.675,6.105.657.657,0,0,0,.245.367,1.414,1.414,0,0,0,.427.23c.039.3.137.675.149.858a4.165,4.165,0,0,1-.153,1.783.144.144,0,0,0-.13.041,5.315,5.315,0,0,0-.393.417l-.8.858a1.325,1.325,0,0,0-.182.221.774.774,0,0,0-.077.633.858.858,0,0,0,.414.491.687.687,0,0,1,.13.074.771.771,0,0,0,.081.069.312.312,0,0,0,.172.033,6.128,6.128,0,0,0,1.351-.23,1.083,1.083,0,0,0,.558-.263,1.043,1.043,0,0,0,.19-.371l.161-.446a5.088,5.088,0,0,0,.245-.832,1.717,1.717,0,0,0-.043-.858.172.172,0,0,0-.041.07c.039-.249.077-.5.117-.75.012-.074.022-.149.033-.227.052.668-.046,1.341-.015,2.01a2.331,2.331,0,0,0-.067.376,2.272,2.272,0,0,0,.8,1.651.816.816,0,0,0,.273.143.967.967,0,0,0,.281,0,3.586,3.586,0,0,0,1.071-.2,1.316,1.316,0,0,0,.771-.731,1.717,1.717,0,0,0,.077-.529,2.032,2.032,0,0,0-.05-.558,4.255,4.255,0,0,0-.281-.65,6.218,6.218,0,0,1-.319-.958l-.149-.544c-.041-.154-.084-.309-.137-.46a.77.77,0,0,0-.19-.362c-.062-.048-.1-.051-.13-.024v-.058a6.15,6.15,0,0,0,.039-.637,2.7,2.7,0,0,0-.491-.929,1.813,1.813,0,0,1-.2-.491c-.01-.038-.017-.074-.024-.113a.4.4,0,0,1,.1-.064l.306.172c-.27-2.025-.127-4.149-.913-6.033-.343-.82-1-1.675-.93-2.559a.721.721,0,0,1,.081-1.15c.132-.072.3-.106.386-.228a.621.621,0,0,0,.088-.221,35.1,35.1,0,0,1,1.7-5.089c.153-.362.311-.721.47-1.08l.532-1.21.649-1.473a2.043,2.043,0,0,0,.233-1.562,1.321,1.321,0,0,1-.208-.6,3.742,3.742,0,0,1,.127-.393.978.978,0,0,0-.033-.427c-.043-.185-.091-.371-.141-.554a3.1,3.1,0,0,1,.414.079c.082-.139-.05-.3-.13-.441a1.492,1.492,0,0,1-.149-.613l-.172-1.732a3.073,3.073,0,0,1-.014-.721c.034-.254.132-.5.182-.75a11.518,11.518,0,0,0,.031-1.483,6.647,6.647,0,0,1,.227-1.291c.015-.064.029-.125.045-.189a1.03,1.03,0,0,0,.249.043h.213a.69.69,0,0,0,.094-.024h.021a1.025,1.025,0,0,0,.1-.039c-.041-.088-.079-.172-.115-.264-.015-.036-.029-.072-.043-.108s-.039-.1-.057-.153-.034-.094-.05-.141-.026-.079-.038-.118-.033-.108-.048-.172-.031-.113-.046-.172l.026-.053a1.507,1.507,0,0,0,.283.194c.343.592.654,1.2.941,1.816a.576.576,0,0,0,.087-.221,1.068,1.068,0,0,0,.122.156,1.823,1.823,0,0,0,.4.294,1.03,1.03,0,0,0,.474.172.884.884,0,0,0,.606-.263,4.045,4.045,0,0,0,.98-1.716,12.929,12.929,0,0,0,.738-2.528,21.429,21.429,0,0,1,.343-2.8c-.239-.474-.39-1-.657-1.456a6.51,6.51,0,0,1-.453-.85,2.935,2.935,0,0,1-.081-1.964.269.269,0,0,0-.314.017.656.656,0,0,0-.189.275,2.435,2.435,0,0,0-.187,1.153.46.46,0,0,1-.033.281.353.353,0,0,1-.305.129,2.634,2.634,0,0,1-.707-.129,6.57,6.57,0,0,0-1.97-.192,1.558,1.558,0,0,0-.172-.172l-.074-.06-.076-.058-.038-.031a.857.857,0,0,1-.072-.063.476.476,0,0,1-.172-.3.362.362,0,0,1,0-.045.32.32,0,0,1,0-.041.582.582,0,0,1,.039-.12.8.8,0,0,1,.038-.077l.019-.039c0-.012.012-.026.019-.038a1.136,1.136,0,0,0,.055-.144,1.053,1.053,0,0,0,.036-.149,1.135,1.135,0,0,0,.015-.153v-.232a1.562,1.562,0,0,0-.063-.305,1.705,1.705,0,0,0-.082-.22,2.444,2.444,0,0,0-.146-.271,4.157,4.157,0,0,0-.367-.5l-.1-.118-.1-.117a4.071,4.071,0,0,1-.3-.366,1.42,1.42,0,0,1-.172-.306c-.014-.036-.026-.072-.036-.11a1.113,1.113,0,0,1-.031-.213v-.07a2.645,2.645,0,0,1,.014-.287c.014-.134.033-.269.052-.407.012-.091.026-.182.038-.273a.92.92,0,0,1,.017-.136c.01-.091.021-.182.027-.273a2.617,2.617,0,0,0-.045-.795,1.5,1.5,0,0,0-.081-.254,1.612,1.612,0,0,0-.172-.309,2.231,2.231,0,0,0-.954-.743,4.394,4.394,0,0,0-.874-.28c-.12-.026-.239-.048-.357-.067a5,5,0,0,0-4.806,1.716,6.659,6.659,0,0,0-1.3,2.545,3.634,3.634,0,0,0,.41,2.775c.221.343.515.632.709.985.161.288.258.613.431.894a2.111,2.111,0,0,0,.953.8l-.075.069a2.314,2.314,0,0,0-.534.01c-.182.031-.359.1-.542.124-.227.029-.458-.015-.687.014a2.167,2.167,0,0,0-1.09.626,1.915,1.915,0,0,0-.809,1.2v.014l-.252.343a1.36,1.36,0,0,0-.158.249,4.2,4.2,0,0,0-.1.769,1.647,1.647,0,0,1-.2.458,10.311,10.311,0,0,1-.858,1.28,2.169,2.169,0,0,1-.534.529.961.961,0,0,1-.556.158,3.566,3.566,0,0,1-.814-.544,5.246,5.246,0,0,1-.719-.894c-.409-.589.858,1.172.45.582l-3.663-6.1a4.963,4.963,0,0,1-.144-.868c0-.112-.046-.259-.16-.263a.194.194,0,0,0-.129.062.745.745,0,0,0-.239.635.88.88,0,0,0-.561.1.321.321,0,0,0-.07.457v.046a.244.244,0,0,0-.129.257.872.872,0,0,0-.6.029c-.18.1-.249.4-.074.515A.527.527,0,0,0,872.34,433.794Zm22.945.875a2.839,2.839,0,0,0,.321.082,5.125,5.125,0,0,1,1,.343.546.546,0,0,1,.259.194.577.577,0,0,1-.031.487L896.377,437c-.072.192-.142.384-.232.568-.034.074-.074.148-.113.22q-.021-.062-.041-.118a10.049,10.049,0,0,1-.326-1.14c-.076-.333-.139-.669-.192-1.006a4.919,4.919,0,0,0-.19-.855Zm-.474-.959.034.024a.386.386,0,0,1,.118.082.184.184,0,0,1,0,.172Zm-.819-1.179.542.079a.712.712,0,0,1,.366.125.245.245,0,0,1,.05.343.818.818,0,0,1-.12.081.343.343,0,0,0-.129.355,3.849,3.849,0,0,0-.311-.482,2.389,2.389,0,0,0-.362-.371C894.017,432.618,894.006,432.573,893.993,432.53ZM888.78,471.55a.258.258,0,1,1,.168.487Z" transform="translate(-731.26 -365.881)" fill="url(#linear-gradient)"/>
    <path id="Path_294" data-name="Path 294" d="M942.3,425.863a2.861,2.861,0,0,1,2.35,1.4,4.624,4.624,0,0,1,0,2.135,1.622,1.622,0,0,0,.021.568,1.994,1.994,0,0,0,.5.781,4.159,4.159,0,0,1,.717,1,1.462,1.462,0,0,1,.048,1.2.873.873,0,0,0-.118.316c-.012.245.244.4.432.556.707.585.676,1.651.687,2.575a13,13,0,0,0,1.229,5.431,1.66,1.66,0,0,1-1.857-.242,6.249,6.249,0,0,0,.422,1.215,1.334,1.334,0,0,1-1.619-.779,13.335,13.335,0,0,1-.549-1.912c-.206-.628-.6-1.183-.771-1.816a1.745,1.745,0,0,0-.214-.608,1.545,1.545,0,0,0-.378-.321,3.672,3.672,0,0,1-1.33-1.806,7.077,7.077,0,0,1-2.231.258,2.456,2.456,0,0,1-1.9-1.045c-.172-.281-.27-.606-.431-.894-.2-.354-.489-.644-.711-.984a3.631,3.631,0,0,1-.409-2.772,6.608,6.608,0,0,1,1.3-2.542A5.028,5.028,0,0,1,942.3,425.863Z" transform="translate(-784.056 -367.653)" fill="#3a3768"/>
    <path id="Path_295" data-name="Path 295" d="M942.3,425.863a2.861,2.861,0,0,1,2.35,1.4,4.624,4.624,0,0,1,0,2.135,1.622,1.622,0,0,0,.021.568,1.994,1.994,0,0,0,.5.781,4.159,4.159,0,0,1,.717,1,1.462,1.462,0,0,1,.048,1.2.873.873,0,0,0-.118.316c-.012.245.244.4.432.556.707.585.676,1.651.687,2.575a13,13,0,0,0,1.229,5.431,1.66,1.66,0,0,1-1.857-.242,6.249,6.249,0,0,0,.422,1.215,1.334,1.334,0,0,1-1.619-.779,13.335,13.335,0,0,1-.549-1.912c-.206-.628-.6-1.183-.771-1.816a1.745,1.745,0,0,0-.214-.608,1.545,1.545,0,0,0-.378-.321,3.672,3.672,0,0,1-1.33-1.806,7.077,7.077,0,0,1-2.231.258,2.456,2.456,0,0,1-1.9-1.045c-.172-.281-.27-.606-.431-.894-.2-.354-.489-.644-.711-.984a3.631,3.631,0,0,1-.409-2.772,6.608,6.608,0,0,1,1.3-2.542A5.028,5.028,0,0,1,942.3,425.863Z" transform="translate(-784.056 -367.653)" fill="#3f3d56"/>
    <path id="Path_296" data-name="Path 296" d="M993.33,487.294c.053.343.117.673.194,1.008a9.611,9.611,0,0,0,.324,1.136,1.093,1.093,0,0,1,.1.515.965.965,0,0,1-.125.312,5.812,5.812,0,0,0-1.061,2.377,1.279,1.279,0,0,1-.117.633q-.5-1.071-1.1-2.091a6.436,6.436,0,0,1-1-2.245,4.254,4.254,0,0,1,.014-1.153,2.512,2.512,0,0,1,.415-1.214c.283-.371,1.064-.932,1.569-.817C993.132,485.9,993.254,486.815,993.33,487.294Z" transform="translate(-829.147 -417.315)" fill="#f86d70"/>
    <path id="Path_297" data-name="Path 297" d="M880.149,478.066a5.115,5.115,0,0,1-1.584-.886,5.169,5.169,0,0,1-.719-.893l-1.323-1.912a3.451,3.451,0,0,1-.7-1.48,4.87,4.87,0,0,1-1.323-3c0-.113-.045-.259-.158-.263a.2.2,0,0,0-.13.062.747.747,0,0,0-.237.635.88.88,0,0,0-.561.1c-.158.113-.2.393-.029.487a.242.242,0,0,0-.172.273.858.858,0,0,0-.6.029c-.172.1-.249.4-.074.515a.515.515,0,0,0-.343.5,1.009,1.009,0,0,0,.228.592c.515.687,1.407.958,2,1.572a4.566,4.566,0,0,1,.515.687l1.708,2.6a9.341,9.341,0,0,0,1.874,2.281,1.7,1.7,0,0,0,.7.371.771.771,0,0,0,.733-.2,1.2,1.2,0,0,0,.215-.731C880.2,478.962,880.12,478.507,880.149,478.066Z" transform="translate(-731.135 -403.969)" fill="#a1616a"/>
    <path id="Path_298" data-name="Path 298" d="M950.458,721.876a1.474,1.474,0,0,0-.182.221.774.774,0,0,0-.077.633.859.859,0,0,0,.414.489.806.806,0,0,1,.13.075.766.766,0,0,0,.081.069.312.312,0,0,0,.172.033,6.254,6.254,0,0,0,1.351-.23,1.085,1.085,0,0,0,.558-.263,1.111,1.111,0,0,0,.191-.369l.16-.446a5.236,5.236,0,0,0,.247-.831,1.73,1.73,0,0,0-.045-.858.28.28,0,0,0-.06.172,1.9,1.9,0,0,1-.343.832.845.845,0,0,1-.134.172.874.874,0,0,1-.4.172,4.925,4.925,0,0,1-.858.11.265.265,0,0,1-.117-.014.2.2,0,0,1-.1-.122.515.515,0,0,1,0-.343c.077-.216.29-.359.393-.566.076-.153-.029-.321-.185-.192a4.77,4.77,0,0,0-.393.417Z" transform="translate(-795.726 -611.696)" fill="#3f3d56"/>
    <path id="Path_299" data-name="Path 299" d="M955.762,703.151a3.4,3.4,0,0,1-.316,2.1c-.141.218-.331.4-.493.6a.709.709,0,0,0-.172.364.557.557,0,0,0,.484.537,1.6,1.6,0,0,0,.777-.112,1.872,1.872,0,0,0,.661-.311,1.9,1.9,0,0,0,.5-1.215l.16-1.03a3.248,3.248,0,0,0,.058-.75,3.334,3.334,0,0,0-.2-.808l-.264-.772a.364.364,0,0,0-.117-.192.344.344,0,0,0-.2-.036c-.252.012-.889.1-1.011.371C955.519,702.138,955.745,702.88,955.762,703.151Z" transform="translate(-799.55 -596.06)" fill="#ee8e9e"/>
    <path id="Path_300" data-name="Path 300" d="M955.762,703.151a3.4,3.4,0,0,1-.316,2.1c-.141.218-.331.4-.493.6a.709.709,0,0,0-.172.364.557.557,0,0,0,.484.537,1.6,1.6,0,0,0,.777-.112,1.872,1.872,0,0,0,.661-.311,1.9,1.9,0,0,0,.5-1.215l.16-1.03a3.248,3.248,0,0,0,.058-.75,3.334,3.334,0,0,0-.2-.808l-.264-.772a.364.364,0,0,0-.117-.192.344.344,0,0,0-.2-.036c-.252.012-.889.1-1.011.371C955.519,702.138,955.745,702.88,955.762,703.151Z" transform="translate(-799.55 -596.06)" opacity="0.05"/>
    <path id="Path_301" data-name="Path 301" d="M927.547,578.164a.065.065,0,0,0,0,.019.857.857,0,0,0,.1.292,4.219,4.219,0,0,1,.371,1.5,1.271,1.271,0,0,0,.05.379,2.023,2.023,0,0,0,.194.333,3.534,3.534,0,0,1,.359,1.251,9.889,9.889,0,0,0,.438,1.641,4.64,4.64,0,0,1,.5,2.231,2.228,2.228,0,0,0-.069.549,1.586,1.586,0,0,0,.215.578,5.375,5.375,0,0,1,.242.536c.07.182.146.4.2.6a.812.812,0,0,1-.045.736.842.842,0,0,0-.132.161.429.429,0,0,0,0,.278q.139.587.3,1.172c.082.306.172.609.259.913.663,2.221,1.411,4.42,1.855,6.694.063.328.482.563.808.633a1.054,1.054,0,0,0,.929-.249.567.567,0,0,0,.065-.063,1.951,1.951,0,0,0,.366-1.438c-.115-2.341-1.294-4.483-1.855-6.759a13.019,13.019,0,0,1-.364-2.508,26.207,26.207,0,0,1,.615-8.527A2.187,2.187,0,0,0,933,577.4a1.674,1.674,0,0,0-.882-.645,5.681,5.681,0,0,0-4.409.113,1.365,1.365,0,0,0,0,.172,1.739,1.739,0,0,1-.089.779A.956.956,0,0,0,927.547,578.164Z" transform="translate(-776.99 -492.383)" fill="#3f3d56"/>
    <path id="Path_302" data-name="Path 302" d="M972,711.147l.149.544a6.09,6.09,0,0,0,.318.958,4.162,4.162,0,0,1,.283.649,2.1,2.1,0,0,1,.048.558,1.7,1.7,0,0,1-.077.527,1.316,1.316,0,0,1-.771.731,3.641,3.641,0,0,1-1.069.2.862.862,0,0,1-.282,0,.784.784,0,0,1-.273-.143,2.257,2.257,0,0,1-.8-1.649,2.032,2.032,0,0,1,.084-.421c.038-.052.414.16.252.343-.237.263.458.127.812.1a3.26,3.26,0,0,0,.46-.076l.572-.122c.187-.041.4-.1.469-.285s-.079-.393-.19-.566a3.7,3.7,0,0,1-.446-1.574c-.014-.108-.148-.8.129-.587a.772.772,0,0,1,.192.362C971.916,710.839,971.957,710.992,972,711.147Z" transform="translate(-811.768 -603.328)" fill="#3f3d56"/>
    <path id="Path_303" data-name="Path 303" d="M941.682,640.348a.784.784,0,0,0,.045-.735c-.027-.093-.055-.184-.086-.275l2.247-.759c0,.2.017.4.026.6a13.053,13.053,0,0,0,.364,2.51c.561,2.274,1.74,4.416,1.855,6.756a1.877,1.877,0,0,1-.429,1.505,1.062,1.062,0,0,1-.93.247c-.324-.07-.745-.305-.808-.633-.445-2.274-1.2-4.473-1.856-6.694q-.309-1.03-.558-2.087a.436.436,0,0,1,0-.276A.838.838,0,0,1,941.682,640.348Z" transform="translate(-788.573 -543.92)" opacity="0.05"/>
    <path id="Path_304" data-name="Path 304" d="M970.578,696.338a2.712,2.712,0,0,1,.489.927,5.287,5.287,0,0,1-.04.637,2,2,0,0,0,.094.515q.326,1.184.755,2.338a.64.64,0,0,1,.06.318.56.56,0,0,1-.372.371,3.933,3.933,0,0,1-1.716.189.9.9,0,0,1-.484-.113.842.842,0,0,1-.273-.675c-.039-.729.084-1.462,0-2.188-.027-.264-.084-.525-.125-.786a2.307,2.307,0,0,1,.034-1.1,2.512,2.512,0,0,1,.41-.687,2.149,2.149,0,0,1,.572-.57c.068-.041.263-.172.331-.087.036.039.021.146.026.2a1.927,1.927,0,0,0,.04.227A1.866,1.866,0,0,0,970.578,696.338Z" transform="translate(-811.26 -590.986)" fill="#ee8e9e"/>
    <path id="Path_305" data-name="Path 305" d="M931.71,579.059a.621.621,0,0,1,.043.515c-.076.311-.2.608-.3.911a12.683,12.683,0,0,0-.388,1.656,4.849,4.849,0,0,0-.211,1.579,11.252,11.252,0,0,0-1.2,3.744c-.046.335.7.769.687,1.107-.027.673-.565.726-.172,1.263.019.027-.149.628-.127.654.161.194.366.343.539.53a4.06,4.06,0,0,1,.568.832c1.03,1.85,2.5,3.948,2.048,6.008a.367.367,0,0,0,.2.371,1.012,1.012,0,0,0,.433.1h.072a1.952,1.952,0,0,0,.366-1.438c-.115-2.341-1.294-4.483-1.855-6.759a13.019,13.019,0,0,1-.364-2.508,26.2,26.2,0,0,1,.615-8.527,2.187,2.187,0,0,0,.064-1.716,1.674,1.674,0,0,0-.882-.645,5.681,5.681,0,0,0-4.409.113,1.388,1.388,0,0,0,0,.172,1.739,1.739,0,0,1-.089.779.957.957,0,0,0-.087.343s-.041-.455-.041-.448c.918.132,1.876.731,2.794.858a6.383,6.383,0,0,1,1.4.309A.607.607,0,0,1,931.71,579.059Z" transform="translate(-776.712 -492.366)" opacity="0.05"/>
    <path id="Path_306" data-name="Path 306" d="M937.274,558.943c.124.393.234.79.326,1.189a.97.97,0,0,1,.033.426,3.729,3.729,0,0,0-.127.393,1.314,1.314,0,0,0,.208.594,2.048,2.048,0,0,1-.232,1.562l-.651,1.471-.532,1.2c-.158.359-.316.717-.469,1.08a35.122,35.122,0,0,0-1.7,5.082.622.622,0,0,1-.088.221c-.091.12-.254.154-.386.228a.719.719,0,0,0-.079,1.148c-.076.884.587,1.737.928,2.556.784,1.888.642,4,.913,6.025l-.306-.172c-.293.134-.283.549-.439.829-.237.422-.815.482-1.3.45a1.014,1.014,0,0,1-.434-.1.366.366,0,0,1-.194-.371c.455-2.06-1.03-4.162-2.049-6.008a4,4,0,0,0-.568-.831c-.172-.184-.376-.343-.539-.532a2.883,2.883,0,0,1-.479-2.013,11.279,11.279,0,0,1,1.282-4.755,4.882,4.882,0,0,1,.213-1.579,12.42,12.42,0,0,1,.386-1.656c.1-.3.225-.6.3-.911a.622.622,0,0,0-.041-.515.6.6,0,0,0-.29-.187,6.451,6.451,0,0,0-1.4-.309l-3.155-.453a8.024,8.024,0,0,1-.134-2.022,3.109,3.109,0,0,1,2.231-2.6.469.469,0,0,1,.41.026,16.449,16.449,0,0,1,8.354.534Z" transform="translate(-775.921 -477.255)" fill="#3f3d56"/>
    <path id="Path_307" data-name="Path 307" d="M951.964,456.23a1.545,1.545,0,0,0,.137.9,1.41,1.41,0,0,0,.359.4,2.657,2.657,0,0,0,1.04.515,1.108,1.108,0,0,1,.621.273c.221.268.074.671-.115.963a2.462,2.462,0,0,1-1.363,1.128c-.465.127-.963.05-1.438.132-.343.06-.669.2-1.009.283a2.978,2.978,0,0,1-2.746-.764,3.921,3.921,0,0,0,1.292-1.383,1.967,1.967,0,0,0,.1-1.322,2.938,2.938,0,0,1-.309-1.291,1.353,1.353,0,0,1,.946-.891,6.074,6.074,0,0,1,1.189-.24c.221-.031,1.634-.343,1.716-.189.05.088-.244.6-.28.716A2.752,2.752,0,0,0,951.964,456.23Z" transform="translate(-793.478 -391.603)" fill="#a1616a"/>
    <path id="Path_308" data-name="Path 308" d="M951.964,456.23a1.545,1.545,0,0,0,.137.9,1.41,1.41,0,0,0,.359.4,2.657,2.657,0,0,0,1.04.515,1.108,1.108,0,0,1,.621.273c.221.268.074.671-.115.963a2.462,2.462,0,0,1-1.363,1.128c-.465.127-.963.05-1.438.132-.343.06-.669.2-1.009.283a2.978,2.978,0,0,1-2.746-.764,3.921,3.921,0,0,0,1.292-1.383,1.967,1.967,0,0,0,.1-1.322,2.938,2.938,0,0,1-.309-1.291,1.353,1.353,0,0,1,.946-.891,6.074,6.074,0,0,1,1.189-.24c.221-.031,1.634-.343,1.716-.189.05.088-.244.6-.28.716A2.752,2.752,0,0,0,951.964,456.23Z" transform="translate(-793.478 -391.603)" opacity="0.05"/>
    <circle id="Ellipse_21" data-name="Ellipse 21" cx="2.865" cy="2.865" r="2.865" transform="translate(153.845 59.928)" fill="#a1616a"/>
    <path id="Path_309" data-name="Path 309" d="M936.868,475.837l-1.941.326a7.275,7.275,0,0,1-1.452.146,4.148,4.148,0,0,0-.8,0c-.184.031-.359.1-.544.124-.227.029-.457-.014-.687.015a2.164,2.164,0,0,0-1.09.625,1.9,1.9,0,0,0-.807,1.2.343.343,0,0,0,.022.172.5.5,0,0,0,.144.151,4.594,4.594,0,0,1,.812,1.116,4.311,4.311,0,0,0,.965,1.04c.086-.055.247.089.209.182s-.129.16-.16.256c-.069.22.2.381.314.584a1.579,1.579,0,0,1,.069.687c.012.23.115.5.149.76.077.6-.216,1.224,0,1.789a.561.561,0,0,0-.558.434,1.639,1.639,0,0,0,.022.762,1.049,1.049,0,0,0-.515.958.172.172,0,0,1-.124.228.966.966,0,0,0-.6.9.442.442,0,0,1-.017.19.419.419,0,0,1-.141.144,1.119,1.119,0,0,0-.417.875.642.642,0,0,0,.3.573,5.339,5.339,0,0,0,1.3.388,11.7,11.7,0,0,0,1.263.223,11.314,11.314,0,0,0,1.183.036l2.6-.01c.729,0,1.461,0,2.19-.055a6.21,6.21,0,0,1,2.034.048c.082-.139-.05-.3-.13-.441a1.476,1.476,0,0,1-.149-.611l-.163-1.732a3.043,3.043,0,0,1-.014-.717c.036-.256.132-.5.182-.75a11.5,11.5,0,0,0,.031-1.481,6.62,6.62,0,0,1,.227-1.289l.515-2.12a8.169,8.169,0,0,1,.254-1.062q.592-1.528,1.244-3.028a.312.312,0,0,0-.022-.268l-.429-.771a4.926,4.926,0,0,0-.393-.627,2.48,2.48,0,0,0-1.45-.891,2.564,2.564,0,0,0-1.685.251c-.2.106-.386.239-.591.343A2.415,2.415,0,0,1,936.868,475.837Z" transform="translate(-778.646 -408.308)" fill="#f86d70"/>
    <path id="Path_310" data-name="Path 310" d="M915.367,491.5l-.676.9a1.147,1.147,0,0,0-.158.249,4.02,4.02,0,0,0-.1.765,1.6,1.6,0,0,1-.2.458,10.571,10.571,0,0,1-.858,1.28,2.291,2.291,0,0,1-.534.529.886.886,0,0,1-.721.127.451.451,0,0,1,.237.215,2.619,2.619,0,0,1,.172,1.675,1.716,1.716,0,0,1-.189.549.824.824,0,0,1-.431.372.635.635,0,0,0,.748.537,1.252,1.252,0,0,0,.371-.185l1.086-.7a2.888,2.888,0,0,0,.506-.379c.2-.2.343-.458.542-.668.343-.355.831-.568,1.069-1a4.69,4.69,0,0,0,.266-.879c.06-.19.149-.372.206-.565a2.523,2.523,0,0,0-.223-1.809A7.734,7.734,0,0,0,915.367,491.5Z" transform="translate(-764.038 -422.085)" fill="#f86d70"/>
    <path id="Path_311" data-name="Path 311" d="M945.414,429.132a3.755,3.755,0,0,1,1.008-1.049,3.438,3.438,0,0,1,1.818-.769,1.934,1.934,0,0,1,.817.134c.014-.81.215-1.347.719-1.267a2.861,2.861,0,0,1,2.35,1.4,4.625,4.625,0,0,1,0,2.135,1.622,1.622,0,0,0,.021.568,1.992,1.992,0,0,0,.5.781,4.161,4.161,0,0,1,.717,1,1.462,1.462,0,0,1,.048,1.2.871.871,0,0,0-.118.316c-.012.245.244.4.432.556.707.585.676,1.651.687,2.575a13,13,0,0,0,1.229,5.431,1.66,1.66,0,0,1-1.857-.242,6.257,6.257,0,0,0,.422,1.215,1.334,1.334,0,0,1-1.619-.779,13.358,13.358,0,0,1-.549-1.912c-.206-.628-.6-1.183-.771-1.816a1.745,1.745,0,0,0-.215-.608,1.544,1.544,0,0,0-.378-.321c-.616-.443.292-3.8.051-4.516-.359.077-1.018-1.653-1.394-3.412a1.777,1.777,0,0,1-.815.082.984.984,0,0,0-.292-.021.775.775,0,0,0-.254.1,6.28,6.28,0,0,1-.867.446,4.984,4.984,0,0,1-1.967.172A1.949,1.949,0,0,1,945.414,429.132Z" transform="translate(-791.535 -367.971)" fill="#3a3768"/>
    <path id="Path_312" data-name="Path 312" d="M945.414,429.132a3.755,3.755,0,0,1,1.008-1.049,3.438,3.438,0,0,1,1.818-.769,1.934,1.934,0,0,1,.817.134c.014-.81.215-1.347.719-1.267a2.861,2.861,0,0,1,2.35,1.4,4.625,4.625,0,0,1,0,2.135,1.622,1.622,0,0,0,.021.568,1.992,1.992,0,0,0,.5.781,4.161,4.161,0,0,1,.717,1,1.462,1.462,0,0,1,.048,1.2.871.871,0,0,0-.118.316c-.012.245.244.4.432.556.707.585.676,1.651.687,2.575a13,13,0,0,0,1.229,5.431,1.66,1.66,0,0,1-1.857-.242,6.257,6.257,0,0,0,.422,1.215,1.334,1.334,0,0,1-1.619-.779,13.358,13.358,0,0,1-.549-1.912c-.206-.628-.6-1.183-.771-1.816a1.745,1.745,0,0,0-.215-.608,1.544,1.544,0,0,0-.378-.321c-.616-.443.292-3.8.051-4.516-.359.077-1.018-1.653-1.394-3.412a1.777,1.777,0,0,1-.815.082.984.984,0,0,0-.292-.021.775.775,0,0,0-.254.1,6.28,6.28,0,0,1-.867.446,4.984,4.984,0,0,1-1.967.172A1.949,1.949,0,0,1,945.414,429.132Z" transform="translate(-791.535 -367.971)" fill="#3f3d56"/>
    <g id="Group_91" data-name="Group 91" transform="translate(154.12 58.197)" opacity="0.1">
      <path id="Path_313" data-name="Path 313" d="M976.574,442.114a13.026,13.026,0,0,1-1.229-5.431c0-.918.026-1.984-.687-2.575-.189-.156-.444-.311-.434-.556a.878.878,0,0,1,.12-.316,1.469,1.469,0,0,0-.048-1.2,4.162,4.162,0,0,0-.718-1,2,2,0,0,1-.5-.781,1.708,1.708,0,0,1-.021-.568,4.386,4.386,0,0,0,0-2.135,2.774,2.774,0,0,0-2.259-1.382.513.513,0,0,1,.247-.015,2.861,2.861,0,0,1,2.35,1.4,4.626,4.626,0,0,1,0,2.135,1.619,1.619,0,0,0,.021.568,1.994,1.994,0,0,0,.5.781,4.16,4.16,0,0,1,.717,1,1.462,1.462,0,0,1,.048,1.2.872.872,0,0,0-.119.316c-.012.245.244.4.433.556.707.585.676,1.651.687,2.575a13,13,0,0,0,1.229,5.431,1.606,1.606,0,0,1-.91.172A1.553,1.553,0,0,0,976.574,442.114Z" transform="translate(-966.94 -426.141)"/>
      <path id="Path_314" data-name="Path 314" d="M994.052,519.005a6.142,6.142,0,0,1-.422-1.215,1.568,1.568,0,0,0,.407.269,6.379,6.379,0,0,0,.343.946.9.9,0,0,1-.554.07.871.871,0,0,0,.226-.07Z" transform="translate(-985.851 -502.059)"/>
      <path id="Path_315" data-name="Path 315" d="M963.536,432.966a1.978,1.978,0,0,0-.546-.129h.065a1.915,1.915,0,0,1,.484.036C963.538,432.9,963.536,432.932,963.536,432.966Z" transform="translate(-960.47 -431.686)"/>
      <path id="Path_316" data-name="Path 316" d="M949.426,447.933a6.29,6.29,0,0,0,.869-.446.763.763,0,0,1,.254-.1.94.94,0,0,1,.268.015,1.084,1.084,0,0,0-.186.088,6.255,6.255,0,0,1-.867.446,3.911,3.911,0,0,1-1.454.189A3.446,3.446,0,0,0,949.426,447.933Z" transform="translate(-948.31 -443.734)"/>
      <path id="Path_317" data-name="Path 317" d="M965.82,447l.016.077a1.682,1.682,0,0,1-.426.012A1.886,1.886,0,0,0,965.82,447Z" transform="translate(-962.475 -443.42)"/>
    </g>
    <path id="Path_318" data-name="Path 318" d="M993.246,474.708a1.047,1.047,0,0,0,.281.838,1.867,1.867,0,0,0,.4.294,1.082,1.082,0,0,0,.474.172.894.894,0,0,0,.606-.264,4.032,4.032,0,0,0,.978-1.708,12.816,12.816,0,0,0,.74-2.525,21.414,21.414,0,0,1,.343-2.8c-.237-.474-.388-1-.657-1.452a6.841,6.841,0,0,1-.453-.85,2.936,2.936,0,0,1-.081-1.96.265.265,0,0,0-.312.015.657.657,0,0,0-.189.275,2.431,2.431,0,0,0-.187,1.152.459.459,0,0,1-.033.281.354.354,0,0,1-.306.129,2.716,2.716,0,0,1-.707-.127,6.552,6.552,0,0,0-2.178-.18,1.029,1.029,0,0,0-.426.1.4.4,0,0,0-.218.355l1.74.256a.719.719,0,0,1,.367.125.249.249,0,0,1,.05.343.689.689,0,0,1-.12.079.359.359,0,0,0,.014.573.368.368,0,0,1,.118.082c.072.1-.022.221-.053.343a.426.426,0,0,0,.209.434,1.532,1.532,0,0,0,.486.163,5.121,5.121,0,0,1,1,.343.546.546,0,0,1,.259.194.582.582,0,0,1-.031.487L994.9,471.1c-.072.192-.142.383-.232.568-.115.239-.257.463-.376.7a7,7,0,0,0-.283.687C993.78,473.675,993.325,474.047,993.246,474.708Z" transform="translate(-829.818 -399.641)" fill="#a1616a"/>
    <path id="Path_319" data-name="Path 319" d="M462.285,249.17v57.571a19.068,19.068,0,0,0-5.944-.917c-8.56,0-15.511,6.057-15.511,14.617s6.952,14.55,15.511,14.55,15.554-6.3,15.554-15.448V279.564h45.142v27.176a19.061,19.061,0,0,0-5.944-.917c-8.56,0-15.511,6.057-15.511,14.617s6.952,14.55,15.511,14.55,15.554-6.3,15.554-15.448V249.17Zm54.754,21.455H471.9V258.782h45.142Z" transform="translate(-373.816 -221.349)" fill="#6c63ff"/>
    <path id="Path_320" data-name="Path 320" d="M194.047,212.17v38.637a14.615,14.615,0,1,0,7.312,12.633V226.811h14.658V212.17Z" transform="translate(-151.234 -190.7)" fill="#6c63ff"/>
    <path id="Path_321" data-name="Path 321" d="M220.447,719.038a9.324,9.324,0,0,0-2.686-.951,12.291,12.291,0,0,0,2.01-.451c1.746-.553,2.626-1.294,1.965-1.656s-2.612-.209-4.358.343a6.729,6.729,0,0,0-1.674.743,3.354,3.354,0,0,0-1.437-1.248,7.269,7.269,0,0,0-4.655-.959c-1.02.323-.589,1.274.963,2.127a9.291,9.291,0,0,0,2.4.894,14.141,14.141,0,0,0-1.656.293c-1.9.457-3,1.145-2.454,1.545s2.528.343,4.428-.11a8.276,8.276,0,0,0,1.991-.7,3.206,3.206,0,0,0,1.462,1.306,7.269,7.269,0,0,0,4.655.959C222.424,720.847,221.992,719.89,220.447,719.038Z" transform="translate(-181.553 -607.017)" fill="#6c63ff"/>
    <path id="Path_322" data-name="Path 322" d="M313.271,656.633a4.548,4.548,0,0,0-1.3-.462,6.138,6.138,0,0,0,.975-.218c.848-.27,1.275-.628.954-.8a3.641,3.641,0,0,0-2.116.172,3.374,3.374,0,0,0-.812.36,1.636,1.636,0,0,0-.7-.606,3.557,3.557,0,0,0-2.261-.465c-.494.156-.285.62.467,1.03a4.5,4.5,0,0,0,1.171.433,7.016,7.016,0,0,0-.805.144c-.922.22-1.456.554-1.191.747a3.719,3.719,0,0,0,2.149-.053,4.081,4.081,0,0,0,.968-.343,1.542,1.542,0,0,0,.709.633,3.557,3.557,0,0,0,2.261.467C314.236,657.51,314.025,657.047,313.271,656.633Z" transform="translate(-263.442 -557.155)" fill="#6c63ff"/>
    <path id="Path_323" data-name="Path 323" d="M152.119,586.281a2.855,2.855,0,0,0-.82-.288,3.576,3.576,0,0,0,.614-.137c.53-.172.8-.393.6-.5a2.3,2.3,0,0,0-1.323.1,2.1,2.1,0,0,0-.515.225,1,1,0,0,0-.436-.378,2.221,2.221,0,0,0-1.414-.292c-.311.1-.172.386.294.645a2.8,2.8,0,0,0,.733.271,4.21,4.21,0,0,0-.5.091c-.577.137-.911.343-.747.467a2.331,2.331,0,0,0,1.346-.033,2.564,2.564,0,0,0,.606-.215.957.957,0,0,0,.443.4,2.224,2.224,0,0,0,1.414.292C152.715,586.831,152.59,586.541,152.119,586.281Z" transform="translate(-131.708 -499.52)" fill="#6c63ff"/>
    <path id="Path_324" data-name="Path 324" d="M229.618,212.17v12.238H214.959v36.629a14.636,14.636,0,0,1-23.719,11.481,14.638,14.638,0,0,0,26.122-9.078V226.811h14.658V212.17Z" transform="translate(-167.066 -190.7)" opacity="0.1"/>
    <path id="Path_325" data-name="Path 325" d="M173.87,220.223l.05.374,1.622.23s.132-.1.343-.235a5.042,5.042,0,0,1,1.579-.735c.85-.172,3.551-1.382,2.681-1.461s-.781.1-.781.1a1.433,1.433,0,0,0-1.95-.081,13.546,13.546,0,0,1-3.157,1.658C174.018,220.17,173.87,220.223,173.87,220.223Z" transform="translate(-152.677 -195.575)" fill="#efb7b9"/>
    <path id="Path_326" data-name="Path 326" d="M200.053,204.645a2.745,2.745,0,0,1,.778-.2.946.946,0,0,1,.74.247c.1.108.172.247.275.357.494.529,1.454.134,2.049.544a2.035,2.035,0,0,1,.609,1.16c.13.427.367.9.8.987a2.383,2.383,0,0,0,.633-.024.623.623,0,0,1,.57.209c.2.307-.077.82.216,1.04.263.194.738-.077.922.192a.4.4,0,0,1-.064.446,3.1,3.1,0,0,0-.3.374.566.566,0,0,0,.558.827c.185-.019.383-.124.544-.033a.385.385,0,0,1,.172.3.8.8,0,0,1-.717.839,1.774,1.774,0,0,1-.887-.3,1.114,1.114,0,0,0-.9-.146,1.4,1.4,0,0,0-.364.256,3.983,3.983,0,0,1-1.119.663,1.379,1.379,0,0,1-1.116.05c-.386-.2-.585-.678-.994-.824s-.875.127-1.267.359-.915.426-1.268.141c-.381-.307-.264-.923-.5-1.354a1.331,1.331,0,0,0-.372-.41c-.261-.2-.558-.352-.82-.549a1.373,1.373,0,0,1-.56-.786,1.592,1.592,0,0,1,.319-1.116,3.092,3.092,0,0,0,.525-1.056c.051-.292,0-.6.067-.884a1.09,1.09,0,0,1,.707-.747c.192-.065.227-.048.324-.218A.687.687,0,0,1,200.053,204.645Z" transform="translate(-172.38 -184.298)" fill="#3f3d56"/>
    <g id="Group_92" data-name="Group 92" transform="translate(25.277 23.748)" opacity="0.1">
      <path id="Path_327" data-name="Path 327" d="M249.456,225.44a1.461,1.461,0,0,1,.031.515A1.392,1.392,0,0,1,249.456,225.44Z" transform="translate(-240.558 -225.44)"/>
      <path id="Path_328" data-name="Path 328" d="M253.3,232.856a.562.562,0,0,0-.058.189.58.58,0,0,1,.021-.481,3.05,3.05,0,0,1,.3-.372.633.633,0,0,0,.086-.172l.014.015a.4.4,0,0,1-.062.445A3.066,3.066,0,0,0,253.3,232.856Z" transform="translate(-243.671 -230.891)"/>
      <path id="Path_329" data-name="Path 329" d="M198.209,230.83c.263.2.558.343.819.551a1.308,1.308,0,0,1,.372.41c.232.431.115,1.047.5,1.354.354.285.879.093,1.27-.141s.838-.515,1.265-.359.608.626,1,.824a1.4,1.4,0,0,0,1.116-.05,4,4,0,0,0,1.117-.663,1.477,1.477,0,0,1,.364-.257,1.111,1.111,0,0,1,.906.148,1.741,1.741,0,0,0,.886.3.807.807,0,0,0,.712-.705.515.515,0,0,1,.038.151.8.8,0,0,1-.712.844,1.783,1.783,0,0,1-.886-.294,1.13,1.13,0,0,0-.906-.148,1.516,1.516,0,0,0-.364.256,4,4,0,0,1-1.117.664,1.393,1.393,0,0,1-1.116.05c-.388-.2-.585-.678-1-.824a1.622,1.622,0,0,0-1.265.359c-.39.233-.917.426-1.27.139-.381-.307-.264-.922-.5-1.354a1.322,1.322,0,0,0-.372-.409c-.259-.2-.556-.352-.819-.551a1.373,1.373,0,0,1-.561-.786.929.929,0,0,1-.017-.206,1.435,1.435,0,0,0,.541.7Z" transform="translate(-197.668 -229.325)"/>
    </g>
    <path id="Path_330" data-name="Path 330" d="M202.029,286.044l-.589.125a1.007,1.007,0,0,0,1.474.328C203.809,285.87,202.029,286.044,202.029,286.044Z" transform="translate(-175.515 -251.876)" fill="#4c4981"/>
    <path id="Path_331" data-name="Path 331" d="M202.029,286.044l-.589.125a1.007,1.007,0,0,0,1.474.328C203.809,285.87,202.029,286.044,202.029,286.044Z" transform="translate(-175.515 -251.876)" opacity="0.1"/>
    <path id="Path_332" data-name="Path 332" d="M279.32,331.315s.817.422,1.577.911a4.253,4.253,0,0,1,1.231,1.02c.405.687,2.374,1.432,2.374,1.432l1.953,1.486a2.791,2.791,0,0,1,1.092.963c.055.076.088.124.088.124l.783-.1.412-.536s.1-1.181-.709-1.167a1.119,1.119,0,0,1-.458-.118,9.677,9.677,0,0,1-2.1-1.6s-2.08-2.6-2.7-2.685a1.028,1.028,0,0,1-.2-.05,6.38,6.38,0,0,1-1.545-1.038Z" transform="translate(-240.028 -288.264)" fill="#efb7b9"/>
    <path id="Path_333" data-name="Path 333" d="M232.114,367.049a18.621,18.621,0,0,0,1.457,4.131,6.562,6.562,0,0,1,.575,1.85l.112.858a1,1,0,0,0,.124.333,1.8,1.8,0,0,0,.11.172l1.567-.482s-.091-.36-.228-.774a3.494,3.494,0,0,0-.539-1.126c-.383-.376-.439-1.7-.439-1.7s-.319-2.551-.417-2.872a4.429,4.429,0,0,1-.172-.941c-.015-.172-.026-.367-.027-.589a12.033,12.033,0,0,0-.247-1.888l-1.828.331-.048,2.044A1.363,1.363,0,0,0,232.114,367.049Z" transform="translate(-200.89 -316.486)" fill="#efb7b9"/>
    <path id="Path_334" data-name="Path 334" d="M327.25,363.079c.055.076.088.124.088.124l.783-.1.412-.536s.1-1.181-.709-1.167a1.12,1.12,0,0,1-.458-.118c-.067.354.33.647.33.647s.172.12.125.675C327.794,362.979,327.459,363.06,327.25,363.079Z" transform="translate(-279.731 -314.216)" opacity="0.1"/>
    <path id="Path_335" data-name="Path 335" d="M326.75,355.5c.051.191.546.47.889.645.172.086.3.146.326.16.079.039.494-.422.551-.795a6.915,6.915,0,0,1,1.047-1.531,4.155,4.155,0,0,0,.367-1.45c.038-.506-.172-.548-.421-.433a1.664,1.664,0,0,0-.47.369,1.256,1.256,0,0,1-.609.316,2.982,2.982,0,0,0-.877.374c-.24.154-.474.343-.515.515-.091.366.324.674.324.674s.172.12.125.675S326.745,355.48,326.75,355.5Z" transform="translate(-279.316 -306.563)" fill="#444053"/>
    <path id="Path_336" data-name="Path 336" d="M331.93,356.143c.172.086.3.146.326.16.079.039.494-.422.551-.795a6.914,6.914,0,0,1,1.047-1.531,4.152,4.152,0,0,0,.367-1.45c.038-.506-.172-.548-.421-.433a5.714,5.714,0,0,1-.343,1.589C333.207,354.167,332.2,355.722,331.93,356.143Z" transform="translate(-283.607 -306.563)" opacity="0.1"/>
    <path id="Path_337" data-name="Path 337" d="M245.246,418.1l-.015.029a1.817,1.817,0,0,0,.11.172l1.567-.482s-.091-.36-.228-.774c-.62-.172-1.509.911-1.509.911Z" transform="translate(-211.739 -360.391)" opacity="0.1"/>
    <path id="Path_338" data-name="Path 338" d="M244.781,419.623a6.4,6.4,0,0,0,1.888.388c.448-.053.467-.261.436-.687-.01-.137-.024-.3-.033-.477-.029-.755-.333-.908-.333-.908-.5-1.3-1.931.446-1.931.446l.074.144a1.579,1.579,0,0,0-.146.712A2.078,2.078,0,0,0,244.781,419.623Z" transform="translate(-211.379 -360.75)" fill="#444053"/>
    <path id="Path_339" data-name="Path 339" d="M244.785,428.241a6.4,6.4,0,0,0,1.888.388c.448-.053.467-.261.436-.687a1.385,1.385,0,0,1-1.066.306,4.193,4.193,0,0,1-1.3-.388,2.079,2.079,0,0,0,.045.381Z" transform="translate(-211.383 -369.368)" opacity="0.1"/>
    <path id="Path_340" data-name="Path 340" d="M207.23,234.058l.515,2.231.1.46.946.12.975.124,1.061-.384a3.581,3.581,0,0,0,.051-1.766,1.119,1.119,0,0,0-.491-.647,1.089,1.089,0,0,1-.2-.158.9.9,0,0,1-.172-.245,1.014,1.014,0,0,1-.091-.355,2.537,2.537,0,0,1,.328-1.262s-2.249-.767-2.073-.271c.115.321-.2.881-.439,1.234-.129.191-.233.323-.233.323Z" transform="translate(-180.311 -206.909)" fill="#efb7b9"/>
    <circle id="Ellipse_22" data-name="Ellipse 22" cx="1.953" cy="1.953" r="1.953" transform="translate(26.994 22.383)" opacity="0.1"/>
    <circle id="Ellipse_23" data-name="Ellipse 23" cx="1.953" cy="1.953" r="1.953" transform="translate(26.986 22.311)" fill="#efb7b9"/>
    <path id="Path_341" data-name="Path 341" d="M207,251.4a4.78,4.78,0,0,0,.515,1.109l2.727.669,1.948-2.039v-.014c-.06-.191-.8-2.6-.266-3.187.563-.616.343-2.355.343-2.355s-.973-1.119-1.171-1.39-1.461-.484-1.461-.484c.064.086.122.172.172.245a2.4,2.4,0,0,1,.311.659.985.985,0,0,1-.026.716.787.787,0,0,0-.067.184c-.213.932-1.184.8-1.571.709-.1-.024-.161-.045-.161-.045l-.929.029-.584.019s.266,4.6.2,4.962A.587.587,0,0,0,207,251.4Z" transform="translate(-179.939 -216.826)" fill="#f86d70"/>
    <path id="Path_342" data-name="Path 342" d="M206.812,258.466l1.691-.221h-.031c-.1-.024-.16-.045-.16-.045l-.93.029-.582.019S206.8,258.324,206.812,258.466Z" transform="translate(-179.955 -228.829)" fill="#925978"/>
    <path id="Path_343" data-name="Path 343" d="M167.52,208.2l.733.179,1.155-.151.3-.314Z" transform="translate(-138.766 -172.219)" fill="#925978"/>
    <path id="Path_344" data-name="Path 344" d="M174.63,211.022l.331.081.136-.142Z" transform="translate(-144.656 -174.746)" fill="#925978"/>
    <path id="Path_345" data-name="Path 345" d="M207.015,248.229c.436.045.838.067.838.067l2.247-.084v-2.346a3.328,3.328,0,0,0-.906-.6c-.391-.136-.858-.551-.766-1.646a1.571,1.571,0,0,1,.019-.2,2.52,2.52,0,0,0,.021-.369,1.974,1.974,0,0,0-.623-1.445.3.3,0,0,0-.033-.029l-.366-1.7a.365.365,0,0,0-.074.01c-.129.19-.233.323-.233.323l-.269.59.515,2.231-.584.019s.266,4.6.2,4.962A.587.587,0,0,0,207.015,248.229Z" transform="translate(-179.955 -213.654)" opacity="0.1"/>
    <path id="Path_346" data-name="Path 346" d="M196.463,248.336l2.247-.082v-2.348a3.348,3.348,0,0,0-.9-.6c-.414-.144-.906-.6-.747-1.842a2.037,2.037,0,0,0-.6-1.825l-.034-.029-.366-1.7a.791.791,0,0,0-.578.331,1.452,1.452,0,0,1-.136.2.343.343,0,0,1-.451.134c-.237-.1-1.256-.536-1.485-.113a15.224,15.224,0,0,0-.271,2.937,1.921,1.921,0,0,1,.661,1.086c.156.719.417.736.417.736l.281,2.06s.256.448.065.7" transform="translate(-168.64 -213.679)" fill="#444053"/>
    <path id="Path_347" data-name="Path 347" d="M206,240.482l.383,1.147.731.064-.034-.029-.366-1.7a.791.791,0,0,0-.578.331A1.453,1.453,0,0,1,206,240.482Z" transform="translate(-179.292 -213.72)" fill="#444053"/>
    <path id="Path_348" data-name="Path 348" d="M173.87,229.994l.05.374,1.622.23s.132-.1.343-.235c-.172-.039-.978-.215-1.4-.343-.156-.048-.259-.089-.263-.117s.01-.033.036-.053C174.018,229.941,173.87,229.994,173.87,229.994Z" transform="translate(-152.677 -205.345)" opacity="0.1"/>
    <path id="Path_349" data-name="Path 349" d="M160.665,229.924a10.445,10.445,0,0,0,2.978,1.62,7.881,7.881,0,0,1,2.231,1.03l.687-2.647-.421-.29a1.465,1.465,0,0,1-.935.208c-.433-.1-.911-.172-.911-.172a7.05,7.05,0,0,0-1.165-.319c-.309-.026-.184-.427.125-.64a.67.67,0,0,1,.129-.072.4.4,0,0,0,.515.117,1.176,1.176,0,0,0,.3-.281h0a3.919,3.919,0,0,0,.343-.515s-.959-.206-1.437-.354c-.156-.048-.259-.089-.263-.117-.014-.11.858-.457.858-.457s-.745-.36-1.047-.1c0,0,.2.146.038.29s-2.06,1.608-2.06,1.608S159.693,229.3,160.665,229.924Z" transform="translate(-141.374 -202.853)" fill="#444053"/>
    <path id="Path_350" data-name="Path 350" d="M172,232.669l1.018.146a.671.671,0,0,1,.129-.072.4.4,0,0,0,.515.117,1.175,1.175,0,0,0,.3-.281h0a4.027,4.027,0,0,0,.278-.434s-.959-.206-1.437-.354Z" transform="translate(-151.128 -206.952)" opacity="0.1"/>
    <path id="Path_351" data-name="Path 351" d="M172.34,232.181l1.083.156a.4.4,0,0,0,.515.117,2.5,2.5,0,0,0,.645-.8s-.959-.206-1.437-.354Z" transform="translate(-151.41 -206.546)" fill="#444053"/>
    <path id="Path_352" data-name="Path 352" d="M281.124,330l-1.8,1.365s.817.422,1.577.911c.664-.45,1.291-.858,1.766-1.238A6.578,6.578,0,0,1,281.124,330Z" transform="translate(-240.028 -288.305)" opacity="0.1"/>
    <path id="Path_353" data-name="Path 353" d="M232.114,367.05a6.115,6.115,0,0,0,1.322-.316s.333-.072.827-.237c-.015-.172-.026-.367-.027-.589a12.03,12.03,0,0,0-.247-1.888l-1.828.331-.048,2.044A1.362,1.362,0,0,0,232.114,367.05Z" transform="translate(-200.89 -316.486)" opacity="0.1"/>
    <path id="Path_354" data-name="Path 354" d="M208.072,292.744c.367.544,1.373,2.858,1.373,2.858a9.846,9.846,0,0,0,.766,1.179,10.486,10.486,0,0,1,.98,2.539c.3.9-.089.735-.046,1.2s1.761-.137,1.761-.137,3.51-.772,4.583-2.918,5.357-4.089,6.224-5.3-.245-.709-.2-1.363a1.849,1.849,0,0,0-.451-1.2,7.024,7.024,0,0,1-1.88-.774,11.289,11.289,0,0,0-1.553-1.112,8.642,8.642,0,0,1-1.373-.711,8.88,8.88,0,0,0-2.039-.858c-.441-.1-.874-.738-.874-.738s-.273.036-.676-.355a6.754,6.754,0,0,0-2.1-.728c-2.889,2.128-4.885,1.831-4.885,1.831l-.046.4C206.1,288.564,207.7,292.2,208.072,292.744Z" transform="translate(-180.106 -250.474)" fill="#444053"/>
    <path id="Path_355" data-name="Path 355" d="M210.79,286.609s2.5.822,4.933-2.219c-2.89,2.118-4.887,1.821-4.887,1.821Z" transform="translate(-183.26 -250.524)" opacity="0.1"/>
    <path id="Path_356" data-name="Path 356" d="M235.83,305.588s3.354,4.842,3.562,5.019A51.285,51.285,0,0,0,235.83,305.588Z" transform="translate(-204.002 -268.083)" opacity="0.1"/>
    <path id="Path_357" data-name="Path 357" d="M226.8,303.43s2.322,3.6,2.276,4.092C229.076,307.522,226.834,304.056,226.8,303.43Z" transform="translate(-196.522 -266.296)" opacity="0.1"/>
    <path id="Path_358" data-name="Path 358" d="M217.876,309.2a5.569,5.569,0,0,1-.216,3.16Z" transform="translate(-188.951 -271.076)" opacity="0.1"/>
    <path id="Path_359" data-name="Path 359" d="M212.643,309.88a9.382,9.382,0,0,1-.223,2.1Z" transform="translate(-184.61 -271.639)" opacity="0.1"/>
    <path id="Path_360" data-name="Path 360" d="M196.46,213.7l3.084,1.208-1.129.148Z" transform="translate(-162.739 -177.016)" opacity="0.1"/>
    <path id="Path_361" data-name="Path 361" d="M208.4,216.385c.154.1.283.266.467.29a.735.735,0,0,0,.379-.093,1.4,1.4,0,0,1,.973-.132c.453.149.7.671,1.153.826a.822.822,0,0,0,.433.024.838.838,0,0,0,.244-.1.784.784,0,0,0,.343-.487,1.009,1.009,0,0,0-.343-.951,2.106,2.106,0,0,0-.959-.436,9.5,9.5,0,0,0-2.774-.064.4.4,0,0,0-.216.057,1.288,1.288,0,0,0-.331.81C207.836,216.361,208.374,216.189,208.4,216.385Z" transform="translate(-180.751 -193.204)" opacity="0.1"/>
    <path id="Path_362" data-name="Path 362" d="M208.35,215.961c.154.1.281.266.467.29a.726.726,0,0,0,.378-.094,1.4,1.4,0,0,1,.973-.132c.453.151.7.673,1.153.826a.807.807,0,0,0,.433.024.791.791,0,0,0,.244-.1.8.8,0,0,0,.354-.487,1.014,1.014,0,0,0-.352-.953,2.113,2.113,0,0,0-.959-.434,9.5,9.5,0,0,0-2.774-.065.409.409,0,0,0-.216.058,1.294,1.294,0,0,0-.331.81C207.787,215.944,208.324,215.762,208.35,215.961Z" transform="translate(-180.71 -192.852)" fill="#3f3d56"/>
    <path id="Path_363" data-name="Path 363" d="M281,219.564l.3,1.193.383-.232,2.08-1.255s1.576-.058,1.7-1.325-1.751-.012-1.85.084-.326.266-.326.266l-1.936,1.081Z" transform="translate(-241.419 -195.018)" fill="#efb7b9"/>
    <path id="Path_364" data-name="Path 364" d="M281,229.179l.3,1.193.383-.232a2.841,2.841,0,0,0-.343-1.15Z" transform="translate(-241.419 -204.633)" opacity="0.1"/>
    <path id="Path_365" data-name="Path 365" d="M221.18,247.523l.424,2.489,2.509-.52c-.06-.191-.8-2.6-.266-3.187.563-.616.343-2.355.343-2.355s-.973-1.119-1.171-1.39-1.461-.484-1.461-.484a1.014,1.014,0,0,1-.091-.355,1.427,1.427,0,0,0-.1.266,1,1,0,0,0,.669.994c.043.021.088.039.136.058.076.031.16.06.249.088l.041.012a1.412,1.412,0,0,1,.984.724,1.852,1.852,0,0,1,.367,1.3C223.739,245.93,221.18,247.523,221.18,247.523Z" transform="translate(-191.867 -215.178)" opacity="0.1"/>
    <path id="Path_366" data-name="Path 366" d="M222,236.876l.424,2.487,2.837-.59a5.113,5.113,0,0,0-.283-1.32,6.979,6.979,0,0,1-.158-1.869,1.985,1.985,0,0,0,.57-2.346s3.531-.573,3.591-.687a10.443,10.443,0,0,1,1.238-.741,6.626,6.626,0,0,0,1.452-.515,1.545,1.545,0,0,1,.209-.191.55.55,0,0,1,.069-.045l.094.815h.043a1.162,1.162,0,0,0,.556-.22,4.485,4.485,0,0,0-.36-2.755.326.326,0,0,0-.163,0,1.844,1.844,0,0,0-.609.33l-.05.039-.017.015a12.018,12.018,0,0,0-1.917.915,13.183,13.183,0,0,1-2.8.654s-1.114.264-1.258.1-1.845-.421-1.988-.172-.537.2-.537.2c-.28-.323-.474-.2-.592-.012a1.3,1.3,0,0,0-.151.359A1.048,1.048,0,0,0,223,232.39c.089.034.185.069.29.1a1.406,1.406,0,0,1,.984.724,1.849,1.849,0,0,1,.369,1.3C224.564,235.283,222,236.876,222,236.876Z" transform="translate(-192.546 -204.55)" fill="#444053"/>
    <path id="Path_367" data-name="Path 367" d="M277.836,229a.264.264,0,0,1,.091.01,4.491,4.491,0,0,1,.359,2.757,1.15,1.15,0,0,1-.5.215h-.043l-.094-.815a.548.548,0,0,0-.069.045v-.034a2.118,2.118,0,0,0-.4-1.811Z" transform="translate(-238.255 -204.639)" opacity="0.1"/>
    <path id="Path_368" data-name="Path 368" d="M277.833,231.069l.094.815a1.141,1.141,0,0,0,.606-.232,4.485,4.485,0,0,0-.36-2.755c-.223-.069-.616.209-.772.328A2.122,2.122,0,0,1,277.833,231.069Z" transform="translate(-238.437 -204.548)" fill="#444053"/>
    <path id="Path_369" data-name="Path 369" d="M223.975,242.441l.407-.381-1.061-1.03a1.3,1.3,0,0,0-.151.359A1.052,1.052,0,0,0,223.975,242.441Z" transform="translate(-193.515 -214.606)" fill="#444053"/>
    <path id="Path_370" data-name="Path 370" d="M208.345,219.81c.154.1.281.266.467.29a.726.726,0,0,0,.378-.094,1.4,1.4,0,0,1,.973-.132c.453.151.7.673,1.153.826a.807.807,0,0,0,.433.024.777.777,0,0,0,.616-.8.814.814,0,0,1,0,.364.8.8,0,0,1-.354.487.773.773,0,0,1-.244.1.8.8,0,0,1-.431-.024c-.453-.153-.7-.675-1.155-.826a1.406,1.406,0,0,0-.973.132.726.726,0,0,1-.378.094c-.184-.024-.312-.189-.467-.29-.026-.2-.563-.017-.63-.256a.285.285,0,0,1,0-.11C207.841,219.774,208.32,219.623,208.345,219.81Z" transform="translate(-180.725 -196.846)" opacity="0.1"/>
    <path id="Path_371" data-name="Path 371" d="M218.9,253.6s-.225.632.062.844c0,0-.314-.836-.5-.817" transform="translate(-189.622 -225.019)" opacity="0.1"/>
    <path id="Path_372" data-name="Path 372" d="M298.674,217.76s-1.45,1.255-.4,1.457S298.674,217.76,298.674,217.76Z" transform="translate(-255.412 -195.331)" fill="#efb7b9"/>
    <g id="Group_93" data-name="Group 93" transform="translate(74.321 27.821)" opacity="0.1">
      <path id="Path_373" data-name="Path 373" d="M550.073,420.25H504.931v39.982c0,9.142-6.994,15.448-15.554,15.448a17.186,17.186,0,0,1-5.977-1.049,16.742,16.742,0,0,0,8.208,2.079c8.56,0,15.554-6.3,15.554-15.448V421.28h42.911Z" transform="translate(-483.4 -390.885)"/>
      <path id="Path_374" data-name="Path 374" d="M558.42,223.885h2.231V213.07h42.914v-1.03H558.42Z" transform="translate(-536.893 -203.461)"/>
      <path id="Path_375" data-name="Path 375" d="M823.921,249.17v69.344c0,9.142-6.994,15.448-15.554,15.448a17.187,17.187,0,0,1-5.977-1.049,16.742,16.742,0,0,0,8.208,2.079c8.56,0,15.554-6.3,15.554-15.448V249.17Z" transform="translate(-747.638 -249.17)"/>
    </g>
    <path id="Path_376" data-name="Path 376" d="M627.779,126.5c1.107,2.288,2.918,4.89,4.966,3.9s3.577-5.209,2.47-7.5a4.156,4.156,0,1,0-7.436,3.6Z" transform="translate(-528.255 -114.498)" fill="#6c63ff"/>
    <path id="Path_377" data-name="Path 377" d="M650.7,180.859s.4-.067.247-.4a.606.606,0,0,0-.048-.084,1.059,1.059,0,0,1-.153-.426,1.547,1.547,0,0,1,.019-.53l-1.09-.072s.424.36.374.549a.108.108,0,0,1-.05.065.171.171,0,0,1-.072.031l-.082.024c-.287.1-.172.245-.172.245C649.708,180.735,650.7,180.859,650.7,180.859Z" transform="translate(-546.791 -163.513)" fill="#6c63ff"/>
    <path id="Path_378" data-name="Path 378" d="M651.68,182.615l.769.106a.941.941,0,0,1-.022-.118c-.2-.009-.5-.034-.7-.053A.108.108,0,0,1,651.68,182.615Z" transform="translate(-548.475 -166.164)" fill="#444053"/>
    <path id="Path_379" data-name="Path 379" d="M650.7,184.089s.4-.067.247-.4a1.236,1.236,0,0,1-.472.019,1.045,1.045,0,0,1-.63-.462c-.287.1-.172.245-.172.245C649.708,183.966,650.7,184.089,650.7,184.089Z" transform="translate(-546.791 -166.744)" fill="#6c63ff"/>
    <path id="Path_380" data-name="Path 380" d="M650.7,184.089s.4-.067.247-.4a1.236,1.236,0,0,1-.472.019,1.045,1.045,0,0,1-.63-.462c-.287.1-.172.245-.172.245C649.708,183.966,650.7,184.089,650.7,184.089Z" transform="translate(-546.791 -166.744)" opacity="0.1"/>
    <path id="Path_381" data-name="Path 381" d="M652.37,123.719s1.219-.148,1.564.664a.98.98,0,0,0-.438.026.621.621,0,0,1-.285.055A1.634,1.634,0,0,0,652.37,123.719Z" transform="translate(-549.046 -117.423)" fill="#fff" opacity="0.1"/>
    <path id="Path_382" data-name="Path 382" d="M657.733,212.811a.433.433,0,0,0,.069-.069.928.928,0,0,1,.261-.206.9.9,0,0,1,.108-.055,1.59,1.59,0,0,1,.343-.1,1.373,1.373,0,0,1,.172-.019l-.155-.738v-.01l-.067-.321a2.325,2.325,0,0,1-.155.269c-.079.12-.172.235-.275.237a.122.122,0,0,1-.077-.029.233.233,0,0,1-.048-.062c-.017-.027-.031-.051-.046-.074-.172-.247-.28-.093-.28-.093-.2.07-.276.3-.306.539a.333.333,0,0,1-.01.1,2.7,2.7,0,0,0,.017.5S657.462,213.048,657.733,212.811Z" transform="translate(-553.099 -189.971)" fill="#6c63ff"/>
    <path id="Path_383" data-name="Path 383" d="M661.536,214.839a.912.912,0,0,1,.108-.055c-.038-.16-.084-.4-.117-.589v-.039a.117.117,0,0,0-.01-.057.122.122,0,0,1-.077-.029l.017.115v.046Z" transform="translate(-556.56 -192.274)" fill="#444053"/>
    <path id="Path_384" data-name="Path 384" d="M657.733,213.782a1.237,1.237,0,0,1-.144-.45.969.969,0,0,1,.033-.285c.009-.027.015-.055.026-.081a.837.837,0,0,1,.216-.364c-.172-.247-.28-.093-.28-.093-.2.07-.276.3-.306.539a.333.333,0,0,1-.01.1,2.7,2.7,0,0,0,.017.5S657.462,214.019,657.733,213.782Z" transform="translate(-553.1 -190.942)" fill="#6c63ff"/>
    <path id="Path_385" data-name="Path 385" d="M657.733,213.782a1.237,1.237,0,0,1-.144-.45.969.969,0,0,1,.033-.285c.009-.027.015-.055.026-.081a.837.837,0,0,1,.216-.364c-.172-.247-.28-.093-.28-.093-.2.07-.276.3-.306.539a.333.333,0,0,1-.01.1,2.7,2.7,0,0,0,.017.5S657.462,214.019,657.733,213.782Z" transform="translate(-553.1 -190.942)" opacity="0.1"/>
    <path id="Path_386" data-name="Path 386" d="M605.94,141.589a12.575,12.575,0,0,0,3.012,1.478,3.7,3.7,0,0,0,2.156.113,1.975,1.975,0,0,0,.731-.422,2.08,2.08,0,0,0,.369-.439,6.178,6.178,0,0,0,.137-4.856,5.338,5.338,0,0,0-1.945-2.829,4.155,4.155,0,1,0-4.461,6.955Z" transform="translate(-508.73 -125.813)" fill="#6c63ff"/>
    <path id="Path_387" data-name="Path 387" d="M605.94,141.589a12.575,12.575,0,0,0,3.012,1.478,3.7,3.7,0,0,0,2.156.113,1.975,1.975,0,0,0,.731-.422,2.08,2.08,0,0,0,.369-.439,6.178,6.178,0,0,0,.137-4.856,5.338,5.338,0,0,0-1.945-2.829,4.155,4.155,0,1,0-4.461,6.955Z" transform="translate(-508.73 -125.813)" opacity="0.1"/>
    <path id="Path_388" data-name="Path 388" d="M645.557,186.206c.273.381,1.177-.027,1.177-.027s.307-.264,0-.465a.732.732,0,0,0-.084-.048.958.958,0,0,1-.273-.194c-.027-.027-.055-.057-.081-.088a1.605,1.605,0,0,1-.192-.3,1.291,1.291,0,0,1-.067-.16l-.968.515a2.2,2.2,0,0,1,.3.074c.139.045.276.11.3.2a.108.108,0,0,1,0,.082.2.2,0,0,1-.046.064.843.843,0,0,0-.057.064C645.377,186.146,645.557,186.206,645.557,186.206Z" transform="translate(-542.999 -168.127)" fill="#6c63ff"/>
    <path id="Path_389" data-name="Path 389" d="M648.58,188.07l.709-.312c-.027-.027-.055-.057-.081-.088-.172.093-.445.232-.621.318A.108.108,0,0,1,648.58,188.07Z" transform="translate(-545.907 -170.405)" fill="#444053"/>
    <path id="Path_390" data-name="Path 390" d="M647.535,190.033c.273.381,1.177-.027,1.177-.027s.307-.264,0-.465a1.186,1.186,0,0,1-.393.261,1.045,1.045,0,0,1-.776-.064C647.355,189.973,647.535,190.033,647.535,190.033Z" transform="translate(-544.977 -171.954)" fill="#6c63ff"/>
    <path id="Path_391" data-name="Path 391" d="M647.535,190.033c.273.381,1.177-.027,1.177-.027s.307-.264,0-.465a1.186,1.186,0,0,1-.393.261,1.045,1.045,0,0,1-.776-.064C647.355,189.973,647.535,190.033,647.535,190.033Z" transform="translate(-544.977 -171.954)" opacity="0.1"/>
    <path id="Path_392" data-name="Path 392" d="M618.28,137.065s.963-.76,1.68-.249a.989.989,0,0,0-.359.251.624.624,0,0,1-.216.2A1.636,1.636,0,0,0,618.28,137.065Z" transform="translate(-520.808 -128.134)" fill="#fff" opacity="0.1"/>
    <g id="Group_94" data-name="Group 94" transform="translate(106.39 15.869)" opacity="0.1">
      <path id="Path_393" data-name="Path 393" d="M676.738,180.609l-.223-1.069a2.068,2.068,0,0,1-.154.269,1.932,1.932,0,0,0,.206.82A1.2,1.2,0,0,1,676.738,180.609Z" transform="translate(-675.308 -179.54)"/>
      <path id="Path_394" data-name="Path 394" d="M670.707,181.063a.515.515,0,0,0,.069-.069.959.959,0,0,1,.261-.208.909.909,0,0,1,.108-.055,1.47,1.47,0,0,1,.343-.1,1.2,1.2,0,0,1,.172-.021l-.223-1.069a2.054,2.054,0,0,1-.154.269c-.079.12-.18.237-.275.239a.125.125,0,0,1-.076-.031.211.211,0,0,1-.053-.055c-.015-.027-.031-.051-.045-.074-.172-.247-.282-.091-.282-.091-.441.16-.3,1.14-.3,1.14S670.431,181.3,670.707,181.063Z" transform="translate(-670.232 -179.54)"/>
      <path id="Path_395" data-name="Path 395" d="M674.423,183.072a.92.92,0,0,1,.108-.055c-.045-.187-.1-.491-.135-.687a.125.125,0,0,1-.076-.031Z" transform="translate(-673.618 -181.826)"/>
      <path id="Path_396" data-name="Path 396" d="M670.732,182.037a1.258,1.258,0,0,1-.144-.451,1.054,1.054,0,0,1,.276-.729c-.172-.247-.282-.091-.282-.091-.441.16-.3,1.14-.3,1.14S670.456,182.272,670.732,182.037Z" transform="translate(-670.257 -180.514)"/>
      <path id="Path_397" data-name="Path 397" d="M670.732,182.037a1.258,1.258,0,0,1-.144-.451,1.054,1.054,0,0,1,.276-.729c-.172-.247-.282-.091-.282-.091-.441.16-.3,1.14-.3,1.14S670.456,182.272,670.732,182.037Z" transform="translate(-670.257 -180.514)" opacity="0.1"/>
    </g>
    <path id="Path_398" data-name="Path 398" d="M669.9,179.831a.432.432,0,0,0,.069-.069.958.958,0,0,1,.261-.206.92.92,0,0,1,.108-.055,1.471,1.471,0,0,1,.343-.1,1.2,1.2,0,0,1,.172-.021l-.223-1.069a2.2,2.2,0,0,1-.154.27c-.079.12-.172.237-.275.237a.113.113,0,0,1-.076-.029.237.237,0,0,1-.05-.062c-.016-.027-.031-.052-.045-.074-.172-.247-.281-.093-.281-.093-.441.161-.3,1.141-.3,1.141S669.628,180.068,669.9,179.831Z" transform="translate(-563.18 -162.652)" fill="#6c63ff"/>
    <path id="Path_399" data-name="Path 399" d="M673.6,181.851a.916.916,0,0,1,.108-.055c-.045-.187-.1-.491-.135-.687a.114.114,0,0,1-.076-.029Z" transform="translate(-566.549 -164.946)" fill="#444053"/>
    <path id="Path_400" data-name="Path 400" d="M669.954,180.8a1.237,1.237,0,0,1-.144-.45,1.054,1.054,0,0,1,.285-.729c-.172-.247-.281-.093-.281-.093-.441.161-.3,1.141-.3,1.141S669.677,181.039,669.954,180.8Z" transform="translate(-563.23 -163.623)" fill="#6c63ff"/>
    <path id="Path_401" data-name="Path 401" d="M669.954,180.8a1.237,1.237,0,0,1-.144-.45,1.054,1.054,0,0,1,.285-.729c-.172-.247-.281-.093-.281-.093-.441.161-.3,1.141-.3,1.141S669.677,181.039,669.954,180.8Z" transform="translate(-563.23 -163.623)" opacity="0.1"/>
    <g id="Group_95" data-name="Group 95" transform="translate(105.394 13.78)" opacity="0.1">
      <path id="Path_402" data-name="Path 402" d="M666.337,167.65a1.959,1.959,0,0,0,.793.294,1.448,1.448,0,0,1,.079-.154l-1.009-.419A2.064,2.064,0,0,1,666.337,167.65Z" transform="translate(-665.897 -167.37)"/>
      <path id="Path_403" data-name="Path 403" d="M665.231,169.148s.4.067.362-.3a.549.549,0,0,0-.019-.1.949.949,0,0,1-.024-.331.927.927,0,0,1,.017-.12,1.652,1.652,0,0,1,.189-.5l-1.009-.419a2.057,2.057,0,0,1,.141.276c.055.134.093.283.041.36a.119.119,0,0,1-.069.046.182.182,0,0,1-.077,0H664.7c-.3,0-.234.172-.234.172C664.337,168.713,665.231,169.148,665.231,169.148Z" transform="translate(-664.447 -167.387)"/>
      <path id="Path_404" data-name="Path 404" d="M666.8,171.141l.687.343a.9.9,0,0,1,.017-.12c-.182-.07-.463-.2-.642-.275A.118.118,0,0,1,666.8,171.141Z" transform="translate(-666.394 -170.451)"/>
      <path id="Path_405" data-name="Path 405" d="M665.217,172.469s.4.067.362-.3a1.236,1.236,0,0,1-.453-.134,1.058,1.058,0,0,1-.448-.64c-.3,0-.233.172-.233.172C664.323,172.035,665.217,172.469,665.217,172.469Z" transform="translate(-664.434 -170.708)"/>
      <path id="Path_406" data-name="Path 406" d="M665.217,172.469s.4.067.362-.3a1.236,1.236,0,0,1-.453-.134,1.058,1.058,0,0,1-.448-.64c-.3,0-.233.172-.233.172C664.323,172.035,665.217,172.469,665.217,172.469Z" transform="translate(-664.434 -170.708)" opacity="0.1"/>
    </g>
    <path id="Path_407" data-name="Path 407" d="M664.79,168.509s.4.067.362-.294a.516.516,0,0,0-.019-.1.962.962,0,0,1-.024-.333.88.88,0,0,1,.017-.118,1.4,1.4,0,0,1,.11-.343,1.418,1.418,0,0,1,.079-.154l-1.009-.421a2.056,2.056,0,0,1,.137.28c.055.136.093.283.041.362a.123.123,0,0,1-.069.045.211.211,0,0,1-.077,0h-.088c-.3,0-.234.172-.234.172C663.9,168.077,664.79,168.509,664.79,168.509Z" transform="translate(-558.686 -153.076)" fill="#6c63ff"/>
    <path id="Path_408" data-name="Path 408" d="M666.39,170.53l.687.343a.891.891,0,0,1,.017-.118c-.182-.07-.464-.2-.642-.275a.123.123,0,0,1-.062.05Z" transform="translate(-560.66 -156.166)" fill="#444053"/>
    <path id="Path_409" data-name="Path 409" d="M664.79,171.848s.4.067.362-.294a1.278,1.278,0,0,1-.453-.136,1.054,1.054,0,0,1-.448-.639c-.3,0-.233.172-.233.172C663.9,171.415,664.79,171.848,664.79,171.848Z" transform="translate(-558.686 -156.414)" fill="#6c63ff"/>
    <path id="Path_410" data-name="Path 410" d="M664.79,171.848s.4.067.362-.294a1.278,1.278,0,0,1-.453-.136,1.054,1.054,0,0,1-.448-.639c-.3,0-.233.172-.233.172C663.9,171.415,664.79,171.848,664.79,171.848Z" transform="translate(-558.686 -156.414)" opacity="0.1"/>
    <path id="Path_411" data-name="Path 411" d="M644.48,196.7a2.138,2.138,0,0,1,.156-.268c.082-.12.184-.235.276-.235a.108.108,0,0,1,.077.031.224.224,0,0,1,.048.06c.016.029.031.053.045.076.172.251.282.094.282.094.443-.154.309-1.138.309-1.138s-.172-.369-.446-.136a.63.63,0,0,0-.07.067,1.1,1.1,0,0,1-.371.259,1.546,1.546,0,0,1-.343.1,1.092,1.092,0,0,1-.172.019Z" transform="translate(-542.337 -176.567)" fill="#6c63ff"/>
    <path id="Path_412" data-name="Path 412" d="M647.387,197.89a.108.108,0,0,1,.077.031l-.1-.771a.9.9,0,0,1-.108.053C647.3,197.392,647.356,197.7,647.387,197.89Z" transform="translate(-544.813 -178.258)" fill="#444053"/>
    <path id="Path_413" data-name="Path 413" d="M649,196.366c.172.251.282.094.282.094.443-.154.309-1.138.309-1.138s-.172-.369-.446-.136a1.2,1.2,0,0,1,.137.451A1.041,1.041,0,0,1,649,196.366Z" transform="translate(-546.255 -176.567)" fill="#6c63ff"/>
    <path id="Path_414" data-name="Path 414" d="M649,196.366c.172.251.282.094.282.094.443-.154.309-1.138.309-1.138s-.172-.369-.446-.136a1.2,1.2,0,0,1,.137.451A1.041,1.041,0,0,1,649,196.366Z" transform="translate(-546.255 -176.567)" opacity="0.1"/>
    <path id="Path_415" data-name="Path 415" d="M636,193.385a3.355,3.355,0,0,0,.515-1.716c.082-.12.184-.235.276-.235a.108.108,0,0,1,.077.031.224.224,0,0,1,.048.06c.015.029.031.053.045.076.172.251.282.094.282.094.443-.154.309-1.138.309-1.138s-.172-.369-.446-.136a.634.634,0,0,0-.07.067,1.1,1.1,0,0,1-.371.259,1.549,1.549,0,0,1-.343.1,2.31,2.31,0,0,0-.318-.477,3.915,3.915,0,0,0-1.528-1.008A8.053,8.053,0,0,0,636,193.385Z" transform="translate(-534.227 -171.805)" opacity="0.1"/>
    <path id="Path_416" data-name="Path 416" d="M657.39,165.764a2.976,2.976,0,0,0,.369-.082,3.238,3.238,0,0,0,.328-.113l.07-.029c.091-.039.184-.082.276-.13s.139-.072.209-.112a7.787,7.787,0,0,0,3.141-3.807,4.993,4.993,0,0,0,.307-1.308,3.513,3.513,0,0,0-.01-.712,5.027,5.027,0,0,0-.638-1.924c-.038-.063-.074-.124-.113-.182a4.1,4.1,0,0,0-3.836-1.964,4.176,4.176,0,0,0,1.474,2.211c.055.136.093.283.041.362a.124.124,0,0,1-.069.045.211.211,0,0,1-.077,0h-.088c-.3,0-.233.172-.233.172-.118.455.772.889.772.889s.4.067.362-.294a.53.53,0,0,0-.019-.1.958.958,0,0,1-.024-.333.9.9,0,0,1,.017-.118,1.4,1.4,0,0,1,.11-.343,2.205,2.205,0,0,0,.573,0,3.045,3.045,0,0,0,.783-.213c-.036.057-.069.113-.1.172a3.368,3.368,0,0,0-.515,1.716c-.079.12-.172.237-.275.237a.114.114,0,0,1-.076-.029.237.237,0,0,1-.05-.062c-.016-.027-.031-.051-.045-.074-.172-.247-.281-.093-.281-.093-.441.161-.3,1.141-.3,1.141s.172.367.448.13a.43.43,0,0,0,.069-.069.959.959,0,0,1,.261-.206.913.913,0,0,1,.108-.055,1.472,1.472,0,0,1,.343-.1,2.189,2.189,0,0,0,.321.475l.069.074-.024.022a13.552,13.552,0,0,0-1.522,1.62,6.066,6.066,0,0,0-.391.546q-.127.194-.237.386a3.376,3.376,0,0,0-.5,1.716c-.079.12-.172.235-.275.237a.122.122,0,0,1-.077-.029.233.233,0,0,1-.048-.062c-.017-.027-.031-.051-.046-.074-.172-.247-.28-.093-.28-.093A.648.648,0,0,0,657.39,165.764Z" transform="translate(-553.205 -143.658)" opacity="0.1"/>
    <g id="Group_96" data-name="Group 96" transform="translate(100.108 11.657)" opacity="0.1">
      <path id="Path_417" data-name="Path 417" d="M666.1,161.147a.618.618,0,0,0,.288.039,1,1,0,0,1,.422.117c-.065-.879-1.267-1.133-1.267-1.133a1.63,1.63,0,0,1,.556.977Z" transform="translate(-660.064 -159.283)"/>
      <path id="Path_418" data-name="Path 418" d="M633.673,160.063c.022.172.046.359.076.541a3.7,3.7,0,0,0,2.156.113c.139.045.276.11.3.2a.108.108,0,0,1,0,.082.2.2,0,0,1-.046.063c-.02.02-.039.041-.057.064-.192.235-.012.3-.012.3.273.381,1.177-.027,1.177-.027s.307-.264,0-.465a.726.726,0,0,0-.084-.048.958.958,0,0,1-.273-.194c-.027-.027-.055-.057-.081-.088a1.612,1.612,0,0,1-.192-.3,2.087,2.087,0,0,0,.369-.439,6.178,6.178,0,0,0,.137-4.856A4.4,4.4,0,0,0,633.673,160.063Z" transform="translate(-633.634 -155)"/>
      <path id="Path_419" data-name="Path 419" d="M645.321,212.269a1.957,1.957,0,0,0,.791.3,1.249,1.249,0,0,1,.081-.154L645.18,212A2.36,2.36,0,0,1,645.321,212.269Z" transform="translate(-643.198 -202.216)"/>
      <path id="Path_420" data-name="Path 420" d="M644.213,213.749s.4.069.362-.294a.514.514,0,0,0-.017-.1.962.962,0,0,1-.024-.333.85.85,0,0,1,.015-.118,1.544,1.544,0,0,1,.11-.343,1.241,1.241,0,0,1,.081-.154l-1.011-.41a2.369,2.369,0,0,1,.137.278c.053.136.091.285.039.362a.113.113,0,0,1-.067.046.227.227,0,0,1-.079,0,.782.782,0,0,0-.086,0c-.3,0-.235.172-.235.172C643.322,213.316,644.213,213.749,644.213,213.749Z" transform="translate(-641.747 -202.216)"/>
      <path id="Path_421" data-name="Path 421" d="M645.82,215.76l.687.343a.447.447,0,0,1,.015-.118c-.18-.07-.463-.2-.642-.275A.115.115,0,0,1,645.82,215.76Z" transform="translate(-643.728 -205.29)"/>
      <path id="Path_422" data-name="Path 422" d="M644.212,217.038s.4.067.362-.3a1.219,1.219,0,0,1-.453-.134,1.047,1.047,0,0,1-.448-.638c-.3,0-.235.172-.235.172C643.319,216.605,644.212,217.038,644.212,217.038Z" transform="translate(-641.746 -205.505)"/>
      <path id="Path_423" data-name="Path 423" d="M644.212,217.038s.4.067.362-.3a1.219,1.219,0,0,1-.453-.134,1.047,1.047,0,0,1-.448-.638c-.3,0-.235.172-.235.172C643.319,216.605,644.212,217.038,644.212,217.038Z" transform="translate(-641.746 -205.505)" opacity="0.1"/>
      <path id="Path_424" data-name="Path 424" d="M666.1,161.147a.618.618,0,0,0,.288.039,1,1,0,0,1,.422.117c-.065-.879-1.267-1.133-1.267-1.133a1.63,1.63,0,0,1,.556.977Z" transform="translate(-660.064 -159.283)" opacity="0.1"/>
    </g>
    <path id="Path_425" data-name="Path 425" d="M635.111,160.7c.311,2.523,1.181,5.568,3.445,5.288s5.067-3.776,4.756-6.3a4.156,4.156,0,1,0-8.2,1.013Z" transform="translate(-534.717 -143.843)" fill="#6c63ff"/>
    <path id="Path_426" data-name="Path 426" d="M645.629,214.518s.4.069.362-.294a.776.776,0,0,0-.017-.1.921.921,0,0,1-.026-.333.683.683,0,0,1,.017-.118,1.545,1.545,0,0,1,.19-.5l-1.009-.421s.285.479.172.642a.118.118,0,0,1-.069.046.263.263,0,0,1-.077,0h-.086c-.3,0-.235.172-.235.172C644.739,214.087,645.629,214.518,645.629,214.518Z" transform="translate(-542.81 -191.189)" fill="#6c63ff"/>
    <path id="Path_427" data-name="Path 427" d="M647.25,216.54l.687.343a.676.676,0,0,1,.017-.118c-.182-.07-.463-.2-.642-.275A.118.118,0,0,1,647.25,216.54Z" transform="translate(-544.805 -194.278)" fill="#444053"/>
    <path id="Path_428" data-name="Path 428" d="M645.65,217.848s.4.069.362-.294a1.2,1.2,0,0,1-.453-.136,1.04,1.04,0,0,1-.446-.639c-.3,0-.235.172-.235.172C644.759,217.417,645.65,217.848,645.65,217.848Z" transform="translate(-542.831 -194.519)" fill="#6c63ff"/>
    <path id="Path_429" data-name="Path 429" d="M645.65,217.848s.4.069.362-.294a1.2,1.2,0,0,1-.453-.136,1.04,1.04,0,0,1-.446-.639c-.3,0-.235.172-.235.172C644.759,217.417,645.65,217.848,645.65,217.848Z" transform="translate(-542.831 -194.519)" opacity="0.1"/>
    <path id="Path_430" data-name="Path 430" d="M667,161s1.2.254,1.267,1.133a.986.986,0,0,0-.424-.115.625.625,0,0,1-.287-.041A1.643,1.643,0,0,0,667,161Z" transform="translate(-561.165 -148.313)" fill="#fff" opacity="0.1"/>
    <path id="Path_431" data-name="Path 431" d="M644.055,218.1a.731.731,0,0,1,.651.9c-.151.506-.772.666-1.177,1a2.064,2.064,0,0,0-.649,1.406,3.447,3.447,0,0,0,.99,2.726c.364.359.8.633,1.162,1a5.935,5.935,0,0,1,1,1.531,3.584,3.584,0,0,1,.445,1.287,3.034,3.034,0,0,1-.738,1.994,13.656,13.656,0,0,0-1.291,1.747,3.672,3.672,0,0,0-.211,2.878.373.373,0,0,0,.122.192.136.136,0,0,0,.2-.043" transform="translate(-541.174 -195.612)" fill="none" stroke="#444053" stroke-miterlimit="10" stroke-width="1"/>
    <path id="Path_432" data-name="Path 432" d="M645.266,217.36a.343.343,0,0,1,.015.436.53.53,0,0,1-.419.194c-.194,0-.41-.06-.57.053a.493.493,0,0,0-.172.372,1.906,1.906,0,0,1-.043.421.838.838,0,0,1-.185.3.929.929,0,0,1-.343.251c-.287.112-.618.01-.911.1a1.279,1.279,0,0,0-.711.927,2.668,2.668,0,0,0-.084,1.438,4.981,4.981,0,0,0,.39.882,2,2,0,0,1,.254.92.844.844,0,0,1-.484.772" transform="translate(-540.276 -194.999)" fill="none" stroke="#444053" stroke-miterlimit="10" stroke-width="1"/>
    <path id="Path_433" data-name="Path 433" d="M551.582,276.874c-.462.614-.637,1.6-1.392,1.746a1.73,1.73,0,0,1-1.124-.316,8.016,8.016,0,0,0-2.575-1.059,2.782,2.782,0,0,0-2.557.771c-.414.484-.584,1.133-.947,1.655a3.4,3.4,0,0,1-1.922,1.263,7.867,7.867,0,0,1-2.331.2,1.267,1.267,0,0,1-.822-.223,2,2,0,0,1-.343-.524,2.29,2.29,0,0,0-1.835-1.014,4.823,4.823,0,0,0-2.115.448,2.255,2.255,0,0,1-1.054.266,1.932,1.932,0,0,1-1.212-.867,17.167,17.167,0,0,1-2.082-3.388" transform="translate(-447.076 -243.433)" fill="none" stroke="#444053" stroke-miterlimit="10" stroke-width="1"/>
    <path id="Path_434" data-name="Path 434" d="M497.87,329.171c.184-.668.3-1.255.3-1.255a2.626,2.626,0,0,1,.343-1.272l.009-.184h0l.051-1.354a4.555,4.555,0,0,0-.314-.723,5.284,5.284,0,0,1,.077-1.986,8.767,8.767,0,0,0,.822-3.567c-.167-1.4,2.094-6.124,2.094-6.124a6.07,6.07,0,0,0-.143-1.373,1.168,1.168,0,0,1-.015-.288v-.024a10.719,10.719,0,0,1,.858-2.616l.029-3.289a9.667,9.667,0,0,1,.469-4.53c.3-.9.5-1.617.625-2.173.015-.064.029-.124.041-.182-1.545-.3-2.733-.542-2.733-.542s1.049-3.747,1.686-4.385a8.693,8.693,0,0,0,1.2-2.7s.421-2.659-.063-3.459a5.158,5.158,0,0,1-.5-2.158s-1.14-.9-1.272-1.28a6.271,6.271,0,0,1-.326-1.694c.017-.45.172-.846.139-1.083s.386-1.123.206-1.555a1.2,1.2,0,0,1-.062-.414v-.012a5.752,5.752,0,0,1,.146-1.105,3.131,3.131,0,0,1,1.184-.575l.029-.1.076-.263c.041-.026.081-.046.118-.065v-.1l.026-.384-.151-.87c-.3-1.514,1.716-1.662,1.716-1.662a1.054,1.054,0,0,1,.587-.475c.409-.127-.021,2.261-.215,2.4a9.318,9.318,0,0,0-.838,1.2h0l-.038.06a.834.834,0,0,1,.089.1l-.1.515-.015.079a2.168,2.168,0,0,1,.3.558,1.163,1.163,0,0,0-.326.841,2.653,2.653,0,0,1-.161,1.03c.022-.022.292-.292.546-.215s.966.321.966.321.534.117.481.232.343.652.343.652l1.5-1.291c.015-.041.033-.081.046-.124a3.378,3.378,0,0,0,.149-.594,3.292,3.292,0,0,1-.457-.172.992.992,0,0,1-.39-.271,1.545,1.545,0,0,1-.208-.632,8.911,8.911,0,0,0-.491-1.215,3.894,3.894,0,0,1-.206-2.158,1.417,1.417,0,0,1,.247-.62c.247-.316.687-.431,1-.676s.537-.635.906-.815a1.731,1.731,0,0,1,1.1-.052,5.887,5.887,0,0,1,2.018.822,1.042,1.042,0,0,0,.675.251.908.908,0,0,0,.515-.343v-.019l.015-.019a2.547,2.547,0,0,1,.184,1.09.728.728,0,0,1-.014.172v.06a.242.242,0,0,0,0,.05h0a.292.292,0,0,0,0,.077.553.553,0,0,0,.127.2,1.037,1.037,0,0,1,.112.172.2.2,0,0,0-.017-.06.858.858,0,0,1,.132.462.46.46,0,0,1-.12.321,1.491,1.491,0,0,1-.244.18,2.746,2.746,0,0,1-1.428,2.813c-.017.039-.036.081-.053.122a3.451,3.451,0,0,0-.323,1.565.338.338,0,0,0,.014.115.745.745,0,0,1,.048.062h0s2.382.115,2.964-.372,1.373,1.3,1.373,1.3.85.2,1.03.039,1.174.021,1.174.021a2.151,2.151,0,0,1,1.51-.486,4.412,4.412,0,0,1,1.117-.566h.027a1.234,1.234,0,0,1,.539-.048,10.992,10.992,0,0,0,1.572-1.43c.362-.506,2.06-2.376,2.073-2.382l.009-.094.029-.28a1.048,1.048,0,0,0,.146.019c.01-.027.022-.06.038-.1a5.109,5.109,0,0,1,.376-.781s.014-.355-.088-.448a6.015,6.015,0,0,1,.1-1.389s1.15-2.429,2.027-.549c0,0,1.742,1.263.187,2.6,0,0-.609.266-.7.493-.062.148-.281.558-.427.829-.026.045-.048.086-.067.122l.017.015-.031.23-.014.089c.278.172.463.343.412.458a2.636,2.636,0,0,0-.2.632,17.029,17.029,0,0,0-2.489,3.622s-5.7,3.09-7.537,3.261l.254,1.667s.058,1,.021,1.351.144,1.972.144,1.972a13.109,13.109,0,0,0,.482,2.717,4.542,4.542,0,0,1,.153,1.758,11.857,11.857,0,0,0,.29,2.024,5.179,5.179,0,0,1,0,2.013s.846,2.164-1.32.635c0,0-1.09-.11-2.345-.2v.127c0,.161,0,.343-.014.515-.029,1.22-.088,2.9-.191,4.169-.185,2.242-1.04,6.66-1.04,6.66l-.086,2.231a2.911,2.911,0,0,1,.039.64,4.148,4.148,0,0,1-.687,2.212l-.263,1.474a5.834,5.834,0,0,0-.47,1.545.729.729,0,0,0,.012.142,1.047,1.047,0,0,1,.01.23,12.6,12.6,0,0,1-.472,2.279s-.088,1.631-.343,1.716c-.211.074.244.951.379,1.2a.466.466,0,0,0,.01-.046l.029.051a1.155,1.155,0,0,1,.06.415.594.594,0,0,1-.294.563c-.475.264-.733.493-.343.6.149.043.309.058.427.108,0-.019.015-.038.022-.055a.261.261,0,0,1,.149.294,1.2,1.2,0,0,1-.172.548,5.864,5.864,0,0,1-.707,1.179l-.187-.027a.919.919,0,0,0,.1.206.794.794,0,0,0,.266.256.858.858,0,0,0,.33.127.943.943,0,0,1,.687.364.72.72,0,0,1-.129,1.117l-1.77.536s-3.021.275-2.836-.393.305-1.255.305-1.255a2.667,2.667,0,0,1,.3-1.174,1.237,1.237,0,0,1,.113-.172l-.106-.017a5.5,5.5,0,0,0-.445-1.792c-.065-.069-.079-.12-.06-.158-.027-.082.05-.127.149-.149a.258.258,0,0,0,.019.058,1.56,1.56,0,0,1,.294-.021s.129-.776-.172-1.073a.3.3,0,0,1-.053-.233,1.273,1.273,0,0,1,.046-.318l.01.019a11.5,11.5,0,0,1,.771-1.806,2.228,2.228,0,0,0-.132-1,24.991,24.991,0,0,1,.172-3.853,12.2,12.2,0,0,1,.244-2.525,2.886,2.886,0,0,0-.2-1.759v-.051a.036.036,0,0,0,0-.012l.039-.271v.017c.067-.455.192-1.279.275-1.66.118-.539.1-3.145.1-3.145l-.4-1.129-.858,1.888-.923,2.511a2.181,2.181,0,0,0-.463,1.069v.081a1.413,1.413,0,0,1,0,.172,1.517,1.517,0,0,1-.288.9,3.941,3.941,0,0,1-.62,1.492,1.354,1.354,0,0,0-.376.884,15.812,15.812,0,0,1-.687,2.034,3.118,3.118,0,0,0-.218,1.183h0v.064s-.082.623-.1,1.15v.173a1.9,1.9,0,0,0,.034.427v-.064a4.443,4.443,0,0,1,.084,1.1,2.8,2.8,0,0,1-.536,1.792c-.687.731-1.1.621-1.1.621s.281.958.664,1.162a.173.173,0,0,1,.041.027.1.1,0,0,1,.012-.055.462.462,0,0,1,.1.357,2.519,2.519,0,0,1-.539,1.383.773.773,0,0,1-.343.18l.06.041c.048.027.091.05.132.069a.63.63,0,0,0,.2.058.932.932,0,0,1,.687.364.719.719,0,0,1-.127,1.117l-1.771.536S497.685,329.838,497.87,329.171Z" transform="translate(-421.059 -240.546)" fill="url(#linear-gradient-2)"/>
    <path id="Path_435" data-name="Path 435" d="M551.245,596.264l1.716-.537a.739.739,0,0,0,.125-1.119.9.9,0,0,0-.656-.362.813.813,0,0,1-.319-.127.764.764,0,0,1-.257-.256,1.247,1.247,0,0,1-.172-.661s-1.837-.615-2.365-.091a1.4,1.4,0,0,0-.237.321,2.746,2.746,0,0,0-.283,1.188s-.117.585-.3,1.255S551.245,596.264,551.245,596.264Z" transform="translate(-463 -506.08)" fill="#2d293d"/>
    <path id="Path_436" data-name="Path 436" d="M503.182,589.6l1.716-.537a.738.738,0,0,0,.125-1.117.889.889,0,0,0-.657-.362.674.674,0,0,1-.191-.06.864.864,0,0,1-.127-.069,1.073,1.073,0,0,1-.436-.908s-1.835-.614-2.364-.091a1.36,1.36,0,0,0-.187.235,2.683,2.683,0,0,0-.333,1.274s-.118.587-.3,1.255S503.182,589.6,503.182,589.6Z" transform="translate(-423.181 -500.563)" fill="#2d293d"/>
    <path id="Path_437" data-name="Path 437" d="M552.147,593.109a1.4,1.4,0,0,0-.237.321h0l2.77.429a1.248,1.248,0,0,1-.172-.661S552.675,592.585,552.147,593.109Z" transform="translate(-465.829 -506.078)" opacity="0.1"/>
    <path id="Path_438" data-name="Path 438" d="M504.081,586.677l-.021.515c.405.731,2.5.656,3.126.321a.859.859,0,0,1-.127-.069,1.062,1.062,0,0,1-.434-.9s-1.835-.614-2.364-.091A1.358,1.358,0,0,0,504.081,586.677Z" transform="translate(-426.193 -500.563)" opacity="0.1"/>
    <path id="Path_439" data-name="Path 439" d="M502.366,442.952a4.569,4.569,0,0,1,.3.723l-.072,1.867c.443.8,2.918.633,3.261.22s.745-1.51.374-1.716-.642-1.162-.642-1.162.4.11,1.066-.621a3.915,3.915,0,0,0,.439-2.825,8.362,8.362,0,0,1,.069-1.749,3.5,3.5,0,0,1,.213-1.246,15.541,15.541,0,0,0,.671-2.036,1.392,1.392,0,0,1,.366-.886,4.038,4.038,0,0,0,.6-1.492,1.544,1.544,0,0,0,.276-1.008,2.06,2.06,0,0,1,.45-1.214l.9-2.523.831-1.888.376,1.141s.017,2.606-.1,3.146-.312,1.977-.312,1.977a2.917,2.917,0,0,1,.192,1.759,12.062,12.062,0,0,0-.239,2.523,26.853,26.853,0,0,0-.172,3.853,2.422,2.422,0,0,1,.127,1s-1.05,2.044-.754,2.339.172,1.073.172,1.073-.661-.026-.388.269a5.714,5.714,0,0,1,.441,1.783l2.846.441a5.973,5.973,0,0,0,.687-1.181c.412-.858-.04-.784-.417-.893s-.127-.343.333-.6.225-.915.225-.915-.642-1.186-.4-1.272.328-1.716.328-1.716a10.588,10.588,0,0,0,.448-2.446,4.752,4.752,0,0,1,.446-1.759l.223-1.483a4.094,4.094,0,0,0,.628-2.793l.089-2.293s.833-4.42,1.014-6.663c.115-1.435.172-3.4.2-4.626.016-.687.021-1.143.021-1.143l-10.173-1.457a8.332,8.332,0,0,1-.244,1.51c-.125.558-.318,1.277-.608,2.175a9.961,9.961,0,0,0-.458,4.53l-.033,3.289s-.984,2.164-.824,2.928a6.242,6.242,0,0,1,.137,1.373s-2.2,4.722-2.036,6.124a9.018,9.018,0,0,1-.8,3.568A5.483,5.483,0,0,0,502.366,442.952Z" transform="translate(-424.724 -359.097)" fill="#3f3d56"/>
    <path id="Path_440" data-name="Path 440" d="M524.63,502.6l-3.09-.534S523.229,503.934,524.63,502.6Z" transform="translate(-440.672 -430.841)" opacity="0.05"/>
    <path id="Path_441" data-name="Path 441" d="M523.787,484.47s-.149,1.1.515,1.534C524.295,486,523.1,485.762,523.787,484.47Z" transform="translate(-442.356 -416.262)" opacity="0.1"/>
    <path id="Path_442" data-name="Path 442" d="M526.71,464.12s2.518,2.24,3.469,2.1S526.71,464.12,526.71,464.12Z" transform="translate(-444.955 -399.405)" opacity="0.1"/>
    <path id="Path_443" data-name="Path 443" d="M561.77,511.89s1.957.525,1.984,1.32S561.77,511.89,561.77,511.89Z" transform="translate(-473.997 -438.975)" opacity="0.1"/>
    <path id="Path_444" data-name="Path 444" d="M554.55,569.24s2.769.626,1.964.951a13.447,13.447,0,0,1-2.111.553S553.5,570.762,554.55,569.24Z" transform="translate(-467.596 -486.482)" opacity="0.05"/>
    <g id="Group_97" data-name="Group 97" transform="translate(77.56 57.747)" opacity="0.05">
      <path id="Path_445" data-name="Path 445" d="M569.146,576.285a.549.549,0,0,0,.269-.395l.027.051s.235.647-.225.913l-.149.091c-.082-.019-.172-.034-.256-.058C568.435,576.778,568.694,576.551,569.146,576.285Z" transform="translate(-557.24 -549.737)"/>
      <path id="Path_446" data-name="Path 446" d="M550.476,573.927c-.074-.074-.064-.256-.009-.487a1.313,1.313,0,0,1,.132.687A.559.559,0,0,0,550.476,573.927Z" transform="translate(-542.158 -547.707)"/>
      <path id="Path_447" data-name="Path 447" d="M555.688,507.85a3.173,3.173,0,0,1,.154.875,3.562,3.562,0,0,0-.192-.606S555.664,508.015,555.688,507.85Z" transform="translate(-546.487 -493.375)"/>
      <path id="Path_448" data-name="Path 448" d="M518.846,497.929a1.107,1.107,0,0,1-.016-.259c.027.172.046.343.058.487C518.877,498.082,518.858,498.006,518.846,497.929Z" transform="translate(-515.986 -484.943)"/>
      <path id="Path_449" data-name="Path 449" d="M554.109,554.279a1.527,1.527,0,0,1-.052-.529,1.777,1.777,0,0,1,.112.669A.675.675,0,0,0,554.109,554.279Z" transform="translate(-545.164 -531.397)"/>
      <path id="Path_450" data-name="Path 450" d="M549.247,582.68a9.209,9.209,0,0,1,.271,1.464l2.846.441a5.965,5.965,0,0,0,.687-1.181c.036-.076.065-.144.089-.206.172.086.228.266-.017.776a5.968,5.968,0,0,1-.687,1.183l-2.846-.441a5.682,5.682,0,0,0-.429-1.794C549.02,582.778,549.113,582.711,549.247,582.68Z" transform="translate(-541.054 -555.361)"/>
      <path id="Path_451" data-name="Path 451" d="M570.761,446.738s-.086,1.631-.326,1.716h0c-.108-.275-.172-.534-.07-.572.24-.086.326-1.716.326-1.716a10.576,10.576,0,0,0,.45-2.446,4.74,4.74,0,0,1,.446-1.758l.223-1.483a4.1,4.1,0,0,0,.628-2.794l.088-2.293s.834-4.42,1.014-6.661c.117-1.437.172-3.4.2-4.626,0-.221.009-.419.01-.585l.082.012s0,.457-.021,1.143c-.027,1.225-.086,3.191-.2,4.626-.182,2.243-1.014,6.663-1.014,6.663l-.089,2.293a4.094,4.094,0,0,1-.628,2.793l-.223,1.483a4.75,4.75,0,0,0-.446,1.759A10.559,10.559,0,0,1,570.761,446.738Z" transform="translate(-558.633 -423.52)"/>
      <path id="Path_452" data-name="Path 452" d="M507.289,582.967a2.776,2.776,0,0,0,.5-1.107c.281.275-.094,1.286-.424,1.677s-2.817.578-3.261-.22l.017-.45C504.735,583.525,506.96,583.357,507.289,582.967Z" transform="translate(-503.785 -554.682)"/>
      <path id="Path_453" data-name="Path 453" d="M502.279,571.847a4.782,4.782,0,0,1,.3.723l-.014.331c-.048-.122-.118-.287-.218-.482a1.414,1.414,0,0,1-.081-.589Z" transform="translate(-502.266 -546.374)"/>
      <path id="Path_454" data-name="Path 454" d="M521.331,558.247a4.45,4.45,0,0,1-.211-.572s.4.11,1.064-.621a3.368,3.368,0,0,0,.515-2.254,3.917,3.917,0,0,1-.44,2.825A1.7,1.7,0,0,1,521.331,558.247Z" transform="translate(-517.884 -532.267)"/>
      <path id="Path_455" data-name="Path 455" d="M529.864,482.533a12.4,12.4,0,0,0-.1,1.4,2.229,2.229,0,0,0-.041-.221,8.365,8.365,0,0,1,.069-1.749,3.518,3.518,0,0,1,.215-1.246,15.557,15.557,0,0,0,.669-2.034,1.39,1.39,0,0,1,.366-.886,4.041,4.041,0,0,0,.6-1.493,1.556,1.556,0,0,0,.275-1.008,2.06,2.06,0,0,1,.45-1.213l.9-2.523.829-1.888.383,1.128v.36l-.309-.917-.826,1.888-.9,2.523a2.061,2.061,0,0,0-.45,1.214,1.544,1.544,0,0,1-.276,1.008,4.034,4.034,0,0,1-.6,1.492,1.394,1.394,0,0,0-.366.886,15.54,15.54,0,0,1-.671,2.034A3.544,3.544,0,0,0,529.864,482.533Z" transform="translate(-524.982 -461.749)"/>
    </g>
    <path id="Path_456" data-name="Path 456" d="M528.746,280.433l.144.87-.024.384-.019.283.982.139.118-.2h0a8.5,8.5,0,0,1,.814-1.2c.189-.148.606-2.535.209-2.4a1.03,1.03,0,0,0-.568.477S528.455,278.919,528.746,280.433Z" transform="translate(-446.617 -245.479)" fill="#ffcdd3"/>
    <path id="Path_457" data-name="Path 457" d="M529.48,297.834l.982.139.118-.2h0a.867.867,0,0,0-1.081-.221Z" transform="translate(-447.249 -261.342)" opacity="0.1"/>
    <path id="Path_458" data-name="Path 458" d="M527.92,298.734l1.289.343.036-.192.093-.515a.9.9,0,0,0-1.253-.221l-.074.264Z" transform="translate(-445.957 -261.785)" fill="#dce6f2"/>
    <path id="Path_459" data-name="Path 459" d="M651.12,276.265l1.361.8.136-.257c.142-.271.355-.687.415-.829.091-.227.687-.494.687-.494a1.6,1.6,0,0,0-.172-2.594c-.846-1.879-1.964.551-1.964.551a6.32,6.32,0,0,0-.094,1.389c.1.093.084.446.084.446a5.18,5.18,0,0,0-.366.783A1.61,1.61,0,0,0,651.12,276.265Z" transform="translate(-548.011 -240.406)" fill="#ffcdd3"/>
    <path id="Path_460" data-name="Path 460" d="M651.12,295.012l1.361.8.136-.257c-.191-.172-.858-.762-1.092-.745a1.625,1.625,0,0,1-.33,0C651.146,294.93,651.12,295.012,651.12,295.012Z" transform="translate(-548.011 -259.154)" opacity="0.1"/>
    <path id="Path_461" data-name="Path 461" d="M650.2,295.733l1.531.829.045-.343.031-.23s-.875-.81-1.143-.791a1.41,1.41,0,0,1-.407-.017l-.029.281Z" transform="translate(-547.249 -259.462)" fill="#dce6f2"/>
    <path id="Path_462" data-name="Path 462" d="M549.65,299.811s6.775,1.03,5.518.566a1.711,1.711,0,0,1-1.255-1.526,3.558,3.558,0,0,1,.314-1.564,6.742,6.742,0,0,1,.656-1.2s-5.091-3.062-4.15-.421a4.183,4.183,0,0,1,.247,1.244,3.478,3.478,0,0,1-.182,1.241A3.73,3.73,0,0,1,549.65,299.811Z" transform="translate(-463.958 -258.975)" fill="#ffcdd3"/>
    <path id="Path_463" data-name="Path 463" d="M555.433,295.632a4.178,4.178,0,0,1,.247,1.244,2.4,2.4,0,0,0,1.7.45,3.07,3.07,0,0,0,1.545-.067,6.728,6.728,0,0,1,.656-1.2S554.486,292.99,555.433,295.632Z" transform="translate(-468.651 -258.947)" opacity="0.1"/>
    <circle id="Ellipse_24" data-name="Ellipse 24" cx="2.815" cy="2.815" r="2.815" transform="translate(86.103 32.932)" fill="#ffcdd3"/>
    <path id="Path_464" data-name="Path 464" d="M549.65,315.733s6.775,1.03,5.518.566a1.711,1.711,0,0,1-1.255-1.526,3.751,3.751,0,0,0-1.426-.829,2.044,2.044,0,0,0-1.232-.067,1.736,1.736,0,0,0-.457.19A3.73,3.73,0,0,1,549.65,315.733Z" transform="translate(-463.958 -274.896)" opacity="0.1"/>
    <path id="Path_465" data-name="Path 465" d="M527.92,300.619l1.289.343.036-.192a1.15,1.15,0,0,0-1.234-.475Z" transform="translate(-445.957 -263.67)" opacity="0.1"/>
    <path id="Path_466" data-name="Path 466" d="M650.2,297.091l1.531.829.045-.343a11.532,11.532,0,0,0-1.545-.757Z" transform="translate(-547.249 -260.82)" opacity="0.1"/>
    <path id="Path_467" data-name="Path 467" d="M530.12,416.98c2.619.515,6.351,1.2,6.95,1.045a17.361,17.361,0,0,1,3.447.045c.016-.687.021-1.143.021-1.143l-10.173-1.457A8.332,8.332,0,0,1,530.12,416.98Z" transform="translate(-447.78 -359.105)" opacity="0.1"/>
    <path id="Path_468" data-name="Path 468" d="M515,318.507s8.62,1.823,9.562,1.576a37.413,37.413,0,0,1,5.711.244c2.1,1.524,1.28-.639,1.28-.639a5.209,5.209,0,0,0,0-2.012,12.329,12.329,0,0,1-.276-2.024,4.687,4.687,0,0,0-.146-1.758,13.49,13.49,0,0,1-.463-2.717s-.172-1.617-.137-1.97-.019-1.351-.019-1.351l-.244-1.667c1.782-.172,7.3-3.272,7.3-3.272a17.17,17.17,0,0,1,2.413-3.625,2.68,2.68,0,0,1,.189-.632c.158-.372-1.941-1.2-1.941-1.2s-1.66,1.878-2.01,2.384a10.809,10.809,0,0,1-1.524,1.433,1.158,1.158,0,0,0-.515.048h-.028a4.211,4.211,0,0,0-1.083.568,2.06,2.06,0,0,0-1.462.487s-.965-.172-1.136-.021-.992-.038-.992-.038-.76-1.782-1.323-1.294-2.872.376-2.872.376a3.4,3.4,0,0,0-1.49-.911,2.044,2.044,0,0,0-1.232-.069,1.574,1.574,0,0,0-.5.218l-1.452,1.316s-.383-.536-.331-.652-.463-.232-.463-.232-.687-.239-.935-.319-.506.191-.529.215a2.761,2.761,0,0,0,.158-1.03,1.186,1.186,0,0,1,.316-.839c-.748-2.06-2.683-.436-2.683-.436a3.889,3.889,0,0,0-.082,1.536c.173.433-.24,1.316-.2,1.555s-.118.635-.136,1.085a6.434,6.434,0,0,0,.314,1.692c.127.383,1.229,1.279,1.229,1.279a5.343,5.343,0,0,0,.486,2.151c.467.8.057,3.459.057,3.459a8.913,8.913,0,0,1-1.171,2.7C516.021,314.765,515,318.507,515,318.507Z" transform="translate(-435.255 -261.351)" fill="#3f3d56"/>
    <path id="Path_469" data-name="Path 469" d="M591.924,325.471s.29-.771.529-.832a5.473,5.473,0,0,0,.7-.281l-.141-.3s-.9.209-1.05.465A2.03,2.03,0,0,0,591.924,325.471Z" transform="translate(-498.94 -283.385)" opacity="0.1"/>
    <path id="Path_470" data-name="Path 470" d="M620.2,320.507c.039.237,2.135.532,2.135.532l-1.03-1.109h-.026A4.214,4.214,0,0,0,620.2,320.507Z" transform="translate(-522.398 -279.964)" opacity="0.1"/>
    <path id="Path_471" data-name="Path 471" d="M544.514,369.6c.024-.026-5.565,6.5-9.554,2.451C534.967,372.051,541.464,373.189,544.514,369.6Z" transform="translate(-451.789 -321.108)" opacity="0.1"/>
    <path id="Path_472" data-name="Path 472" d="M583.028,349.94a10.292,10.292,0,0,1-1.318,2.07,8.314,8.314,0,0,1-2.01,1.8A37.454,37.454,0,0,0,583.028,349.94Z" transform="translate(-488.85 -304.823)" opacity="0.1"/>
    <path id="Path_473" data-name="Path 473" d="M596.242,328.58s-.621,2.276-2.022,3Z" transform="translate(-500.877 -287.129)" opacity="0.1"/>
    <path id="Path_474" data-name="Path 474" d="M601.638,330.117c.015-.043.4,1.835-1.878,2.777C599.76,332.894,600.725,332.607,601.638,330.117Z" transform="translate(-505.466 -288.401)" opacity="0.1"/>
    <path id="Path_475" data-name="Path 475" d="M522.877,317.984a16.46,16.46,0,0,0-1.457,1.009S522.206,317.914,522.877,317.984Z" transform="translate(-440.573 -278.349)" opacity="0.1"/>
    <path id="Path_476" data-name="Path 476" d="M551.316,279.405a.589.589,0,0,1-.233.371.57.57,0,0,1-.268.05,5.6,5.6,0,0,1-2.535-.343.957.957,0,0,1-.376-.271,1.573,1.573,0,0,1-.2-.63,9.255,9.255,0,0,0-.474-1.215,4.017,4.017,0,0,1-.2-2.147,1.454,1.454,0,0,1,.239-.621c.24-.316.659-.431.97-.678s.515-.635.879-.815a1.571,1.571,0,0,1,1.064-.053,5.56,5.56,0,0,1,1.953.82,1,1,0,0,0,.654.251.91.91,0,0,0,.5-.355,2.587,2.587,0,0,1,.172,1.234.559.559,0,0,0,0,.185.577.577,0,0,0,.124.2.716.716,0,0,1,.1.887c-.094.106-.237.16-.33.266-.172.191-.125.477-.13.731a.376.376,0,0,1-.072.247.366.366,0,0,1-.343.069.975.975,0,0,0-.369-.05.626.626,0,0,0-.331.235A4.183,4.183,0,0,0,551.316,279.405Z" transform="translate(-461.736 -241.076)" fill="#3f3d56"/>
    <g id="Group_98" data-name="Group 98" transform="translate(86.055 32.654)" opacity="0.1">
      <path id="Path_477" data-name="Path 477" d="M551.786,291.093a.952.952,0,0,0,.378.271,5.791,5.791,0,0,0,2.535.343.614.614,0,0,0,.268-.05.589.589,0,0,0,.233-.372,4.425,4.425,0,0,1,.781-1.636.62.62,0,0,1,.331-.235.976.976,0,0,1,.369.05.362.362,0,0,0,.343-.07.376.376,0,0,0,.072-.247,1.089,1.089,0,0,1,.129-.729c.093-.108.235-.161.331-.266a.551.551,0,0,0,.075-.561.644.644,0,0,1,.012.754c-.1.1-.239.16-.331.266-.172.191-.124.477-.129.731a.376.376,0,0,1-.072.247.365.365,0,0,1-.343.069.983.983,0,0,0-.369-.05.62.62,0,0,0-.331.235,4.341,4.341,0,0,0-.781,1.637.589.589,0,0,1-.233.371.57.57,0,0,1-.268.05,5.6,5.6,0,0,1-2.535-.343.952.952,0,0,1-.378-.271.765.765,0,0,1-.113-.232Z" transform="translate(-551.76 -285.829)"/>
      <path id="Path_478" data-name="Path 478" d="M583.893,278.707a.408.408,0,0,1-.081-.146.519.519,0,0,1,0-.184,2.618,2.618,0,0,0-.093-1.03l.015-.017a2.608,2.608,0,0,1,.163,1.234A.9.9,0,0,0,583.893,278.707Z" transform="translate(-578.234 -277.33)"/>
    </g>
    <path id="Path_479" data-name="Path 479" d="M556.369,319.421s-3.534.33-3.829-.211" transform="translate(-466.351 -279.367)" opacity="0.1"/>
    <path id="Path_480" data-name="Path 480" d="M523.763,310.42s-1.953-.072-2.4.644" transform="translate(-440.523 -272.085)" opacity="0.1"/>
  </g>
</svg>
