<svg xmlns="http://www.w3.org/2000/svg" width="276.722" height="117.848" viewBox="0 0 276.722 117.848">
  <g id="programming" transform="translate(0 -0.135)">
    <path id="Path_256" data-name="Path 256" d="M643.457,117.8l16.2-16.656-16.2-16.656,4.939-5.077,21.137,21.733L648.4,122.879l-4.939-5.077Z" transform="translate(-475.159 -57.285)" fill="#e6e6e6"/>
    <rect id="Rectangle_73" data-name="Rectangle 73" width="6.585" height="6.791" transform="translate(122.039 37.179)" fill="#e6e6e6"/>
    <rect id="Rectangle_74" data-name="Rectangle 74" width="6.585" height="6.791" transform="translate(148.51 37.179)" fill="#e6e6e6"/>
    <rect id="Rectangle_75" data-name="Rectangle 75" width="6.585" height="6.791" transform="translate(135.275 37.179)" fill="#e6e6e6"/>
    <path id="Path_257" data-name="Path 257" d="M358.861,117.174l-16.215-16.656,16.2-16.656-4.939-5.077-21.121,21.733,21.137,21.733Z" transform="translate(-245.744 -56.826)" fill="#e6e6e6"/>
    <path id="Path_258" data-name="Path 258" d="M643.457,105.844l16.2-16.656-16.2-16.656,4.939-5.077,21.137,21.733L648.4,110.921l-4.939-5.077Z" transform="translate(-475.159 -48.552)" fill="#6c63ff"/>
    <path id="Path_259" data-name="Path 259" d="M537.595,366.667h6.585v-6.792h-6.585Zm33.056-6.792h-6.585v6.792h6.585Zm-19.82,6.792h6.585v-6.792h-6.585Z" transform="translate(-415.556 -324.843)" fill="#6c63ff"/>
    <path id="Path_260" data-name="Path 260" d="M358.861,105.215,342.646,88.559l16.2-16.656-4.939-5.077L332.785,88.559l21.137,21.733Z" transform="translate(-245.744 -48.093)" fill="#6c63ff"/>
    <path id="Path_261" data-name="Path 261" d="M129.3,370.752l3.686.919,5.192-14.227-5.441-1.357Z" transform="translate(-95.485 -259.324)" fill="#a0616a"/>
    <path id="Path_262" data-name="Path 262" d="M193.632,642.659l1.132-4.829,7.212,1.8a4.874,4.874,0,0,1,3.472,5.865l-.025.106Z" transform="translate(-161.557 -527.817)" fill="#2f2e41"/>
    <path id="Path_263" data-name="Path 263" d="M191.695,379.209h3.792l1.8-15.087h-5.6Z" transform="translate(-141.556 -265.19)" fill="#a0616a"/>
    <path id="Path_264" data-name="Path 264" d="M259.183,648.128h7.42a4.787,4.787,0,0,1,4.711,4.859v.109H259.183Z" transform="translate(-209.963 -535.337)" fill="#2f2e41"/>
    <path id="Path_265" data-name="Path 265" d="M216.408,501.117l.624-23.471-.84-9.517-1.639,7.324-7.161,24.086-6.174-1.676,7.15-25.97-1.553-16.657,4.461-2.958.06.011,15.243,2.9L222.9,500.448Z" transform="translate(-167.159 -392.319)" fill="#2f2e41"/>
    <path id="Path_266" data-name="Path 266" d="M237.805,352.611a7.214,7.214,0,0,1-4.261-1.571c-5.114-3.722-11.211.282-11.272.322l-.248.166.009-.3c.006-.217.619-21.773.619-28.709,0-7.166,4.533-12.4,5.923-13.832,1.364-1.407,2.511-1.375,3.964-1.336.25.006.511.014.786.014,1.9,0,3.744,1.881,3.821,1.961l.037.038.007.054,5.267,40.9-.04.053A6.274,6.274,0,0,1,237.805,352.611Z" transform="translate(-182.524 -286.475)" fill="#ccc"/>
    <path id="Path_287" data-name="Path 287" d="M7.781-.1a7.48,7.48,0,0,1,7.681,7.552A7.964,7.964,0,0,1,7.58,15.2,7.48,7.48,0,0,1-.1,7.652,7.964,7.964,0,0,1,7.781-.1Z" transform="translate(41.295 13.751) rotate(-61.337)" fill="#a0616a"/>
    <path id="Path_267" data-name="Path 267" d="M300.084,457.733a3.273,3.273,0,0,1-.18-4.916l-4.315-10.5,5.649,1.072,3.231,9.8a3.3,3.3,0,0,1-.239,4.277,3.058,3.058,0,0,1-4.146.259Z" transform="translate(-236.847 -385.047)" fill="#a0616a"/>
    <path id="Path_268" data-name="Path 268" d="M276.44,359.782l-7.8-16.4-3.418-12.346,0-10.725c.008-.042.811-4.214,3.79-3.926,2.7.27,4.156,1.632,4.864,4.555.6,2.483-.221,9.849-.3,10.544.523,1.278,8.363,20.546,7.065,22.866a.58.58,0,0,1-.205.219l1.389,3.025Z" transform="translate(-214.425 -293.072)" fill="#ccc"/>
    <path id="Path_269" data-name="Path 269" d="M243.228,245.507c.911.122,1.6-.839,1.916-1.727s.561-1.923,1.353-2.4c1.082-.656,2.466.133,3.7-.083a3.331,3.331,0,0,0,2.377-3.231,10.026,10.026,0,0,0-1.045-4.209l-.193,1.673a3.351,3.351,0,0,0-1.405-2.9l.249,2.454a2.617,2.617,0,0,0-1.019-1.7,2.466,2.466,0,0,0-1.887-.455l.039,1.462a22.717,22.717,0,0,0-4.86-.245,7.724,7.724,0,0,0-4.475,1.778,8.226,8.226,0,0,0-2.28,6.848,22.032,22.032,0,0,0,2.265,7.107c.262.57.624,1.213,1.232,1.286a1.247,1.247,0,0,0,1.215-.944,3.527,3.527,0,0,0-.015-1.682,7.367,7.367,0,0,1-.2-2.545,2.051,2.051,0,0,1,1.556-1.78c.824-.1,1.667.868,1.271,1.621Z" transform="translate(-192.593 -231.921)" fill="#2f2e41"/>
    <path id="Path_270" data-name="Path 270" d="M979.843,458.929a2.772,2.772,0,0,1-.622-2.2,2.717,2.717,0,0,1,1.239-1.907l-1.945-9.429,4.522,1.827,1.153,8.674a2.779,2.779,0,0,1-.865,3.511A2.588,2.588,0,0,1,979.843,458.929Z" transform="translate(-741.153 -387.289)" fill="#ffb8b8"/>
    <path id="Path_271" data-name="Path 271" d="M958.755,386.021l-.024-.093c-2.445-9.326-4.972-18.966-8.057-29.463l-.02-.069.068-.041a5.985,5.985,0,0,1,6.012.16,4.692,4.692,0,0,1,1.947,4.907l2.25,12.1c.915,3.956,1.862,8.05,2.766,12.087l.026.115-.14.009c-1.648.108-3.35.22-4.714.282Z" transform="translate(-720.578 -321.738)" fill="#ccc"/>
    <path id="Path_272" data-name="Path 272" d="M817.833,387.213h-3.206L813.1,374.457h4.733Z" transform="translate(-600.432 -272.738)" fill="#ffb8b8"/>
    <path id="Path_273" data-name="Path 273" d="M876.13,654.655H865.79v-.135a4.094,4.094,0,0,1,4.024-4.151h6.315Z" transform="translate(-657.911 -536.973)" fill="#2f2e41"/>
    <path id="Path_274" data-name="Path 274" d="M923.386,378.729l-3.055,1-5.209-11.676,4.509-1.482Z" transform="translate(-675.769 -266.982)" fill="#ffb8b8"/>
    <path id="Path_275" data-name="Path 275" d="M985.993,646.815l-.04-.129a4.183,4.183,0,0,1,2.613-5.215l6.017-1.977,1.261,4.083Z" transform="translate(-746.505 -529.032)" fill="#2f2e41"/>
    <ellipse id="Ellipse_15" data-name="Ellipse 15" cx="6.424" cy="6.626" rx="6.424" ry="6.626" transform="translate(224.963 12.93)" fill="#ffb8b8"/>
    <path id="Path_276" data-name="Path 276" d="M936.051,277.323a8.585,8.585,0,0,0-2.725-6.65,4.253,4.253,0,0,0-5.527.1,8.733,8.733,0,0,0-2.6,6.747C928.9,277.532,932.6,277.543,936.051,277.323Z" transform="translate(-701.78 -258.995)" fill="#2f2e41"/>
    <path id="Path_277" data-name="Path 277" d="M884.694,467.8l-.129-.013c-2.79-.282-5.674-.574-8.4-.607l-.148,0,.02-.151c.646-4.825.92-9.841,1.184-14.692.262-4.79.532-9.743,1.162-14.447.266-1.26.526-2.5.785-3.744,2.141-10.263,4.163-19.956,8.337-29.551l.04-.091.1.012a22.54,22.54,0,0,1,10.6,4.15l.056.042,0,.072c-.056,1.49-.114,3.031-.028,4.435a15.441,15.441,0,0,1,2.08,13.295c1.149,3.959,2.336,8.051,3.548,12.088,2.942,8.319,5.986,16.928,9.107,25.654l.051.143-.144.035a49.514,49.514,0,0,1-6.847,1.322l-.086.008-.041-.079A195.689,195.689,0,0,1,891.784,430.6a45.489,45.489,0,0,1-2.991,6.811,51.722,51.722,0,0,0-2.742,6.043c-.482,4.079-.609,8.5-.733,12.772-.117,4.041-.227,7.858-.61,11.446Z" transform="translate(-665.462 -357.433)" fill="#2f2e41"/>
    <path id="Path_278" data-name="Path 278" d="M945.585,273.119a9.185,9.185,0,0,1,8.051,1.908,8.091,8.091,0,0,1,2.4,8.165c-.9,2.875-3.948,4.9-6.706,4.155a5.8,5.8,0,0,0-2.03-6.438C945.009,279.339,944.378,275.594,945.585,273.119Z" transform="translate(-716.392 -261.318)" fill="#2f2e41"/>
    <path id="Path_279" data-name="Path 279" d="M930.559,356.964l-.1-.048c-3.552-1.672-7.035-2.954-10.3-4.124l-.1-.022v-.3l.065.023.044-.1c.045-.1.075-.171.1-.217h0c.272-.572.488-1.124.7-1.659.216-.552.439-1.121.727-1.723a5.342,5.342,0,0,1-1.119-5.619,5.735,5.735,0,0,1,4.49-3.363c.708-2.009,2.285-6.231,2.285-6.231s3.316-.094,4.65-.268l.022,0,.022.005c2.911.658,5.342,3.5,5.911,6.91a14.142,14.142,0,0,1-2.052,9.271,39.912,39.912,0,0,1-3.063,4.34c-.812,1.048-1.58,2.037-2.217,3.034Z" transform="translate(-697.985 -305.443)" fill="#ccc"/>
    <path id="Path_280" data-name="Path 280" d="M984.292,290.493Z" transform="translate(-745.418 -274.177)" fill="#2f2e41"/>
    <path id="Path_281" data-name="Path 281" d="M975.532,266.929a4.1,4.1,0,0,1-3.258-4.375,4.032,4.032,0,0,1,4.123-3.514,4.08,4.08,0,0,1,3.551,4.125A3.936,3.936,0,0,1,975.532,266.929Z" transform="translate(-736.528 -251.202)" fill="#2f2e41"/>
    <path id="Path_282" data-name="Path 282" d="M972.153,263.044a3.974,3.974,0,0,1-.935-7.54,3.982,3.982,0,0,0,.15,7.81,3.614,3.614,0,0,0,2.137-.308A3.681,3.681,0,0,1,972.153,263.044Z" transform="translate(-733.453 -248.627)" fill="#2f2e41"/>
    <path id="Path_283" data-name="Path 283" d="M838.091,399.728a2.636,2.636,0,0,1,1.807-1.339,2.572,2.572,0,0,1,2.156.57l7.972-5.033-.164,5.007-7.545,4.011a2.586,2.586,0,0,1-3.5.328A2.783,2.783,0,0,1,838.091,399.728Z" transform="translate(-637.201 -349.708)" fill="#ffb8b8"/>
    <path id="Path_284" data-name="Path 284" d="M864.128,356.45l.077-.054c7.711-5.485,15.682-11.154,24.25-17.652l.056-.043.06.053a6.463,6.463,0,0,1,1.857,5.9,4.537,4.537,0,0,1-3.837,3.529l-10.312,6.22c-3.311,2.208-6.739,4.492-10.128,6.717l-.1.063-.055-.133c-.648-1.566-1.317-3.184-1.828-4.49Z" transform="translate(-656.684 -309.381)" fill="#ccc"/>
    <path id="Path_285" data-name="Path 285" d="M170.913,665.913H71.262a.27.27,0,0,1,0-.539h99.651a.27.27,0,0,1,0,.539Z" transform="translate(-71 -547.93)" fill="#3f3d56"/>
    <path id="Path_286" data-name="Path 286" d="M845.913,665.913H746.262a.27.27,0,0,1,0-.539h99.651a.27.27,0,0,1,0,.539Z" transform="translate(-569.452 -547.93)" fill="#3f3d56"/>
  </g>
</svg>
