<svg xmlns="http://www.w3.org/2000/svg" width="128.151" height="133.612" viewBox="0 0 128.151 133.612">
  <g id="Math" transform="translate(0)">
    <path id="Path_622" data-name="Path 622" d="M394.327,707.165c0,5.03-27.186,9.108-60.723,9.108s-60.723-4.078-60.723-9.108c0-3.561,13.627-6.646,33.488-8.143,8.19-.619,17.443-.966,27.235-.966,4.025,0,7.959.059,11.763.17C373.274,699.05,394.327,702.739,394.327,707.165Z" transform="translate(-272.882 -582.662)" fill="#3f3d56"/>
    <ellipse id="Ellipse_115" data-name="Ellipse 115" cx="23.14" cy="3.192" rx="23.14" ry="3.192" transform="translate(29.671 120.312)" opacity="0.1"/>
    <ellipse id="Ellipse_116" data-name="Ellipse 116" cx="22.342" cy="23.539" rx="22.342" ry="23.539" transform="translate(30.469 78.82)" fill="#3f3d56"/>
    <rect id="Rectangle_99" data-name="Rectangle 99" width="13.565" height="11.969" transform="translate(46.427 116.323)" fill="#6c63ff"/>
    <path id="Path_623" data-name="Path 623" d="M393.284,607.614l-.784,4.309,5.093.784,3.33-1.959-.2-3.134Z" transform="translate(-315.617 -488.595)" fill="#575a89"/>
    <path id="Path_624" data-name="Path 624" d="M531.975,303.09s-.392,4.505-1.371,4.7,2.155,8.031,2.155,8.031h4.7l3.722-.979-1.763-4.309s-2.351-3.134-.588-5.681S531.975,303.09,531.975,303.09Z" transform="translate(-479.969 -264.969)" fill="#a0616a"/>
    <path id="Path_625" data-name="Path 625" d="M531.975,303.09s-.392,4.505-1.371,4.7,2.155,8.031,2.155,8.031h4.7l3.722-.979-1.763-4.309s-2.351-3.134-.588-5.681S531.975,303.09,531.975,303.09Z" transform="translate(-479.969 -264.969)" opacity="0.1"/>
    <path id="Path_626" data-name="Path 626" d="M477.773,476.341s-5.093,9.794-.979,11.753,5.093,1.763,5.093,2.351-.784.392-.392,1.371-.784,4.9.392,7.248a6.7,6.7,0,0,1,.784,4.113,3.165,3.165,0,0,0,.392.979c.392.784.588,1.371.392,1.763s-1.371,2.938-.2,3.526,7.248.979,7.835,0-.588-1.567,0-2.155.979-.784.588-1.175-.784-5.289-.784-5.289.979-5.68.588-6.464-.979-1.567-.588-2.155.784-.392.979-1.175.588-2.546.588-2.546l2.155-.2,5.093.979s5.681,6.268,11.949,8.227c0,0,1.763,1.763,2.351,1.763s.588,0,.392.392-.783.392-.392.784.979-.2.588.392-.784.588-.392.979-.2,2.546-.2,2.742-1.763,18.608-1.175,19,8.815,1.567,9.4,0a5.162,5.162,0,0,0-.392-3.526s2.938-23.505,2.155-25.073-3.526-8.619-18.217-13.124c0,0-4.113-.784-4.113-1.371s-.392-4.309-1.175-4.505-5.289-.392-5.289-.392l-5.681,1.763-7.835-1.371Z" transform="translate(-435.561 -403.745)" fill="#2f2e41"/>
    <path id="Path_627" data-name="Path 627" d="M518.143,645.145l-.979,3.526s-.784,5.681.2,7.052a6.161,6.161,0,0,0,4.69,2.627,3.148,3.148,0,0,0,3.287-2.178.981.981,0,0,0,.054-.254c0-.392-.588-5.093-.588-5.093l-.979-4.9-.2-1.371Z" transform="translate(-469.075 -539.641)" fill="#2f2e41"/>
    <path id="Path_628" data-name="Path 628" d="M662.914,726.115s-.979-.979-1.175,0-.979,5.093.392,5.289,14.5,2.155,15.866,1.371,3.918-1.959,2.351-2.546-6.072-2.351-6.072-2.351a39.858,39.858,0,0,0-2.938-3.526,5.669,5.669,0,0,0-3.526.979C666.831,726.115,662.914,726.115,662.914,726.115Z" transform="translate(-585.247 -603.766)" fill="#2f2e41"/>
    <circle id="Ellipse_117" data-name="Ellipse 117" cx="6.072" cy="6.072" r="6.072" transform="translate(50.635 30.09)" fill="#a0616a"/>
    <path id="Path_629" data-name="Path 629" d="M497.2,331.479l-2.351-2.546-2.605-5.093s-1.9-.588-2.291.392-7.443,4.114-7.443,4.114,1.763,16.454.979,18.021-2.155,7.835-.979,8.423,6.66,0,8.423.784,6.856.784,8.227-.2,1.763-1.763,3.134-1.175c1.167.5,3.9-16.6,4.682-21.7a2.32,2.32,0,0,0-.961-2.255c-1.758-1.233-4.923-3.357-5.483-3.077C499.743,327.561,497.2,331.479,497.2,331.479Z" transform="translate(-441.077 -281.605)" fill="#575a89"/>
    <path id="Path_630" data-name="Path 630" d="M589.9,359.557h0a2.323,2.323,0,0,1,1.745,2l1.585,14.261s-3.918,8.423-5.876,2.742S589.9,359.557,589.9,359.557Z" transform="translate(-525.36 -310.467)" fill="#575a89"/>
    <path id="Path_631" data-name="Path 631" d="M587.46,444.732l4.309-1.175s.784,5.485,1.567,5.485-2.742,3.134-4.505,2.742-4.309-1.763-4.505-2.742,1.763-5.093,1.763-5.093Z" transform="translate(-523.309 -378.013)" fill="#575a89"/>
    <path id="Path_632" data-name="Path 632" d="M522.689,253.423c.413-.91.341-1.972.683-2.912a3.472,3.472,0,0,1,5.28-1.642c.439.313.879.753,1.415.693.577-.064,1.092-.708,1.623-.472.588.262.429,1.316,1.025,1.559a.753.753,0,0,0,.865-.356,2.2,2.2,0,0,0,.252-.975,4.664,4.664,0,0,0-.206-2.477,5.943,5.943,0,0,1-.4-.8,2.74,2.74,0,0,1-.076-.79,5.66,5.66,0,0,0-.569-2.855,4.139,4.139,0,0,0-2.62-1.806,9.994,9.994,0,0,0-3.251-.131,9.337,9.337,0,0,0-5.081,1.593,1.989,1.989,0,0,0-.488.513,2.649,2.649,0,0,0-.26.752,15.563,15.563,0,0,1-1.365,3.58,7.767,7.767,0,0,0-.7,1.521,1.969,1.969,0,0,0,.174,1.618,6.185,6.185,0,0,0,.985.887c.318.306.467.894.819,1.126.308.2.676.059.99.274C522.185,252.6,522.214,253.2,522.689,253.423Z" transform="translate(-470.565 -214.642)" fill="#2f2e41"/>
    <path id="Path_633" data-name="Path 633" d="M564.382,373.732l.588-1.175s8.619,2.546,10.382,4.9c0,0,4.309-2.742,6.66-2.351l2.351.392-7.248,6.464-9.206-.784Z" transform="translate(-507.283 -320.921)" fill="#f2f2f2"/>
    <path id="Path_634" data-name="Path 634" d="M529.413,372.557l-8.031,11.165,11.557,5.681a1.987,1.987,0,0,0,1.911,0l7.687-3.526,7.247-10.382-7.247,3.722a1.716,1.716,0,0,0-2.351-.784Z" transform="translate(-472.706 -320.921)" fill="#6c63ff"/>
    <path id="Path_635" data-name="Path 635" d="M621.361,427.883l1.567-4.113s3.526-4.505,1.567-6.66-4.113,6.268-4.113,6.268Z" transform="translate(-552.314 -356.462)" fill="#a0616a"/>
    <path id="Path_636" data-name="Path 636" d="M533.079,435.336l3.419-2.772s5.31-2.128,4.7-4.975-6.7,3.358-6.7,3.358Z" transform="translate(-482.111 -364.572)" fill="#a0616a"/>
    <path id="Path_637" data-name="Path 637" d="M470.66,363.759h-.2s-3.036-3.624-3.624,1.273-2.546,21.155,2.546,21.743a12.384,12.384,0,0,0,8.717-2.448s3.722-5.681,2.351-5.681a36.847,36.847,0,0,0-4.113-.2c-1.756.109-3.333.6-3.232.1C473.3,377.568,476.144,365.13,470.66,363.759Z" transform="translate(-428.153 -312.808)" opacity="0.1"/>
    <path id="Path_638" data-name="Path 638" d="M466.345,347.949l-.784-.392s-3.134.588-3.722,5.485-2.546,21.155,2.546,21.743S476.335,374,476.335,374s1.371-7.443,0-7.443-8.423.979-8.227,0S471.83,349.32,466.345,347.949Z" transform="translate(-424.133 -300.817)" fill="#575a89"/>
    <path id="Path_639" data-name="Path 639" d="M338,339.524l2.16-3.311,1.366,5.465L338,343.245Z" transform="translate(-271.793 -270.356)" fill="#575a89"/>
    <circle id="Ellipse_118" data-name="Ellipse 118" cx="5.289" cy="5.289" r="5.289" transform="translate(16.547 11.383)" fill="#f2f2f2"/>
    <rect id="Rectangle_100" data-name="Rectangle 100" width="12.536" height="12.536" transform="translate(15.567 56.044)" fill="#f2f2f2"/>
    <path id="Path_640" data-name="Path 640" d="M345.949,0l3.173,5.5,3.173,5.5H339.6l3.173-5.5Z" transform="translate(-273.082)" fill="#f2f2f2"/>
    <path id="Path_641" data-name="Path 641" d="M827.922,213.091a9.677,9.677,0,0,1-1.713,5.638,4.67,4.67,0,0,1-3.8,2.121,3.8,3.8,0,0,1-3.142-2.076q-1.35-2.076-1.35-6.387,0-.953.045-1.815t.113-1.634l.794-7.465h-5.241q-1.361,14.158-2.235,16.846t-2.961,2.689a2.5,2.5,0,0,1-1.679-.7,2.363,2.363,0,0,1-.794-1.861q0-1.043,1.645-2.915a6.646,6.646,0,0,0,1.826-3.415l1.361-10.641h-2.2a3.9,3.9,0,0,0-1.781.442,3.36,3.36,0,0,0-1.282,1.032l-.976,1.452h-.794a13.726,13.726,0,0,1,2.734-5.184,4.976,4.976,0,0,1,3.732-1.736h17.334v3.993h-5.854q-.272,2.723-.42,5.445t-.147,5.468a4.923,4.923,0,0,0,.862,3.018,2.6,2.6,0,0,0,2.155,1.157,2.839,2.839,0,0,0,1.668-.647,2.345,2.345,0,0,0,.987-1.69q.068-.5.1-.783t.034-.352Z" transform="translate(-699.771 -180.139)" fill="#6c63ff"/>
    <path id="Path_642" data-name="Path 642" d="M827.922,213.091a9.677,9.677,0,0,1-1.713,5.638,4.67,4.67,0,0,1-3.8,2.121,3.8,3.8,0,0,1-3.142-2.076q-1.35-2.076-1.35-6.387,0-.953.045-1.815t.113-1.634l.794-7.465h-5.241q-1.361,14.158-2.235,16.846t-2.961,2.689a2.5,2.5,0,0,1-1.679-.7,2.363,2.363,0,0,1-.794-1.861q0-1.043,1.645-2.915a6.646,6.646,0,0,0,1.826-3.415l1.361-10.641h-2.2a3.9,3.9,0,0,0-1.781.442,3.36,3.36,0,0,0-1.282,1.032l-.976,1.452h-.794a13.726,13.726,0,0,1,2.734-5.184,4.976,4.976,0,0,1,3.732-1.736h17.334v3.993h-5.854q-.272,2.723-.42,5.445t-.147,5.468a4.923,4.923,0,0,0,.862,3.018,2.6,2.6,0,0,0,2.155,1.157,2.839,2.839,0,0,0,1.668-.647,2.345,2.345,0,0,0,.987-1.69q.068-.5.1-.783t.034-.352Z" transform="translate(-699.771 -180.139)" opacity="0.1"/>
    <path id="Path_643" data-name="Path 643" d="M827.922,209.472a9.677,9.677,0,0,1-1.713,5.638,4.67,4.67,0,0,1-3.8,2.121,3.8,3.8,0,0,1-3.142-2.076q-1.35-2.076-1.35-6.387,0-.953.045-1.815t.113-1.634l.794-7.465h-5.241q-1.361,14.158-2.235,16.846t-2.961,2.689a2.5,2.5,0,0,1-1.679-.7,2.363,2.363,0,0,1-.794-1.861q0-1.043,1.645-2.915a6.646,6.646,0,0,0,1.826-3.415l1.361-10.641h-2.2a3.9,3.9,0,0,0-1.781.442,3.36,3.36,0,0,0-1.282,1.032l-.976,1.452h-.794a13.726,13.726,0,0,1,2.734-5.184,4.976,4.976,0,0,1,3.732-1.736h17.334v3.993h-5.854q-.272,2.723-.42,5.445t-.147,5.468a4.923,4.923,0,0,0,.862,3.018,2.6,2.6,0,0,0,2.155,1.157,2.838,2.838,0,0,0,1.668-.647,2.345,2.345,0,0,0,.987-1.69q.068-.5.1-.783t.034-.352Z" transform="translate(-699.771 -177.228)" fill="#6c63ff"/>
  </g>
</svg>
