<svg xmlns="http://www.w3.org/2000/svg" width="151.603" height="141.221" viewBox="0 0 151.603 141.221"><g id="Quran" transform="translate(0 0)"><path id="Path_603" fill="#e6e6e6" d="M381.674,290.723c-.737,0-1.481-.012-2.212-.034l.017-.531c1.049.033,2.12.042,3.174.027l.007.531Q382.168,290.723,381.674,290.723Zm4.182-.123-.031-.53c1.051-.062,2.115-.149,3.163-.259l.056.528c-1.056.111-2.129.2-3.188.261Zm-9.588-.083c-1.06-.081-2.13-.188-3.183-.317l.065-.527c1.044.128,2.107.234,3.159.314Zm15.948-.584-.08-.525c1.044-.159,2.1-.342,3.126-.547l.1.521c-1.038.206-2.1.392-3.15.551Zm-22.3-.194c-1.047-.177-2.1-.381-3.141-.607l.113-.519c1.029.224,2.078.426,3.117.6Zm28.568-1.052-.128-.516c1.025-.253,2.056-.534,3.063-.832l.151.509c-1.016.3-2.054.583-3.087.839Zm-34.818-.3c-1.027-.273-2.06-.574-3.071-.893l.16-.506c1,.317,2.029.615,3.048.886Zm40.95-1.515-.174-.5c.995-.346,1.995-.72,2.974-1.111l.2.493c-.986.395-1.994.771-3,1.12Zm-47.056-.416c-1-.367-2-.762-2.982-1.176l.206-.49c.974.41,1.97.8,2.96,1.167Zm52.987-1.957-.22-.484c.955-.434,1.915-.9,2.853-1.377l.242.473c-.946.483-1.913.95-2.875,1.387Zm-58.893-.53c-.959-.457-1.921-.943-2.86-1.444l.25-.469c.932.5,1.887.98,2.838,1.433Zm64.578-2.376-.263-.461c.916-.523,1.83-1.072,2.717-1.633l.284.449c-.894.565-1.815,1.119-2.738,1.646Zm-70.227-.642c-.912-.542-1.825-1.114-2.714-1.7l.292-.444c.882.581,1.788,1.149,2.693,1.687Zm75.626-2.773-.3-.435c.862-.6,1.723-1.234,2.558-1.876l.324.421C423.371,276.93,422.5,277.566,421.634,278.173Zm-80.972-.748c-.857-.623-1.714-1.275-2.546-1.94l.332-.415c.826.659,1.676,1.307,2.527,1.925Zm86.039-3.147-.342-.406c.8-.678,1.6-1.385,2.378-2.1l.36.39c-.78.721-1.586,1.434-2.4,2.117Zm-91.04-.846c-.8-.7-1.592-1.427-2.358-2.162l.368-.383c.76.73,1.548,1.452,2.34,2.146Zm95.734-3.5-.378-.373c.741-.751,1.474-1.528,2.178-2.31l.395.355c-.71.788-1.448,1.571-2.2,2.327ZM331.048,269c-.733-.77-1.456-1.567-2.151-2.367l.4-.348c.689.794,1.407,1.584,2.134,2.349Zm104.631-3.82-.41-.337c.669-.815,1.329-1.656,1.96-2.5l.425.318C437.018,263.515,436.353,264.362,435.679,265.183Zm-108.822-1.009c-.658-.831-1.306-1.69-1.926-2.551l.431-.31c.615.855,1.258,1.707,1.911,2.532Zm112.655-4.117-.439-.3c.592-.872,1.173-1.77,1.725-2.669l.453.278c-.557.905-1.141,1.81-1.738,2.689Zm-116.387-1.07c-.579-.887-1.145-1.8-1.684-2.715l.458-.27c.535.907,1.1,1.814,1.671,2.694ZM442.862,254.6l-.465-.257c.51-.923,1.005-1.871,1.473-2.817l.476.236c-.471.953-.971,1.909-1.485,2.838Zm-122.98-1.117c-.5-.936-.976-1.9-1.428-2.856l.48-.227c.449.951.925,1.9,1.417,2.834ZM445.7,248.859l-.487-.213c.423-.967.83-1.957,1.208-2.943l.5.19c-.381.994-.791,1.991-1.218,2.966Zm-128.54-1.146c-.407-.977-.8-1.977-1.159-2.973l.5-.182c.359.988.746,1.98,1.15,2.95ZM448,242.874l-.5-.167c.332-1,.644-2.02.93-3.035l.512.144c-.288,1.023-.6,2.052-.937,3.058Zm-133.02-1.164c-.316-1.012-.613-2.047-.883-3.075l.514-.135c.268,1.02.562,2.046.876,3.051Zm134.752-4.993-.518-.12c.238-1.024.455-2.07.646-3.107l.522.1c-.192,1.046-.412,2.1-.651,3.132Zm-136.374-1.194c-.221-1.038-.422-2.095-.6-3.142l.524-.087c.173,1.04.372,2.089.591,3.119Zm137.532-5.1-.527-.072c.143-1.04.264-2.1.359-3.154l.529.048c-.1,1.06-.218,2.129-.361,3.178Zm-138.579-1.213c-.125-1.052-.228-2.123-.306-3.183l.53-.039c.077,1.053.179,2.116.3,3.16Zm139.157-5.156-.531-.024c.047-1.053.071-2.12.071-3.173h.531c0,1.061-.024,2.137-.072,3.2ZM311.84,222.836c-.018-.651-.027-1.316-.027-1.975q0-.613.01-1.224l.531.009q-.011.606-.011,1.215c0,.654.009,1.314.027,1.96ZM451,220.12c-.011-1.053-.046-2.121-.1-3.173l.53-.03c.059,1.06.094,2.136.106,3.2Zm-138.52-3.645-.53-.033c.066-1.061.158-2.134.272-3.187l.528.057c-.113,1.045-.2,2.109-.27,3.163Zm138.167-2.692c-.106-1.047-.238-2.107-.392-3.15l.526-.078c.155,1.051.288,2.118.4,3.174Zm-137.484-3.617-.525-.081c.163-1.051.352-2.11.562-3.149l.521.105c-.208,1.031-.4,2.082-.558,3.125Zm136.555-2.66c-.2-1.036-.431-2.08-.68-3.1l.516-.126c.25,1.029.481,2.08.685,3.124Zm-135.3-3.56-.515-.129c.258-1.029.544-2.066.849-3.084l.509.153C314.962,201.894,314.678,202.924,314.422,203.945Zm133.8-2.607c-.3-1.012-.62-2.029-.962-3.025l.5-.173c.345,1,.671,2.029.97,3.048Zm-131.966-3.48-.5-.176c.353-1,.734-2.013,1.133-3l.493.2c-.4.978-.774,1.98-1.124,2.976Zm129.9-2.522c-.388-.978-.8-1.959-1.234-2.917l.485-.218c.435.965.853,1.954,1.243,2.939Zm-127.519-3.374-.483-.222c.444-.966.916-1.935,1.4-2.88l.472.244C319.544,190.041,319.076,191,318.635,191.962Zm124.919-2.4c-.475-.938-.979-1.878-1.5-2.793l.462-.262c.522.922,1.03,1.869,1.509,2.815Zm-122-3.249-.46-.265c.53-.92,1.089-1.841,1.661-2.738l.448.286C322.632,184.486,322.077,185.4,321.551,186.313Zm118.882-2.267c-.561-.894-1.149-1.784-1.747-2.646l.436-.3c.6.869,1.2,1.766,1.761,2.666Zm-115.462-3.088-.434-.306c.612-.869,1.253-1.734,1.9-2.573l.42.326C326.214,179.237,325.579,180.1,324.971,180.958Zm111.848-2.123c-.64-.839-1.307-1.672-1.982-2.478l.407-.341c.68.812,1.352,1.652,2,2.5Zm-107.956-2.9-.4-.344c.687-.807,1.4-1.611,2.129-2.388l.388.362C330.256,174.342,329.546,175.139,328.863,175.94Zm103.881-1.968c-.714-.777-1.454-1.547-2.2-2.288l.375-.377c.752.747,1.5,1.523,2.217,2.305Zm-99.55-2.673-.372-.38c.76-.743,1.546-1.478,2.336-2.184l.354.4c-.785.7-1.565,1.43-2.319,2.167Zm95.048-1.8c-.782-.709-1.59-1.409-2.4-2.079l.339-.409c.816.676,1.63,1.38,2.418,2.1Zm-90.315-2.426-.335-.412c.822-.669,1.671-1.329,2.524-1.962l.316.427C339.586,165.754,338.743,166.409,337.927,167.073Zm85.423-1.622c-.844-.635-1.712-1.259-2.581-1.853l.3-.438c.875.6,1.75,1.227,2.6,1.867ZM343.023,163.3l-.3-.441c.879-.592,1.785-1.171,2.691-1.722l.276.454C344.794,162.134,343.9,162.709,343.023,163.3Zm75.084-1.432c-.9-.556-1.82-1.1-2.74-1.61l.258-.464c.928.517,1.857,1.063,2.761,1.622ZM348.439,160l-.255-.466c.93-.509,1.884-1,2.835-1.468l.233.477C350.309,159.006,349.362,159.5,348.439,160Zm64.116-1.231c-.945-.471-1.914-.926-2.878-1.352l.215-.486c.972.43,1.948.888,2.9,1.363Zm-58.425-1.552-.211-.487c.972-.421,1.967-.826,2.956-1.2l.189.5c-.982.373-1.969.774-2.934,1.192Zm52.609-1.019c-.984-.381-1.99-.745-2.993-1.082l.169-.5c1.01.339,2.024.706,3.015,1.09Zm-46.683-1.232-.165-.5c1.01-.331,2.04-.643,3.062-.926l.142.512c-1.014.281-2.036.591-3.038.919Zm40.659-.79c-1.013-.289-2.047-.558-3.072-.8l.122-.517c1.033.243,2.074.515,3.1.805Zm-34.543-.907-.118-.518c1.035-.236,2.089-.452,3.134-.64l.094.523c-1.037.187-2.083.4-3.11.636Zm28.366-.549c-1.034-.194-2.088-.367-3.132-.513l.074-.526c1.052.148,2.114.322,3.156.517Zm-22.121-.578-.07-.527c1.052-.14,2.121-.258,3.179-.35l.046.529c-1.05.091-2.111.209-3.155.348Zm15.836-.3c-1.046-.1-2.112-.175-3.166-.226l.026-.531c1.062.051,2.135.128,3.19.227Zm-9.513-.247-.022-.531c.976-.041,1.972-.061,2.958-.062h.24l0,.531h-.239c-.979,0-1.967.021-2.936.061Z" data-name="Path 603" transform="translate(-304.068 -151)"/><path id="Path_604" fill="#2f2e41" d="M608.349,642.193V613.142a1.537,1.537,0,0,1,1.535-1.535h3.486a1.537,1.537,0,0,1,1.535,1.535v29.051a1.537,1.537,0,0,1-1.535,1.535h-3.486A1.537,1.537,0,0,1,608.349,642.193Z" data-name="Path 604" transform="translate(-530.576 -502.833)"/><path id="Path_605" fill="#2f2e41" d="M579.156,642.193V613.142a1.537,1.537,0,0,1,1.535-1.535h3.486a1.537,1.537,0,0,1,1.535,1.535v29.051a1.537,1.537,0,0,1-1.535,1.535h-3.486A1.537,1.537,0,0,1,579.156,642.193Z" data-name="Path 605" transform="translate(-508.277 -502.833)"/><rect id="Rectangle_92" width="16.946" height="18.776" fill="#2f2e41" data-name="Rectangle 92" rx="6" transform="translate(69.131 100.719)"/><path id="Path_606" fill="#e6e6e6" d="M423.161,375.734s-7.122,3.309-13.149,5.5c-3.74-8.443-9.128-8.127-9.128-8.127l-3.267,2.249.589,3.374-.161,5.516-.857,2.892,1.23.222.695.126.1-.095a7.137,7.137,0,0,0-.208,2.1l30.9-4.82S428.837,379.7,423.161,375.734Z" data-name="Path 606" transform="translate(-369.282 -320.656)"/><rect id="Rectangle_93" width="6.319" height="31.884" fill="#6c63ff" data-name="Rectangle 93" rx="3.16" transform="matrix(-0.594, -0.804, 0.804, -0.594, 47.668, 102.445)"/><rect id="Rectangle_94" width="6.319" height="31.884" fill="#6c63ff" data-name="Rectangle 94" rx="3.16" transform="matrix(0.883, -0.469, 0.469, 0.883, 80.232, 80.897)"/><path id="Path_607" fill="#ccc" d="M632.288,494.364,627.26,497.7a1.5,1.5,0,0,1-2.055-.513l-5.553-10.464a1.5,1.5,0,0,1,.727-1.99l3.423-1.816a1.5,1.5,0,0,1,2.056.513l7.159,8.947A1.5,1.5,0,0,1,632.288,494.364Z" data-name="Path 607" transform="translate(-539.094 -404.377)"/><path id="Path_608" fill="#ccc" d="M527.309,490.947l3.268,4.34a1.417,1.417,0,0,0,2,.063l8.638-8.108a1.417,1.417,0,0,0,.063-2L538.9,482.7a1.417,1.417,0,0,0-2-.063l-9.521,6.309A1.417,1.417,0,0,0,527.309,490.947Z" data-name="Path 608" transform="translate(-468.381 -404.026)"/><rect id="Rectangle_95" width="18.671" height="36.48" fill="#ccc" data-name="Rectangle 95" rx="6" transform="translate(68.268 78.181)"/><circle id="Ellipse_113" cx="12.639" cy="12.639" r="12.639" fill="#6c63ff" data-name="Ellipse 113" transform="translate(64.872 50.708)"/><path id="Path_609" fill="#2f2e41" d="M602.937,411.1a4.346,4.346,0,0,1-2.5-.6,1.92,1.92,0,0,1-.756-1.434,1.292,1.292,0,0,1,.439-1.061,1.666,1.666,0,0,1,1.577-.227l-.638-4.659.468-.064.749,5.477-.391-.179a1.429,1.429,0,0,0-1.461.013.83.83,0,0,0-.272.684,1.451,1.451,0,0,0,.562,1.069,3.906,3.906,0,0,0,2.235.5Z" data-name="Path 609" transform="translate(-523.952 -343.538)"/><rect id="Rectangle_96" width="2.544" height=".472" fill="#2f2e41" data-name="Rectangle 96" transform="translate(72.249 59.992)"/><rect id="Rectangle_97" width="2.544" height=".472" fill="#2f2e41" data-name="Rectangle 97" transform="translate(80.278 59.992)"/><path id="Path_610" fill="#2f2e41" d="M557.21,335.473a4.64,4.64,0,0,1-3.809-4.188,6.81,6.81,0,0,1,3.065-5.949,13.087,13.087,0,0,1,6.832-2.1,18.777,18.777,0,0,1,12.835,4.23,11.841,11.841,0,0,1,4.091,5.662,5.484,5.484,0,0,1-1.494,5.622,3.773,3.773,0,0,1-2.9.891,7.2,7.2,0,0,1-3.37-1.5c-1.924-1.4-3.5-3.348-5.847-4.079a4.546,4.546,0,0,0-5,1.49,2.829,2.829,0,0,0-.452,1.185.367.367,0,0,0,.247.436.356.356,0,0,0,.436-.247c.276-1.958,2.683-2.688,4.372-2.241,2.463.652,4.116,2.849,6.137,4.246a7.456,7.456,0,0,0,3.574,1.426,4.437,4.437,0,0,0,3.118-.958,6.064,6.064,0,0,0,2-5.818,11.421,11.421,0,0,0-3.892-6.161,19.47,19.47,0,0,0-13.306-4.915A14.557,14.557,0,0,0,556.6,324.4a7.921,7.921,0,0,0-3.91,5.911,5.581,5.581,0,0,0,3.008,5.443,4.711,4.711,0,0,0,1.509.426c.452.052.449-.657,0-.708Z" data-name="Path 610" transform="translate(-488.048 -282.003)"/><path id="Path_611" fill="#ccc" d="M397.357,387.064l1.5-.482c.161-.308-.133-.11.007-.41,3.794-8.093.288-13.058.288-13.058l-2.712,1.867c-.007-.015-.012-.031-.019-.047,0,0-.482-1.071-1.232-.268a19.011,19.011,0,0,1-.268,12.852l3.052,1.392,1.178-1.392.027-.134-2.108-.192Z" data-name="Path 611" transform="translate(-367.55 -320.661)"/><path id="Path_612" fill="#3f3d56" d="M440.031,443.838c-12.049-2.678-23.268,2.865-23.268,2.865l-.031-.027-4.468-3.989L394.807,414.2l4.257.027c11.835-7.069,28.489-6.1,28.489-6.1C434.729,416.259,440.031,443.838,440.031,443.838Z" data-name="Path 612" transform="translate(-367.463 -347.366)"/><path id="Path_613" d="M416.732,466.478l-4.468-3.989L394.807,434l4.257.027S416.032,456.437,416.732,466.478Z" data-name="Path 613" opacity=".1" transform="translate(-367.463 -367.168)"/><ellipse id="Ellipse_114" cx="6.908" cy="4.391" fill="#6c63ff" data-name="Ellipse 114" rx="6.908" ry="4.391" transform="translate(42.051 70.71) rotate(-17.052)"/><path id="Path_614" fill="#ccc" d="M320.819,352.479a11.431,11.431,0,0,1-4.257,5.759,9.841,9.841,0,0,1,3.484-12.879A11.431,11.431,0,0,1,320.819,352.479Z" data-name="Path 614" transform="translate(-306.883 -299.461)"/><path id="Path_615" fill="#ccc" d="M300.03,352.479a11.431,11.431,0,0,0,4.257,5.759,9.841,9.841,0,0,0-3.484-12.879A11.43,11.43,0,0,0,300.03,352.479Z" data-name="Path 615" transform="translate(-294.846 -299.461)"/><path id="Path_616" fill="#3f3d56" d="M285.616,363.26a11.431,11.431,0,0,1,2.962,6.52,9.841,9.841,0,0,1-9.56-9.306A11.431,11.431,0,0,1,285.616,363.26Z" data-name="Path 616" transform="translate(-279.019 -311.006)"/><path id="Path_617" fill="#3f3d56" d="M322.462,363.26a11.431,11.431,0,0,0-2.962,6.52,9.841,9.841,0,0,0,9.56-9.306A11.431,11.431,0,0,0,322.462,363.26Z" data-name="Path 617" transform="translate(-309.94 -311.006)"/><path id="Path_618" fill="#ccc" d="M881.818,522.479a11.431,11.431,0,0,1-4.257,5.759,9.841,9.841,0,0,1,3.484-12.879A11.431,11.431,0,0,1,881.818,522.479Z" data-name="Path 618" transform="translate(-735.4 -429.314)"/><path id="Path_619" fill="#ccc" d="M861.03,522.479a11.431,11.431,0,0,0,4.257,5.759,9.841,9.841,0,0,0-3.484-12.879A11.43,11.43,0,0,0,861.03,522.479Z" data-name="Path 619" transform="translate(-723.363 -429.314)"/><path id="Path_620" fill="#3f3d56" d="M846.616,533.26a11.431,11.431,0,0,1,2.962,6.52,9.841,9.841,0,0,1-9.56-9.306A11.43,11.43,0,0,1,846.616,533.26Z" data-name="Path 620" transform="translate(-707.536 -440.859)"/><path id="Path_621" fill="#3f3d56" d="M883.462,533.26a11.431,11.431,0,0,0-2.962,6.52,9.842,9.842,0,0,0,9.56-9.306A11.43,11.43,0,0,0,883.462,533.26Z" data-name="Path 621" transform="translate(-738.457 -440.859)"/><rect id="Rectangle_98" width="54.788" height=".472" fill="#3f3d56" data-name="Rectangle 98" transform="translate(50.528 140.748)"/></g></svg>