<svg xmlns="http://www.w3.org/2000/svg" width="66.522" height="66.024" viewBox="0 0 66.522 66.024"><path id="Icon_awesome-user-circle" fill="#b8b8b8" d="M33.261.563A33.013,33.013,0,1,0,66.522,33.575,33.132,33.132,0,0,0,33.261.563Zm0,12.779a11.714,11.714,0,1,1-11.8,11.714A11.759,11.759,0,0,1,33.261,13.341Zm0,45.791a25.779,25.779,0,0,1-19.648-9.078,14.967,14.967,0,0,1,13.211-7.96,3.3,3.3,0,0,1,.952.146,17.879,17.879,0,0,0,5.485.918,17.811,17.811,0,0,0,5.485-.918,3.3,3.3,0,0,1,.952-.146,14.967,14.967,0,0,1,13.211,7.96A25.779,25.779,0,0,1,33.261,59.132Z" data-name="Icon awesome-user-circle" opacity=".78" transform="translate(0 -0.563)"/></svg>