<svg xmlns="http://www.w3.org/2000/svg" width="80.882" height="80.882" viewBox="0 0 80.882 80.882"><path id="Icon_awesome-user-circle" fill="rgba(216,216,216,0.72)" d="M40.441.562A40.441,40.441,0,1,0,80.882,41,40.434,40.434,0,0,0,40.441.562Zm0,15.655a14.35,14.35,0,1,1-14.35,14.35A14.35,14.35,0,0,1,40.441,16.217Zm0,56.1a31.248,31.248,0,0,1-23.89-11.121A18.181,18.181,0,0,1,32.614,51.44a3.99,3.99,0,0,1,1.158.179,21.59,21.59,0,0,0,6.669,1.125,21.508,21.508,0,0,0,6.67-1.125,3.99,3.99,0,0,1,1.158-.179,18.181,18.181,0,0,1,16.062,9.751A31.248,31.248,0,0,1,40.441,72.313Z" data-name="Icon awesome-user-circle" opacity=".43" transform="translate(0 -0.563)"/></svg>