<svg xmlns="http://www.w3.org/2000/svg" width="97.815" height="97.815" viewBox="0 0 107.815 107.815"><path id="Icon_awesome-user-circle" fill="rgba(216,216,216,0.72)" d="M53.908.562A53.908,53.908,0,1,0,107.815,54.47,53.9,53.9,0,0,0,53.908.562Zm0,20.867A19.128,19.128,0,1,1,34.779,40.558,19.129,19.129,0,0,1,53.908,21.43Zm0,74.775A41.654,41.654,0,0,1,22.063,81.38a24.235,24.235,0,0,1,21.411-13,5.319,5.319,0,0,1,1.543.239,28.78,28.78,0,0,0,8.89,1.5,28.671,28.671,0,0,0,8.89-1.5,5.319,5.319,0,0,1,1.543-.239,24.235,24.235,0,0,1,21.411,13A41.654,41.654,0,0,1,53.908,96.2Z" data-name="Icon awesome-user-circle" opacity=".43" transform="translate(0 -0.563)"/></svg>